<?xml version="1.0" encoding="UTF-8"?>
<svg xmlns="http://www.w3.org/2000/svg" role="img" viewBox="95.16 44.16 1499.68 1063.68">
  <style>svg {enable-background:new 0 0 1644.01 1080}</style>
  <style>@-webkit-keyframes cloudineyde{50%{transform:scale(1.02) translateX(1px)}}@-webkit-keyframes planta1{50%{transform:rotate(-7deg)}}@-webkit-keyframes planta2{50%{transform:rotate(6deg)}}@-webkit-keyframes planta3{50%{transform:rotate(8deg)}}@-webkit-keyframes char1topper{50%{transform:rotate(-2deg)}}@-webkit-keyframes char1bottom{50%{transform:rotate(-2deg)}}@-webkit-keyframes char1larmer{50%{transform:rotate(10deg) translateX(-1px) translateY(2px)}}@-webkit-keyframes char1rarmer{50%{transform:rotate(-2deg)}}@-webkit-keyframes char1header{50%{transform:rotate(-7deg)}}@-webkit-keyframes char1haired{33%{transform:rotate(6deg)}66%{transform:rotate(-6deg)}}@-webkit-keyframes char2topper{50%{transform:rotate(2deg)}}@-webkit-keyframes char2larmer{50%{transform:rotate(1deg)}}@-webkit-keyframes char2rarmer{50%{transform:rotate(-1deg)}}@-webkit-keyframes char2header{50%{transform:rotate(-4deg)}}@-webkit-keyframes char2tied{33%{transform:rotate(3deg)}66%{transform:rotate(-4deg)}}@-webkit-keyframes char3topper{50%{transform:rotate(4deg)}}@-webkit-keyframes char3bottom{50%{transform:rotate(-2deg)}}@-webkit-keyframes char3header{50%{transform:rotate(-4deg)}}@-webkit-keyframes char3haired{33%{transform:rotate(3deg)}66%{transform:rotate(-4deg)}}@-webkit-keyframes char3armed{50%{transform:rotate(2deg)}}@-webkit-keyframes char4topper{50%{transform:rotate(-3deg)}}@-webkit-keyframes char4bottom{50%{transform:rotate(2deg)}}@-webkit-keyframes char4rarmed{50%{transform:rotate(4deg)}}@-webkit-keyframes char4larmed{50%{transform:rotate(-6deg)}}@-webkit-keyframes char4handed{50%{transform:rotate(-10deg)}}@-webkit-keyframes char4headed{50%{transform:rotate(8deg)}}@-webkit-keyframes char4haired{33%{transform:rotate(-3deg)}66%{transform:rotate(4deg)}}@-webkit-keyframes char5topper{50%{transform:rotate(3deg)}}@-webkit-keyframes char5bottom{50%{transform:rotate(-1.5deg) translateY(-3px)}}@-webkit-keyframes char5header{33%{transform:rotate(3deg)}66%{transform:rotate(-7deg)}}@-webkit-keyframes char5rarmed{50%{transform:rotate(-4deg)}}.st0{opacity:.1;fill:#64c7d9;enable-background:new}.st1{fill:#dedede}.st2{fill:#845ba5}.st3{fill:#e96668}.st4{fill:#cececf}.st5{fill:#f3bd18}.st6{fill:none;stroke:#fff;stroke-width:2;stroke-miterlimit:10}.st7{fill:#848484}.st10{fill:#fff;stroke:#64c7d9;stroke-miterlimit:10;stroke-width:3}.st11{fill:#417d87}.st12{fill:none}.st13{fill:#57a8b5}.st14{fill:#60b7c6}.st15{fill:#4d95a6}.st16{fill:#386e77}.st17{fill:#58a9af}.st18{fill:#6ed3e0}.st19{fill:#70d8e5}.st20{fill:#4a8d96}.st21{fill:#64c0cc}.st22{fill:#66c6d9}.st23{fill:#76e5f4}.st24{fill:#ea6668}.st25{fill:#f5be16}.st26{fill:#333}.st26,.st27{opacity:.08;enable-background:new}.st28{fill:#fff}.st29{fill:#cecece}.st30{opacity:.1;enable-background:new}.st31{fill:#343433}.st32{fill:#64c7d9}.st33{fill:#eaeaea}.st34{fill:#a7a9aa}.st35{fill:#294375}.st36{fill:#f7f8f9}.st42{fill:#61c1ce}.st45{fill:#023c74}.st51{fill:#333}</style>
  <path d="M1368.38,780.59c0,0,140.05-74.14,58.73-230.2c-58.45-112.17-92.84-230.07-103.2-303.87 c-11.29-80.35-69.44-146.73-148.19-166.23c-46.76-11.58-103.81-9.47-169.92,22.65c-199.86,97.13-381.22,70.02-381.22,70.02 S409.11,53.25,279.99,136.83c0,0-163.05,76.53-108.79,265.59c37.89,132.02,17.47,189.25,1.7,211.77 c-11.98,17.1-20.51,36.36-25.53,56.63c-14.48,58.42-29.92,160.1,21.57,206.91c74.54,67.76,1139.02,31.71,1139.02,31.71 L1368.38,780.59z" class="st0"></path>
  <path d="M217.48,780.59c0,0-140.05-74.14-58.73-230.2c58.45-112.17,92.84-230.07,103.2-303.87 c11.29-80.34,69.44-146.72,148.2-166.22c46.76-11.58,103.81-9.47,169.92,22.65c199.86,97.13,381.22,70.02,381.22,70.02 s215.46-119.72,344.58-36.14c0,0,163.05,76.53,108.79,265.59c-37.89,132.02-17.47,189.25-1.7,211.77 c11.98,17.1,20.51,36.36,25.53,56.63c14.48,58.42,29.92,160.1-21.57,206.91c-74.54,67.76-1139.02,31.71-1139.02,31.71L217.48,780.59 z" class="st0"></path>
  <path d="M806.75 234.52H893.36V912.01H806.75z" class="st1"></path>
  <g>
    <g style="transform-origin:1384.6px 829px;animation-duration:10s;animation-name:planta3;animation-iteration-count:infinite;transition-timing-function:ease-in-out">
      <path d="M1512.16,742c-0.11-0.42-0.21-0.84-0.32-1.26c-50.08,15.35-95.02,46.03-128.09,87.8 c0.29,0.22,0.58,0.44,0.87,0.66C1417.58,787.68,1462.33,757.22,1512.16,742z" class="st2"></path>
      <path d="M1532.95 735.93c-.55-4.28-15.67-3.48-22.27 5.85C1520.5 745.69 1533.46 740.05 1532.95 735.93zM1499.9 745.41c1.98 10.47 14.61 16.14 17.46 12.91C1520.41 754.98 1511.98 743.77 1499.9 745.41zM1480.72 753.24c3.36 12 18.8 17.47 21.87 13.5C1505.91 762.58 1495.03 750.03 1480.72 753.24zM1394.8 816.33c8.75 9.91 27.84 7.21 29.52 1.85C1426.23 812.43 1409.07 805.33 1394.8 816.33zM1458.98 764.41c5.35 13.53 24.19 18.21 27.39 13.35C1489.92 772.6 1475.82 758.83 1458.98 764.41zM1413.67 797.39c8.71 12.38 30.02 12.26 32.42 6.54C1448.84 797.77 1430.7 787 1413.67 797.39zM1436.28 779.08c7.64 14.24 29.47 17.15 32.54 11.48C1472.31 784.46 1454.92 770.54 1436.28 779.08z" class="st2"></path>
      <path d="M1508.82 723.77c-4.85-1.1-13.61 12.05-8.92 21.65C1510.18 739.09 1513.47 724.96 1508.82 723.77zM1489.62 726.91c-5.98-.82-15.42 15.61-8.89 26.33C1492.39 744.78 1495.32 727.87 1489.62 726.91zM1393.55 785.4c-6.98 2.37-10.45 23.95 1.24 30.92C1403.92 801.67 1400.26 783.38 1393.55 785.4zM1467.14 732.41c-7.37-.24-17.18 20.34-8.16 32C1472.01 753.09 1474.14 732.91 1467.14 732.41zM1415.78 762.16c-8.11 1.7-14.4 25.74-2.1 35.23C1425.31 782.19 1423.51 760.84 1415.78 762.16zM1442.35 742.24c-8.57.69-17.71 25.14-6.07 36.84C1449.85 764.74 1450.46 741.93 1442.35 742.24z" class="st2"></path>
    </g>
    <g style="transform-origin:1347.1px 790px;animation-duration:7.5s;animation-name:planta2;animation-iteration-count:infinite;transition-timing-function:ease-in-out">
      <g>
        <path d="M1347.15 789.77L1349.39 791.41 1479.84 620.35 1477.6 618.71z" class="st3"></path>
      </g>
      <g>
        <g>
          <path d="M1503.51,587.03l-3.25,2.12c-1.01,0.66-24.64,16.26-22.95,30.62l0.16,1.4l1.42-0.24 c14.53-2.48,23.11-29.12,23.47-30.25L1503.51,587.03z" class="st3"></path>
        </g>
      </g>
      <path d="M1364.97 768.71l-.89 1.16 1.12.82c27.75 20.33 70.02 4.4 71.8 3.71l3.08-1.19-2.83-1.41C1435.05 770.69 1382.97 745.1 1364.97 768.71zM1392.34 732.82l-.89 1.16 1.12.82c24.35 17.84 61.43 3.87 63 3.27l3.08-1.19-2.83-1.41C1453.87 734.5 1408.18 712.05 1392.34 732.82zM1418.53 698.48l-.89 1.16 1.12.82c20.96 15.36 52.84 3.34 54.19 2.82l3.08-1.19-2.83-1.41C1471.52 699.86 1432.21 680.54 1418.53 698.48zM1443.53 665.7l-.89 1.16 1.12.82c17.57 12.87 44.25 2.81 45.38 2.38l3.08-1.19-2.83-1.41C1487.99 666.76 1455.06 650.58 1443.53 665.7zM1465 637.55l-.89 1.16 1.12.82c14.17 10.38 35.66 2.28 36.57 1.93l3.08-1.19-2.83-1.41C1500.92 638.3 1474.37 625.26 1465 637.55zM1341.47 701.61l-2.18-2.26-.29 3.23c-.17 1.87-3.8 46.12 23.95 66.45l1.12.82.89-1.16C1382.95 745.09 1343.17 703.38 1341.47 701.61zM1371.76 673.89l-2.18-2.26-.29 3.23c-.15 1.64-3.33 40.45 21.03 58.3l1.12.82.89-1.16C1408.16 712.03 1373.26 675.43 1371.76 673.89zM1400.88 647.7l-2.19-2.26-.29 3.23c-.13 1.41-2.86 34.78 18.1 50.14l1.12.82.89-1.16C1432.19 680.52 1402.16 649.04 1400.88 647.7zM1428.81 623.07l-2.19-2.26-.29 3.23c-.11 1.18-2.39 29.12 15.17 41.99l1.12.82.89-1.16C1455.04 650.56 1429.89 624.19 1428.81 623.07zM1453.2 603.08l-2.18-2.26-.29 3.23c-.09.95-1.93 23.45 12.24 33.83l1.12.82.89-1.16C1474.35 625.25 1454.07 603.98 1453.2 603.08z" class="st3"></path>
    </g>
  </g>
  <path d="M1312.22 229.97H1398.83V907.46H1312.22z" class="st4"></path>
  <g style="transform-origin:222.3px 734.5px;animation-duration:7.5s;animation-name:planta1;animation-iteration-count:infinite;transition-timing-function:ease-in-out">
    <path d="M155.52,655.75c0.36-0.55,0.71-1.1,1.07-1.65c68,44.59,121.06,108.7,151.04,183.25 c-0.54,0.19-1.08,0.37-1.62,0.55C276.09,763.76,223.22,700.03,155.52,655.75z" class="st5"></path>
    <path d="M127.16 637.68c2.85-5.85 25.19 2.13 30.7 18.43C141.25 657.24 124.44 643.32 127.16 637.68zM172.33 666.17c-7.91 14.03-29.56 16.4-32.33 10.5C137.02 670.52 154.97 658.36 172.33 666.17zM197.46 686.02c-10.71 15.59-36.49 16.4-39.22 9.34C155.21 687.92 177.48 674.96 197.46 686.02zM296.81 814.93c-17.82 10.17-45.23-2.33-45.23-10.74C251.41 795.13 280.55 792.78 296.81 814.93zM224.86 711.81c-14.42 16.86-44.94 15.01-47.45 6.62C174.52 709.46 202.2 696.22 224.86 711.81zM277.38 779.37c-18.93 13.71-50.88 3.88-51.8-5.37C224.36 763.97 256.69 756.83 277.38 779.37zM252.05 743.02c-18.2 16.84-52.36 11.1-54.31 1.62C195.37 734.36 228.08 722.38 252.05 743.02zM169.15 631.26c7.8.63 14.77 23.35 3.19 34.91C159.88 652.5 161.59 630.86 169.15 631.26z" class="st5"></path>
    <path d="M196.52 644.44c9.37 1.54 15.81 29.25.94 41.58C183.92 668.68 187.49 643.24 196.52 644.44zM313.27 771.4c9.37 6.55 4.4 38.88-16.46 43.54C290.01 789.89 304.13 765.47 313.27 771.4zM227.69 662.48c11.19 2.99 16.22 36.79-2.84 49.33C210.63 689.76 216.94 660.01 227.69 662.48zM290.83 728.18c11.38 6.1 9.5 43.23-13.46 51.19C267.07 752.43 279.84 722.8 290.83 728.18zM260.31 687.74c12.55 4.86 14.75 43.88-8.26 55.29C238.42 716.42 248.27 683.61 260.31 687.74z" class="st5"></path>
  </g>
  <path d="M263.09 236.77H349.7V914.26H263.09z" class="st4"></path>
  <g>
    <g>
      <path d="M806.75 255.7L893.36 255.7M806.75 276.03L893.36 276.03M806.75 296.36L893.36 296.36M806.75 316.69L893.36 316.69M806.75 337.02L893.36 337.02M806.75 357.35L893.36 357.35M806.75 377.68L893.36 377.68M806.75 398.01L893.36 398.01M806.75 418.34L893.36 418.34M806.75 438.67L893.36 438.67M806.75 458.99L893.36 458.99M806.75 479.32L893.36 479.32M806.75 499.65L893.36 499.65M806.75 519.98L893.36 519.98M806.75 540.31L893.36 540.31M806.75 560.64L893.36 560.64M806.75 580.97L893.36 580.97M806.75 601.3L893.36 601.3M806.75 621.63L893.36 621.63M806.75 641.96L893.36 641.96M806.75 662.29L893.36 662.29M806.75 682.62L893.36 682.62M806.75 702.95L893.36 702.95M806.75 723.28L893.36 723.28M806.75 743.61L893.36 743.61M806.75 763.94L893.36 763.94M806.75 784.26L893.36 784.26M806.75 804.59L893.36 804.59M806.75 824.92L893.36 824.92M806.75 845.25L893.36 845.25M806.75 865.58L893.36 865.58M806.75 885.91L893.36 885.91" class="st6"></path>
    </g>
    <path d="M850.05 255.7L850.05 234.52M871.7 255.7L871.7 276.03M829.35 255.7L829.35 276.03M850.05 296.78L850.05 275.61M871.7 296.78L871.7 317.11M829.35 296.78L829.35 317.11M850.05 337.87L850.05 316.69M871.7 337.87L871.7 358.2M829.35 337.87L829.35 358.2M850.05 378.95L850.05 357.77M871.7 378.95L871.7 399.28M829.35 378.95L829.35 399.28M850.05 418.12L850.05 396.95M871.7 418.12L871.7 438.45M829.35 418.12L829.35 438.45M850.05 459.21L850.05 438.03M871.7 459.21L871.7 479.54M829.35 459.21L829.35 479.54M850.05 500.29L850.05 479.11M871.7 500.29L871.7 520.62M829.35 500.29L829.35 520.62M850.05 541.37L850.05 520.19M871.7 541.37L871.7 561.7M829.35 541.37L829.35 561.7M850.05 581.45L850.05 560.28M871.7 581.45L871.7 601.78M829.35 581.45L829.35 601.78M850.05 622.54L850.05 601.36M871.7 622.54L871.7 642.87M829.35 622.54L829.35 642.87M850.05 663.62L850.05 642.44M871.7 663.62L871.7 683.95M829.35 663.62L829.35 683.95M850.05 704.7L850.05 683.52M871.7 704.7L871.7 725.03M829.35 704.7L829.35 725.03M850.05 742.78L850.05 721.6M871.7 742.78L871.7 763.11M829.35 742.78L829.35 763.11M850.05 783.86L850.05 762.68M871.7 783.86L871.7 804.19M829.35 783.86L829.35 804.19M850.05 824.94L850.05 803.77M871.7 824.94L871.7 845.27M829.35 824.94L829.35 845.27M850.05 866.02L850.05 844.85M871.7 866.02L871.7 886.35M829.35 866.02L829.35 886.35M850.05 912.02L850.05 886.35" class="st6"></path>
  </g>
  <path d="M170.05 860.63H1482.4199999999998V1059.17H170.05z" class="st0"></path>
  <path d="M1295.45 229.97H1382.06V907.46H1295.45z" class="st1"></path>
  <path d="M170.05 907.24H1482.4199999999998V1059.17H170.05z" class="st7"></path>
  <path d="M277.9 236.7H364.51V914.19H277.9z" class="st1"></path>
  <g opacity=".5">
    <path fill="#fff" stroke="#64c7d9" stroke-miterlimit="10" stroke-width="5" d="M1040.9 289.06H1165.8000000000002V373.11H1040.9zM1040.9 384.62H1165.8000000000002V468.67H1040.9zM1040.9 480.18H1165.8000000000002V564.23H1040.9z"></path>
    <g>
      <path d="M634.8 340.6H777.02V561.78H634.8z" class="st10"></path>
      <g>
        <path d="M640.55 346.6H771.28V555.76H640.55z" class="st11"></path>
        <g>
          <g>
            <path d="M640.55 411.97L640.55 346.6M640.55 411.97L640.55 379.29" class="st12"></path>
          </g>
          <g>
            <path d="M771.28 346.6L771.26 411.97 705.9 411.97 705.9 346.6z" class="st13"></path>
            <path d="M771.28 411.97L705.9 411.97 771.28 346.6z" class="st14"></path>
            <path d="M750.31 346.6L705.9 391.65 705.9 373.2 732.5 346.6z" class="st15"></path>
            <g>
              <path d="M738.58 379.3H771.2800000000001V443.72H738.58z" class="st13"></path>
              <path d="M738.58 379.3H750.84V391.56H738.58z" class="st15"></path>
            </g>
          </g>
          <g>
            <path d="M705.9,411.97h-65.36v-0.01c0-36.1,29.26-65.36,65.36-65.36l0,0V411.97z" class="st15"></path>
            <path d="M640.55 379.29L673.11 411.97" class="st12"></path>
            <g>
              <path d="M705.9,379.29c0,9.02-3.66,17.2-9.57,23.11l-46.22-46.22c5.91-5.92,14.08-9.57,23.11-9.57 c9.02,0,17.19,3.66,23.11,9.57C702.24,362.09,705.9,370.26,705.9,379.29z" class="st15"></path>
              <path d="M696.33,402.4c-5.85,5.85-13.91,9.49-22.83,9.57h-0.56c-8.91-0.07-16.97-3.71-22.83-9.57 c-5.91-5.92-9.57-14.09-9.57-23.11c0-9.02,3.66-17.2,9.57-23.11L696.33,402.4z" class="st14"></path>
              <circle cx="672.48" cy="378.54" r="14.29" class="st11"></circle>
            </g>
          </g>
        </g>
        <path d="M640.55 542.69H705.91V555.7600000000001H640.55z" class="st16"></path>
        <path d="M640.55 542.69L640.55 555.76" class="st12"></path>
        <path d="M705.9 542.69H771.28V555.7600000000001H705.9z" class="st13"></path>
        <path d="M705.9 555.76L718.97 542.69 705.9 542.69z" class="st14"></path>
        <path d="M640.55 542.69H673.2299999999999V555.7600000000001H640.55z" class="st11"></path>
        <g>
          <g>
            <path d="M705.91 477.33L640.55 477.33 665.1 452.78 677.11 448.67 681.17 436.7 705.9 411.97zM640.55 444.72h32.6v-32.75C655.17 411.97 640.55 426.73 640.55 444.72z" class="st14"></path>
          </g>
          <g>
            <path d="M640.55 411.97L640.55 477.33M640.55 411.97L640.55 413.06" class="st12"></path>
            <g>
              <path d="M673.16 444.72L640.55 477.33" class="st12"></path>
            </g>
          </g>
          <g>
            <path d="M771.28 411.97L771.26 542.69 705.9 542.69 705.91 477.33 705.9 411.97z" class="st11"></path>
            <g>
              <g>
                <path d="M771.28,542.69h-1.25c-35.53-0.67-64.12-29.68-64.12-65.36c0-18.04,7.31-34.37,19.13-46.2l46.24,46.2 V542.69z" class="st16"></path>
                <path d="M771.28,411.97v65.36l-46.21-46.2C736.89,419.3,753.24,411.97,771.28,411.97z" class="st13"></path>
              </g>
              <path d="M771.28,477.33c0,18.04-14.64,32.66-32.67,32.66c-18.03,0-32.7-14.62-32.7-32.66H771.28z" class="st11"></path>
            </g>
          </g>
          <g>
            <path d="M640.55 477.33L640.55 542.69" class="st12"></path>
            <path d="M640.55 477.33L673.23 542.69 640.55 542.69" class="st13"></path>
            <path d="M640.55 487.67L640.55 477.33" class="st12"></path>
          </g>
          <g>
            <path d="M640.55 477.33H705.9V542.6899999999999H640.55z" class="st13"></path>
            <path d="M705.9 542.69L640.55 542.69 640.55 510.01 640.55 477.34 640.55 477.33 640.55 477.33 640.55 477.33 640.56 477.34 673.23 510.01z" class="st13"></path>
            <path d="M673.23 477.33L673.23 510.01 640.55 477.33z" class="st11"></path>
            <path d="M705.9 510.01L705.9 542.69 673.23 510.01z" class="st16"></path>
            <path d="M673.23 510.01L640.55 510.01 640.55 477.33z" class="st15"></path>
            <path d="M705.9 542.69L673.23 542.69 673.23 510.01z" class="st11"></path>
            <path d="M705.9,542.69h-32.68v-32.68C691.27,510.01,705.9,524.64,705.9,542.69z" class="st14"></path>
          </g>
          <path d="M681.17 436.7L665.1 452.78 681.18 452.78z" class="st15"></path>
        </g>
      </g>
    </g>
    <g>
      <path d="M401.36 262.73H617.94V562H401.36z" class="st10"></path>
      <g>
        <path d="M406.62 268.74H612.6800000000001V557.22H406.62z" class="st17"></path>
        <path d="M475.31 543.48L489.05 557.22 612.68 557.22 612.68 543.44zM578.34 268.75L578.34 371.79 544.01 371.79 543.91 268.74z" class="st18"></path>
        <path d="M406.62 406.11L543.99 406.11 543.99 543.46 406.62 543.48z" class="st19"></path>
        <path d="M543.99,337.42v103.03h-68.93c-18.83,0-34.1-15.27-34.1-34.1v-68.93H543.99z" class="st17"></path>
        <path d="M509.57 543.4L475.04 543.4 475.31 440.45 509.57 440.45z" class="st20"></path>
        <path d="M475.22 337.41H509.56000000000006V371.78000000000003H475.22z" class="st21"></path>
        <path d="M475.31,337.41v34.36c0,18.97-15.38,34.34-34.34,34.34l0,0l-0.01-68.7L475.31,337.41L475.31,337.41z" class="st22"></path>
        <path d="M543.99 371.78h34.34v-.03c0-18.96-15.36-34.37-34.32-34.38L543.99 371.78zM406.62 268.74H440.96000000000004V303.08000000000004H406.62z" class="st21"></path>
        <path d="M475.31 303.08L440.96 268.74 475.31 268.74z" class="st23"></path>
        <path d="M406.62 406.11H475.31V440.45000000000005H406.62zM475.31 303.08h-68.69v-34.34h34.34C459.93 268.74 475.31 284.11 475.31 303.08L475.31 303.08z" class="st21"></path>
        <path d="M475.31,440.45L475.31,440.45c-18.97,0-34.34-15.38-34.34-34.34l0,0h34.34V440.45z" class="st20"></path>
        <path d="M493.57 406.11L475.31 406.11 475.31 371.79 484.44 348.36 493.57 371.78z" class="st21"></path>
        <path d="M578.31,371.79v34.3l-34.3,0.02C562.96,406.11,578.31,390.73,578.31,371.79z" class="st23"></path>
        <path d="M543.99,371.77c0-18.94-15.48-34.36-34.42-34.36l34.45-0.04L543.99,371.77z" class="st20"></path>
        <path d="M475.31 371.77v-34.36h34.26C490.62 337.41 475.31 352.82 475.31 371.77zM475.31 303.08L475.31 303.08v-34.34h34.34l0 0C509.65 287.7 494.27 303.08 475.31 303.08z" class="st18"></path>
        <path d="M406.62 490.26H440.96000000000004V524.6H406.62z" class="st22"></path>
        <path d="M440.96 490.26H475.29999999999995V524.6H440.96z" class="st22"></path>
        <path d="M543.99,406.11L543.99,406.11v-34.34h34.34l0,0C578.34,390.73,562.96,406.11,543.99,406.11z" class="st18"></path>
        <path d="M543.99 440.45L543.99 543.46 509.52 543.48 509.52 440.45z" class="st22"></path>
        <path d="M543.99 371.77L543.99 406.11 475.31 406.11 509.65 371.77z" class="st18"></path>
        <path d="M578.34,440.45H544h-34.34l0,0c0,18.97,15.38,34.34,34.34,34.34l0,0h34.34h34.34v-34.34H578.34z" class="st19"></path>
        <path d="M578.34,440.45c0,18.97-15.38,34.34-34.34,34.34v-34.34h-34.47c0-18.97,15.5-34.34,34.47-34.34 C562.96,406.11,578.34,421.49,578.34,440.45z" class="st20"></path>
        <path d="M543.99 440.45L543.99 490.97 509.52 474.67 509.52 440.45z" class="st22"></path>
        <circle cx="543.99" cy="440.45" r="17.17" class="st19"></circle>
        <path d="M509.57,543.4v0.08H406.62V440.45C463.47,440.45,509.57,486.55,509.57,543.4z" class="st22"></path>
        <path d="M475.31,543.43v0.05l-0.01,13.74h-68.69v-82.49C444.56,474.74,475.31,505.49,475.31,543.43z" class="st17"></path>
        <path d="M543.99 474.8L612.68 543.44 612.68 474.8z" class="st18"></path>
        <path d="M578.34 440.45L612.68 474.8 612.68 440.45z" class="st21"></path>
        <path d="M440.96 543.48L406.62 508.24 406.62 543.48z" class="st18"></path>
        <path d="M475.31 440.45L509.65 406.11 475.31 406.11z" class="st21"></path>
        <path d="M525.73,371.77h-16.16v-16.06h0.08C518.52,355.71,525.72,362.89,525.73,371.77z" class="st23"></path>
        <path d="M509.57,355.71l0.08,50.4h-16.08v-34.33C493.57,362.93,500.72,355.75,509.57,355.71z" class="st17"></path>
        <path d="M475.31 303.08L509.57 337.41 544.01 337.37 543.95 303.05z" class="st22"></path>
        <path d="M612.68,268.74v68.4h-0.35c-37.78,0-68.41-30.62-68.42-68.4H612.68z" class="st21"></path>
        <path d="M612.68,268.74v40.5c-22.37,0-40.5-18.13-40.5-40.5H612.68z" class="st18"></path>
        <path d="M509.52,474.67L509.52,474.67c-18.9,0-34.22-15.32-34.22-34.22l0,0l17.17-10.46l17.05,10.46V474.67z" class="st17"></path>
        <path d="M543.99 543.46L509.52 509.06 509.57 543.48z" class="st23"></path>
        <path d="M406.62,303.08L406.62,303.08v103.03h34.34l-0.01-68.69C440.96,318.46,425.59,303.08,406.62,303.08z" class="st18"></path>
        <path d="M440.96,371.77v34.34c-18.97,0-34.34-15.38-34.34-34.34H440.96z" class="st23"></path>
        <path d="M543.91,406.11H475.3l0,0c0-18.97,15.38-34.34,34.34-34.34h34.26v34.34H543.91z" class="st18"></path>
      </g>
    </g>
    <path d="M1124.07,305.96c0,0-6.73,45.38-20.73,25.12c-24.43-35.36-47.69,30.78-47.69,30.78h98.91 c0,0-17.79-19.48-11.01-34.31c6.78-14.82,0,0,11.01-20.75C1162.92,291.06,1126.06,295.54,1124.07,305.96z" class="st7"></path>
    <path d="M1078.91,403.22c0,0-41.75,10.03-13.55,47.87c0,0,35.83,18.78,62.09-2.19s-18.72-26.89-18.72-26.89 s-23.84-4.54-9.33-18.79C1113.9,388.97,1078.91,403.22,1078.91,403.22z" class="st22"></path>
    <circle cx="1139.2" cy="402.42" r="5.19" class="st2"></circle>
    <circle cx="1150.09" cy="437.36" r="5.7" class="st2"></circle>
    <circle cx="1106.36" cy="313.77" r="6.96" class="st24"></circle>
    <circle cx="1146.33" cy="540.93" r="5.19" class="st25"></circle>
    <circle cx="1105.06" cy="521.29" r="5.19" class="st25"></circle>
    <circle cx="1147.41" cy="497.3" r="5.19" class="st25"></circle>
    <circle cx="1123.59" cy="505.7" r="5.19" class="st2"></circle>
    <circle cx="1085.2" cy="531.67" r="5.19" class="st2"></circle>
    <circle cx="1103.55" cy="492.11" r="5.19" class="st25"></circle>
    <circle cx="1128.78" cy="526.48" r="5.19" class="st25"></circle>
    <circle cx="1111.83" cy="544.56" r="5.19" class="st2"></circle>
  </g>
  <g>
    <g>
      <path d="M1295.45 251.15L1382.06 251.15M1295.45 271.48L1382.06 271.48M1295.45 291.81L1382.06 291.81M1295.45 312.14L1382.06 312.14M1295.45 332.47L1382.06 332.47M1295.45 352.79L1382.06 352.79M1295.45 373.12L1382.06 373.12M1295.45 393.45L1382.06 393.45M1295.45 413.78L1382.06 413.78M1295.45 434.11L1382.06 434.11M1295.45 454.44L1382.06 454.44M1295.45 474.77L1382.06 474.77M1295.45 495.1L1382.06 495.1M1295.45 515.43L1382.06 515.43M1295.45 535.76L1382.06 535.76M1295.45 556.09L1382.06 556.09M1295.45 576.42L1382.06 576.42M1295.45 596.75L1382.06 596.75M1295.45 617.08L1382.06 617.08M1295.45 637.41L1382.06 637.41M1295.45 657.74L1382.06 657.74M1295.45 678.06L1382.06 678.06M1295.45 698.39L1382.06 698.39M1295.45 718.72L1382.06 718.72M1295.45 739.05L1382.06 739.05M1295.45 759.38L1382.06 759.38M1295.45 779.71L1382.06 779.71M1295.45 800.04L1382.06 800.04M1295.45 820.37L1382.06 820.37M1295.45 840.7L1382.06 840.7M1295.45 861.03L1382.06 861.03M1295.45 881.36L1382.06 881.36" class="st6"></path>
    </g>
    <path d="M1338.75 251.15L1338.75 229.97M1360.4 251.15L1360.4 271.48M1318.05 251.15L1318.05 271.48M1338.75 292.23L1338.75 271.05M1360.4 292.23L1360.4 312.56M1318.05 292.23L1318.05 312.56M1338.75 333.31L1338.75 312.14M1360.4 333.31L1360.4 353.64M1318.05 333.31L1318.05 353.64M1338.75 374.39L1338.75 353.22M1360.4 374.39L1360.4 394.72M1318.05 374.39L1318.05 394.72M1338.75 413.57L1338.75 392.39M1360.4 413.57L1360.4 433.9M1318.05 413.57L1318.05 433.9M1338.75 454.65L1338.75 433.48M1360.4 454.65L1360.4 474.98M1318.05 454.65L1318.05 474.98M1338.75 495.74L1338.75 474.56M1360.4 495.74L1360.4 516.07M1318.05 495.74L1318.05 516.07M1338.75 536.82L1338.75 515.64M1360.4 536.82L1360.4 557.15M1318.05 536.82L1318.05 557.15M1338.75 576.9L1338.75 555.72M1360.4 576.9L1360.4 597.23M1318.05 576.9L1318.05 597.23M1338.75 617.98L1338.75 596.81M1360.4 617.98L1360.4 638.31M1318.05 617.98L1318.05 638.31M1338.75 659.06L1338.75 637.89M1360.4 659.06L1360.4 679.39M1318.05 659.06L1318.05 679.39M1338.75 700.15L1338.75 678.97M1360.4 700.15L1360.4 720.48M1318.05 700.15L1318.05 720.48M1338.75 738.22L1338.75 717.05M1360.4 738.22L1360.4 758.55M1318.05 738.22L1318.05 758.55M1338.75 779.31L1338.75 758.13M1360.4 779.31L1360.4 799.64M1318.05 779.31L1318.05 799.64M1338.75 820.39L1338.75 799.21M1360.4 820.39L1360.4 840.72M1318.05 820.39L1318.05 840.72M1338.75 861.47L1338.75 840.29M1360.4 861.47L1360.4 881.8M1318.05 861.47L1318.05 881.8M1338.75 907.46L1338.75 881.8" class="st6"></path>
  </g>
  <g>
    <g>
      <path d="M277.9 257.95L364.51 257.95M277.9 278.28L364.51 278.28M277.9 298.61L364.51 298.61M277.9 318.93L364.51 318.93M277.9 339.26L364.51 339.26M277.9 359.59L364.51 359.59M277.9 379.92L364.51 379.92M277.9 400.25L364.51 400.25M277.9 420.58L364.51 420.58M277.9 440.91L364.51 440.91M277.9 461.24L364.51 461.24M277.9 481.57L364.51 481.57M277.9 501.9L364.51 501.9M277.9 522.23L364.51 522.23M277.9 542.56L364.51 542.56M277.9 562.89L364.51 562.89M277.9 583.22L364.51 583.22M277.9 603.55L364.51 603.55M277.9 623.88L364.51 623.88M277.9 644.2L364.51 644.2M277.9 664.53L364.51 664.53M277.9 684.86L364.51 684.86M277.9 705.19L364.51 705.19M277.9 725.52L364.51 725.52M277.9 745.85L364.51 745.85M277.9 766.18L364.51 766.18M277.9 786.51L364.51 786.51M277.9 806.84L364.51 806.84M277.9 827.17L364.51 827.17M277.9 847.5L364.51 847.5M277.9 867.83L364.51 867.83M277.9 888.16L364.51 888.16" class="st6"></path>
    </g>
    <path d="M321.2 257.95L321.2 236.77M342.85 257.95L342.85 278.28M300.49 257.95L300.49 278.28M321.2 299.03L321.2 277.85M342.85 299.03L342.85 319.36M300.49 299.03L300.49 319.36M321.2 340.11L321.2 318.93M342.85 340.11L342.85 360.44M300.49 340.11L300.49 360.44M321.2 381.19L321.2 360.02M342.85 381.19L342.85 401.52M300.49 381.19L300.49 401.52M321.2 420.37L321.2 399.19M342.85 420.37L342.85 440.7M300.49 420.37L300.49 440.7M321.2 461.45L321.2 440.28M342.85 461.45L342.85 481.78M300.49 461.45L300.49 481.78M321.2 502.53L321.2 481.36M342.85 502.53L342.85 522.86M300.49 502.53L300.49 522.86M321.2 543.62L321.2 522.44M342.85 543.62L342.85 563.95M300.49 543.62L300.49 563.95M321.2 583.7L321.2 562.52M342.85 583.7L342.85 604.03M300.49 583.7L300.49 604.03M321.2 624.78L321.2 603.6M342.85 624.78L342.85 645.11M300.49 624.78L300.49 645.11M321.2 665.86L321.2 644.69M342.85 665.86L342.85 686.19M300.49 665.86L300.49 686.19M321.2 706.95L321.2 685.77M342.85 706.95L342.85 727.28M300.49 706.95L300.49 727.28M321.2 745.02L321.2 723.85M342.85 745.02L342.85 765.35M300.49 745.02L300.49 765.35M321.2 786.1L321.2 764.93M342.85 786.1L342.85 806.43M300.49 786.1L300.49 806.43M321.2 827.19L321.2 806.01M342.85 827.19L342.85 847.52M300.49 827.19L300.49 847.52M321.2 868.27L321.2 847.09M342.85 868.27L342.85 888.6M300.49 868.27L300.49 888.6M321.2 914.26L321.2 888.6" class="st6"></path>
  </g>
  <g>
    <g id="char2">
      <g id="char2bot">
        <path d="M622.83,1030.52l9.68-64.48l21.19-123.87l21.19,123.87l7.27,63.92c3.61-0.59,7.26-1.03,10.93-1.31 c11.06-0.86,22.4-13.9,32.97-9.74l-3.09-93.06l-3.37-153.26l-59.74-9.49l0.14-1.98l-4.18,1.34l-8.43-1.34l0.28,3.95l-61.49,19.7 l-1.76,141.09l-4.91,106.37C593.96,1031.8,608.4,1031.25,622.83,1030.52z" class="st15"></path>
        <path d="M586.09,788.69h0.05l-1.71,137.16l-4.91,106.37c3.56-0.1,7.13-0.21,10.69-0.33 c0.78-5.52,1.58-11.03,2.35-16.54c5.44-38.74,9.16-77.85,12.89-116.79c3.32-34.57,5.71-69.21,6.23-103.93" class="st26"></path>
        <path d="M654.97,849.61l19.92,116.43l7.25,48.33c3.61-0.59,7.26-1.03,10.93-1.31c7.97-0.62,16.09,0.54,23.96,2.79 c-0.46-1.84-0.91-3.68-1.35-5.53c-3.74-15.78-6.87-31.7-10.12-47.58c-1.04-3.08-2.08-6.16-3.14-9.23 c-14.12-41-30.58-81.14-47-121.27c-0.33,0.06-0.65,0.11-0.98,0.17C654.9,838.15,655.05,843.88,654.97,849.61z" class="st27"></path>
      </g>
      <g style="transform-origin:653.38px 787.9px;animation-duration:7.5s;animation-name:char2topper;animation-iteration-count:infinite;transition-timing-function:ease-in-out">
        <path d="M720.88,690.18l-1.76-130.84c-87.49-27.59-146.51,6.31-146.51,6.31l15.49,114.29l-0.24,13.21l0,0 l-1.77,95.55c0,0,51.48,12.88,68.57,12.88c16.45,0,65.56-12.88,65.56-12.88c-0.06-0.61-0.13-1.97-0.2-3.93h0.3 C719.54,776.88,720.88,690.18,720.88,690.18z" class="st28"></path>
        <path d="M611.69,794.64c0.08-5.62,0.12-11.23,0.1-16.85c-0.04-12.98,0.01-26.59,6.34-38.33 c6.95-12.89,21.4-21.95,35.28-25.69c13.35-3.59,26.01-0.25,37.77,6.39c10.83,6.11,18.02,10.37,29.18,9.48 c-0.06-9.67,0.24-18.81,0.32-25.92c-2.32-1.92-12.22-37.64-17.7-63.67c-17.74,4.58-36.09,7.06-54.22,9.09 c-10.84,1.21-21.9,2.74-32.7,0.41c-7.21-1.56-13.22-5.25-18.31-10.09c-1.48,18.21-2.5,36.93-9.9,53.7l-1.77,95.55" class="st26"></path>
        <g style="transform-origin:648.5px 564px;animation-duration:7.5s;animation-name:char2header;animation-iteration-count:infinite;transition-timing-function:ease-in-out">
          <g>
            <path d="M667.59,515.29l-37.24,9.46l-2.43,22.78c-1.18,12.24,8.45,22.84,20.75,22.84 c11.95,0,21.45-10.02,20.81-21.95L667.59,515.29z" class="st29"></path>
            <path d="M630.35,524.75l-1.22,11.46c2.19,1.56,5.34,10.33,7.33,12.31c17.47,17.39,28.92-5.6,32.19-14.64 l-1.06-18.59L630.35,524.75z" class="st30"></path>
            <path d="M648.89,456.48c-18.39,0-31.7,14.29-31.7,31.92c0,2.11,0.23,4.2,0.63,6.25l0.1,1.4 c0,0,1.33,22.61,5.55,29.3c4.52,7.17,11.23,13.37,12.54,14.56c2.41,2.88,6.42,4.65,12.88,4.65c6.8,0,10.74-1.61,13.04-4.24 l0.05,0.1c0,0,7.31-7.09,12.33-15.07c2.87-4.56,4.61-21.07,5.51-28.82c0.26-8.92,1.41-5.77,1.41-9.79 C681.22,469.11,667.28,456.48,648.89,456.48z" class="st29"></path>
          </g>
          <path d="M671.2,451.09c-4.86-1.48-19.85-4.98-30.31-4.16c-10.47,0.82-23.84,10.62-26.09,19.85 c-2.73,11.16,0.91,26.99,1.24,28.76c0.33,1.77,2.83,10.72,2.83,10.72s0.05-23.41,5.97-31.42c5-6.76,45.64-2.64,49.9-0.28 c4.27,2.36,3.79,32.51,3.79,32.51c2.95-2.87,3.97-19.06,4.14-22.91c0.49-11.41,1.46-18.37,0.34-19.96 C681.35,461.82,682.87,454.64,671.2,451.09z" class="st31"></path>
        </g>
        <g style="transform-origin:583.4px 573px;animation-duration:3.25s;animation-name:char2rarmer;animation-iteration-count:infinite;transition-timing-function:ease-in-out">
          <path d="M661.48,669.47l8.02-12.85l35.95-7.35c0,0,7.41,7.48,0.45,15.26S661.48,669.47,661.48,669.47z" class="st29"></path>
          <path d="M592.42,672.84L572.8,565.65c0,0-8.67,7.88-8.67,20.49s-2.32,106.76,0.05,109.91 c2.36,3.15,2.68,18.76,33.75,16.99c18.9-1.08,95.8-18.92,95.8-18.92l-2.79-20.49L592.42,672.84z" class="st29"></path>
          <path d="M690.94,673.63l-98.52-0.79l-2.46-13.42l12.29-19.97L582.9,560.9l-10.09,4.74c0,0-8.67,7.88-8.67,20.49 c0,10.8-1.7,81.37-0.7,103.4c0.74-0.84,1.58-1.65,2.6-2.37c17.15-12.06,39.89-10.56,59.85-11.46 c21.74-0.97,43.45-2.48,65.14-1.43L690.94,673.63z" class="st28"></path>
          <path d="M592.42,672.84l-4.25-23.22c-1.75,7.98-7.89,14.83-18.45,14.83c-2.43,0-4.63-0.37-6.59-1.03 c-0.04,13.59,0.08,24.97,0.55,29.95c7.27,3.42,35.48-6,48.7-5.39c7.04,0.32,70.5,11.28,87.53,9.63l-8.97-23.99L592.42,672.84z" class="st30"></path>
          <path d="M701.45,642.74l-14.6,0.97l-17.35,12.91l44.93,1.28l-8.15-12.73 C705.24,643.54,703.39,642.61,701.45,642.74z" class="st29"></path>
        </g>
        <circle cx="648.7" cy="570.88" r="5.96" class="st32"></circle>
        <path d="M669.48 548.43L649.2 564.43 659.34 578.89 673.76 549.75zM628.23 548.43L648.5 564.43 638.36 578.89 623.94 549.75z" class="st33"></path>
        <path class="st32" style="transform-origin:648.5px 572px;animation-duration:7.5s;animation-name:char2tied;animation-iteration-count:infinite;transition-timing-function:ease-in-out" d="M645.56 573.27L638.26 660.83 658.39 661.41 651.74 573.27z"></path>
        <g style="transform-origin:712.4px 573px;animation-duration:3.25s;animation-name:char2larmer;animation-iteration-count:infinite;transition-timing-function:ease-in-out">
          <path d="M607.69,654.86l-13-8.91l-23.05-6.61c0,0-1.77,4.02,3.25,6.61c5.02,2.59,7.39,4.88,7.39,4.88 s0.89,1.72-2.96,2.3c-3.84,0.57-15.67,3.73-15.67,3.73l-7.68,10.06c0,0-0.59,2.3,0.89,3.73c0,0-0.3,7.47,1.18,8.91 c0,0,0.3,6.61,3.25,6.32l2.07,0.57c0,0-1.48,6.61,2.07,6.32s8.28-5.17,8.28-5.17l22.46-2.59c0,0,7.39-3.16,10.34-6.32 l17.44-0.29l-2.36-21.26L607.69,654.86z" class="st29"></path>
          <path d="M622.53,675.51c-10.36,0.71-21.01,0.43-30.96,3.74c-12.6,4.18-22.61,4.96-33.29-4.17 c-0.52-0.44-0.99-0.91-1.44-1.4c0.07,2.25,0.33,5.07,1.18,5.89c0,0,0.3,6.61,3.25,6.32l2.07,0.57c0,0-1.48,6.61,2.07,6.32 s8.28-5.17,8.28-5.17l22.46-2.59c0,0,7.39-3.16,10.34-6.32l17.44-0.29l-0.34-3.02C623.25,675.43,622.89,675.49,622.53,675.51z" class="st30"></path>
          <path d="M718.99,559.35l-16.82,51.42l3.98,46.9l-98.46-2.81l11.72,21.07c0,0,81.42,27.85,99.74,27.85 c18.33,0,20.69-31.33,20.69-33.69s-6.34-77.64-8.11-91.24C729.95,565.25,718.99,559.35,718.99,559.35z" class="st29"></path>
          <path d="M744.39,654.36c-4.55-22.8-11.33-65.31-12.66-75.51c-1.77-13.6-12.74-19.5-12.74-19.5l-6.3-1.94 l-27.94,28.41l15.17,51.04l5.03,6.56l0.5,5.85C716.94,650.16,733.57,650.32,744.39,654.36z" class="st28"></path>
        </g>
      </g>
    </g>
    <g id="char3">
      <g>
        <path d="M795.7,1032.99c1.23-18.23,2.19-38.83,3.68-43.22c4.89-14.44,36.45-128.96,41.73-144.29 c4.5,47.23,13.98,137.74,13.98,144.55c0,3.19,0.14,20.86,0.33,43.07c13.56,0.12,27.12,0.18,40.68,0.16 c1.61-19.33,2.63-32.79,1.56-39.1c-3.49-20.44-1.29-37.24-1.29-37.24s18.03-133.08,17.84-142.73c-0.5-25.12-3.3-29.18-6.13-38.66 c-37.14,0.74-83.65,13.94-120.62,10.14l-10.4,64.95c0,0-16.27,123.31-18.85,138.49c-0.81,4.76-2.19,21.69-3.71,42.67 C767.39,1031.94,782.82,1032.8,795.7,1032.99z" class="st34" style="transform-origin:844.56px 788px;animation-duration:7.5s;animation-name:char3bottom;animation-iteration-count:infinite;transition-timing-function:ease-in-out"></path>
        <g style="transform-origin:844.56px 788px;animation-duration:7.5s;animation-name:char3topper;animation-iteration-count:infinite;transition-timing-function:ease-in-out">
          <path d="M874.82,474.19c-2.35-1.55-4.88-2.05-7.93-2.37l-15.55-0.23 c-16.81-0.53-34.82,11.15-35.36,27.98l-2.54,70.86c-0.26,7.29,5.38,13.43,12.66,13.79l58.25,2.88 c7.98,0.4,14.52-6.27,13.96-14.24c-1.39-19.76-2.88-48.3-3.55-57.8c-0.12-1.64-0.73-3.21-0.85-4.86 C892.29,488.04,887.03,482.22,874.82,474.19z" class="st31" style="transform-origin:854.9px 479.5px;animation-duration:7.5s;animation-name:char3haired;animation-iteration-count:infinite;transition-timing-function:ease-in-out"></path>
          <path d="M918.44,582.8c0,0-60.06-25.41-122.86-0.29l2.7,38.26c0,0-6.37,21.64-7.66,28.44 c-3.75,19.75,3.47,27.3,3.47,27.3l-9.06,115.3l12.62,6.07c5.27,2.54,11.53,1.79,16.06-1.91l7.34-6l8.94,8.51 c9.57,9.1,22.82,9.03,35.8,6.56c36.54-6.95,47-19.75,47-19.75s-10.86-52.58-9.06-91.85C904.47,677.4,918.44,582.8,918.44,582.8z" class="st35"></path>
          <path d="M906.94,611.7c0,0,20.71-4.97,21.08-9.92s-1.33-15.75-11.03-19.27S906.94,611.7,906.94,611.7z" class="st35"></path>
          <path d="M826.77,573.78c3.77,20.42-0.05,60.49,3.2,85.19c13.57-20.5,41.9-63.96,51.79-85.56 C865.89,570.82,848.64,570.06,826.77,573.78z" class="st36"></path>
          <path fill="#333" d="M903.73,693.44c0.39-8.54,4.53-39.34,8.32-66.27c-3.77,5.62-17-2.51-19.94,1.71 c-10.67,15.27-8.02,47.87-27.44,52.74c-8.87,2.22-21.26,0.15-30.27-0.04c-10.52-0.22-21.03-0.32-31.53-0.93 c-3.41-0.2-6.23-2.79-8.76-4.13l-0.55,7.04c1.28,0.04,2.58,0.16,3.86,0.39c20.78,3.67,61.98,15.25,82.11,8.18 c25.03-8.78,21.57,20.47-3.2,29.16c-25.87,9.07-58.83,7.34-85.97,2.89l-0.47,6.04c12.56-3.1,27.46-0.02,41.5,3.69 c18.48,4.89,44.74,12.65,57.5,28.98c6.95,5.17,13.94,22.39,12.4,30.61c0,0,4.78-2.72,6.27-3.78c1.39-1,5.25-4.42,5.25-4.42 S901.93,732.71,903.73,693.44z" opacity=".1"></path>
          <g style="transform-origin:850px 585px;animation-duration:7.5s;animation-name:char3armed;animation-iteration-count:infinite;transition-timing-function:ease-in-out">
            <path d="M791.24,692.91l5.04-22.24l9.61-91.77c0,0-19.55,3.48-23.03,14.34c-2.69,8.41-15.21,36.5-23.56,101.61 c-2.05,15.98-0.7,19.54,6.28,23.02c6.98,3.49,36.76,8.51,72.56,11.16l-0.66-23.04L791.24,692.91z" class="st35"></path>
            <path d="M916.99,582.51c-18.14-2.79-20.23,25.12-20.23,25.12l-18.14,83.03l-63.88-4.74 c-7.67,6.98-6.2,19.7-6.2,19.7s49.85,18.53,66.59,19.23c16.74,0.7,25.81-6.28,25.81-6.28c26.51-46.05,30.7-99.07,31.4-115.82 C933.03,585.99,916.99,582.51,916.99,582.51z" class="st35"></path>
            <path d="M838.14 727.71L849.48 726.62 864.67 724.21 837.86 718.88zM785.68 694.83l.88 1.16c.83 1.1 2 1.91 3.32 2.29l19.21 5.55c0 0 .49-9.97.99-11.56 1.13-3.57 3.05-4.7 3.05-4.7s-7-8.04-16.93-8.12c-4.33-.03-6.32 4.95-6.32 4.95l-6.91 6.82C781.89 693.8 784 692.6 785.68 694.83z" class="st29"></path>
            <path d="M800.02,601.3c0,0,12.9-8.08,13.41-14.18c0.52-6.1-7.54-8.22-7.54-8.22L800.02,601.3z" class="st35"></path>
          </g>
          <g style="transform-origin:853.24px 582px;animation-duration:7.5s;animation-name:char3header;animation-iteration-count:infinite;transition-timing-function:ease-in-out">
            <path d="M838.38,541.22l-1.21,38.12c-0.18,5.79-3.33,15.65,16.25,16.27c9.39,0.3,19.23-12.74,19.53-22.15 l-4.44-31.29L838.38,541.22z" class="st29"></path>
            <path d="M838.38,541.22l-0.75,23.76c1.77,4.68,6.68,5.38,14.11,4.13c8.4-1.41,13.03-4.55,19.11-10.42l-2.34-16.52 L838.38,541.22z" class="st30"></path>
            <path d="M823.54,529.95c-0.5,15.79,7.12,38.1,21.19,36.71c22.53-2.23,35.43-13.53,35.93-29.32l1.09-34.53 l-48.52-14.77l-5.11,6.32c-1.71,2.59-3.55,8.28-3.67,11.38L823.54,529.95z" class="st29"></path>
            <path d="M874.5,536.51c0.64,20.96-5.64,35.66-5.64,35.66l6.98-10.43l9.14-15.14l1.72-44.81l-57.9-17.32 c0,0,17.62,23.23,32.9,27.8C870.39,514.87,874.27,529.07,874.5,536.51z" class="st31"></path>
          </g>
          <path d="M793.78,632.79l4.5-12.02c0,0-9.96,18.38-10.99,22.15c-7.61,28.01-1.97,26.39-0.91,29.17 c1.07,2.78-3.42,19.14-3.42,19.14l9.37-9.25l1.3,0.35l0.46-5.81c0,0-6.33-11.23-4.22-22.33 C791.98,643.09,793.78,632.79,793.78,632.79z" class="st30"></path>
          <path fill="#253d63" d="M819.99 575.07l3.53 10.48-6.59 4.12c0 0 2.33 34.85 13.04 69.3 0 0 2.22-31.31 2.22-57.29 0-16.39 1.26-24.12 1.02-33.74L819.99 575.07zM858.99 598.2c-4.97 7.86-29.02 60.77-29.02 60.77s39.74-46.97 50.68-60.77l-3.86-9.78 8.1-1.65 1.63-12.25-12.73-10.09C873.79 564.43 864.7 589.17 858.99 598.2z"></path>
          <path d="M837.64,564.43l-10.88,8.09c-0.77,25.93,8.11,33.07,8.11,33.07l9.85-11.12 C834.88,587.85,837.64,564.43,837.64,564.43z" class="st33"></path>
          <path d="M844.56,594.47l8.08,12.11c0,0,17.34-13.94,29.12-35.84l-10.53-9.44 C871.22,561.3,858.64,589.97,844.56,594.47z" class="st33"></path>
        </g>
      </g>
    </g>
    <g id="char5">
      <g style="transform-origin:1259.7px 797px;animation-duration:7.5s;animation-name:char5bottom;animation-iteration-count:infinite;transition-timing-function:ease-in-out">
        <path d="M1218.28,1044.15c9.4,0.08,18.8-0.27,28.12-1.2c0.25-0.04,0.49-0.1,0.74-0.14l3.49-105.5l7.51-105.26 l5.61-0.25l11.28,101.95l13.34,89.49c7.19-1.29,14.72-1.14,22.11,0.54c3.19,0.73,6.25,1.91,9.14,3.43l-1.37-93.97l2.43-104.01 l-1.34-34.55c-0.44,0.09-114.24-2.44-114.84-2.84l-0.95,42.67l5,100.33L1218.28,1044.15z" class="st34"></path>
        <path d="M1305.87,815.21c0.74,17.56-3.15,115.16-1.59,144.47c0.76,14.3,1.63,39.63,2.45,63.37 c1.26,0.2,2.51,0.44,3.77,0.72c3.19,0.73,6.25,1.91,9.14,3.43l-1.37-93.97l2.43-104.01l-2.12-54.51 c-0.14,0.03-11.94,0.11-27.87,0.2c0.9,1.46-88.13,23.05-86.18,23.35C1238.39,803.56,1305.33,802.28,1305.87,815.21z" class="st27"></path>
        <path d="M1235.84,1043.75c3.53-0.2,7.05-0.46,10.56-0.81c0.25-0.04,0.49-0.1,0.74-0.14l3.49-105.5l7.51-105.26 c0,0-16.43,69.08-18.22,95.42c-2.34,34.48-4.31,69.03-4.12,103.6C1235.82,1035.29,1235.84,1039.52,1235.84,1043.75z" class="st27"></path>
      </g>
      <g style="transform-origin:1259.7px 797px;animation-duration:7.5s;animation-name:char5topper;animation-iteration-count:infinite;transition-timing-function:ease-in-out">
        <g style="transform-origin:1196px 603px;animation-duration:7.5s;animation-name:char5rarmed;animation-iteration-count:infinite;transition-timing-function:ease-in-out">
          <path d="M1188.7,800.9l0.84-4.38c-5.74,2.11-12.42,1.89-17.84-0.59l-0.2,3.24h-0.02l-8.63,30.17l3.36,19.43 l6.75,9.05c0,0,4.69,1.37,5.47-3.62s3.71-27.46,3.71-27.46s3.43-1.23,3.81,3.11c0.39,4.34,2.07,10.91,7.24,10.87l-0.55-20.53 L1188.7,800.9z" class="st29"></path>
          <path d="M1184.66,602.99l-0.03,0.01l-6,102.66l-8.83,95.54l20.24,4.02l15.23-87.57c0,0,2.31-44.77,2.21-52.59 l-1.86-79.65C1191.22,589.02,1186.06,599.38,1184.66,602.99z" class="st35"></path>
          <path d="M1215.27,597.23c0,0,4.43-13.08-9.65-11.82s4.6,68.15,4.6,68.15S1213.76,623.61,1215.27,597.23z" class="st35"></path>
        </g>
        <path d="M1313.46 720.21L1315.55 653.01 1311.92 636.99 1310.71 653.79 1305.87 719.82 1310.71 774.52 1318.58 774.71 1317.97 762.02z" class="st30"></path>
        <path d="M1360,707.77l-1.64-9.15h0.01L1341.38,603l-0.03-0.01c-1.4-3.62-6.56-13.97-20.95-17.58l-56.28-20.44 c-0.02-0.11-0.03-0.23-0.04-0.35c-0.01-0.07,0.01-0.12,0.01-0.18l-0.36-0.13l-0.72,0.26l-0.72-0.26l-0.36,0.13 c0,0.06,0.02,0.12,0.01,0.18c-0.02,0.12-0.02,0.23-0.04,0.35l-56.28,20.44l0,0c0,0-5.4,93.95,1.86,79.65l1.09,54.65l-3.13,41.54 h-0.04l-2.82,36.22c17.87-0.2,37.7,5.62,55.57,5.57c20.49-0.05,43.09-5.76,63.58-5.76l-3.75-36.04h-0.09l-4.43-41.04l0.08-2.44 l31.11,4.25C1353.22,722.91,1360.55,716.1,1360,707.77z M1314.61,685.79l1.08-32.23l4.71,32.13L1314.61,685.79z" class="st35"></path>
        <path fill="#333" d="M1358.35,698.62L1358.35,698.62L1341.38,603l-0.03-0.01c-0.99-2.57-3.9-8.51-10.63-13.04 c7.14,12.73,9.68,34.48,10.06,36.68c2.99,17.3,3.98,34.6,7.17,52.01c1.52,8.28,4.64,20.46-1.52,28 c-6.77,8.28-69.73,2.06-87.4-0.17c-8.73-1.1,0.75-17.33,0.75-17.33l13.3-0.14l41.55-3.21c0,0,0.9-27.98,1.08-32.23 c-1.12,8.42-5.85,19.26-13.21,24c-9.34,6.02-21.14,5.65-31.82,5.17c-20.96-0.93-41.85,1.38-62.78,2.53l-1.66,33.42 c0,0,13.08,1.12,24.92,1.72c2.62,0.13,5.1-1.53,5.7-4.08c0.66-2.78-0.51-5.59,3.13-5.77c21.14-1.03,44.63,7.85,63.59,16.34 l11.28,6l-1.37-12.68l0.08-2.44l31.11,4.25c8.57,0.88,15.9-5.93,15.34-14.26L1358.35,698.62z" opacity=".14"></path>
        <g>
          <g>
            <path d="M1217.7,664.59l-70.43-0.11c-3.75,0-4.71,1.34-4.71,4.24l8.82,45.6c0,2.9,2.38,4.37,5.32,4.37h69.82 c2.94,0,5.32-1.27,5.32-4.17l-8.82-44.82C1223.02,666.79,1220.64,664.59,1217.7,664.59z" class="st34"></path>
          </g>
        </g>
        <path d="M1249.03,683.71l-19.16-7.32l-5.64,0.03l4.83,26.64l10.03,3.17c4.18,0.76,8.86,0.82,12.37-1.34l7.56,1.57 l-1.62-16.74L1249.03,683.71z" class="st29"></path>
        <path d="M1201.21,683.96l3.69,11.69c1.1,3.16,3.74,5.59,7.06,6.49l19.89,5.37l14.15-0.92c0,0,2.09-0.49,4.1-1.22 l9.28,1.26l2.45-17.59l-26.39-7.17L1201.21,683.96z" class="st29"></path>
        <path d="M1195.81,683.59c-1.62,0.12-2.8,1.52-2.6,3.08c0.17,1.34,1.33,2.36,2.72,2.4l31.32,0.58l-0.59-8.6 L1195.81,683.59z" class="st29"></path>
        <g style="transform-origin:1259px 581px;animation-duration:7.5s;animation-name:char5header;animation-iteration-count:infinite;transition-timing-function:ease-in-out">
          <g>
            <path d="M1220.69,501.77l4.12,34.71c1.86,15.68,15.93,26.79,32.13,24.87s28.28-32.41,28.11-43.17l-2.56-23.75 L1220.69,501.77z" class="st29"></path>
            <path d="M1243.28,539.71l-1.13,36.31c1.64,6.07,9.88,19.64,13.39,26.67c0.69-0.07,3.28-0.07,3.83-0.02 c5.54-7.87,19.43-24.75,19.56-28.97l-3.33-36.46L1243.28,539.71z" class="st29"></path>
            <path d="M1242.54,563.71l-0.19,6.07c6.83,5.19,19.83,0.38,25.96-4.25c3.98-3,6.87-6.89,8.85-11.24l-1.35-14.79 C1270.52,551.77,1254.67,559.48,1242.54,563.71z" class="st30"></path>
            <path d="M1250.64,471.66l-37.81,7.09c-6.49,19.6,7.85,23.02,7.85,23.02l37.08-4.41c9.59-1.14,9.85,8,9.85,8 l1.7,9.69l4.8-0.57c0,0,1.26-4.16,3.76-4.45c1.85-0.22,3.68-0.27,4.36,5.47c1.87,15.71-6.13,15.23-6.13,15.23l-0.91,11.67 l1.52,4.84c8.5-17.89,9.34-30.73,9.34-30.73l-2.64-22.2C1280.41,468.94,1250.64,471.66,1250.64,471.66z" class="st31"></path>
            <path d="M1242.03,559.69l0.38,3.22c0,0,14.39,5.74,25.19-8.1C1267.6,554.81,1257.05,564.44,1242.03,559.69z" class="st30"></path>
            <path d="M1273.81,509.75l-4.68,0.56c2.03,33.11-10.92,33.99-26.89,35.84c-17.82,2.06-17.81-13.12-17.81-13.12 s-0.02,36.41,21.52,35.26c33.06-1.77,30.52-37.22,30.52-37.22L1273.81,509.75z" class="st31"></path>
            <path d="M1255.89,546.16c-0.68-5.69-5.89-9.76-11.65-9.07l-7.66,0.91c-5.76,0.68-9.88,5.85-9.2,11.55l0.34,2.87 c0.68,5.69,5.89,9.76,11.65,9.07l7.66-0.91c5.76-0.68,9.88-5.85,9.2-11.55L1255.89,546.16z" class="st31"></path>
            <path d="M1233.51,547.89c0.56,4.7,3.89,4.13,8.02,3.64s7.5-0.72,6.94-5.42L1233.51,547.89z" class="st29"></path>
          </g>
        </g>
        <path d="M1278.04,592.99c0,0-13.86,50.1-21.73,73.97c0,0-15.88-61.66-15.78-73.33l2.64-3.26 c0,0,13.15-18.34,32.29-0.6L1278.04,592.99z" class="st36"></path>
        <path d="M1242.35 569.18L1242.35 569.18l-8.85 4.44c0 8.53 5.45 21.96 5.45 21.96l20.07-13.82C1249.47 576.3 1242.35 569.18 1242.35 569.18zM1259.02 581.75l19.02 13.82c0 0 4.9-10.83 8.03-20.95l-7.91-9.46C1278.16 565.17 1266.66 577.65 1259.02 581.75z" class="st33"></path>
        <path d="M1256.31 666.96v14.92C1256.31 681.88 1254.76 676.05 1256.31 666.96zM1256.31 711.5c0 0 3.91 83.88 0 91.55V711.5z" opacity=".14"></path>
      </g>
    </g>
    <g id="char1">
      <g style="transform-origin:437.745px 825.6px;animation-duration:7.5s;animation-name:char1bottom;animation-iteration-count:infinite;transition-timing-function:ease-in-out">
        <path fill="#62bfcc" d="M385.84,980.42c-0.22,1.21-0.03,35.7,0.29,52.57c12.66-0.48,25.32-0.84,37.98-1.09 c2.62-6.83,1.59-20.81,1.65-21.89c0.25-5.02-0.39-19.49-0.28-21.74c0.11-0.35-0.39-7.69,0.18-10.15 c0.51-2.21,9.72-125.72,9.72-125.72l5.66-0.85c0,0,7.29,113.18,7.05,115.21c-0.24,2.03-0.62,12.35,0.2,14.74 c0.14,3.73-0.19,9.83-0.19,12.78c0,1.06-0.45,17.11-1.02,37.27c12.51-0.15,25.02-0.21,37.53-0.21 c1.07-20.78,3.28-45.86,3.28-48.12c0-2.28,4.8-32.73,4.8-35.03c0-2.3,11.54-107.46,12.33-113.56c0.8-6.1-2.24-37.42-2.24-37.42 l-126.09-0.19c0,14.23-3.19,45.75-0.8,58.96C378.28,869.17,386.27,978.02,385.84,980.42z"></path>
        <path id="XMLID_00000137850873554172133310000007642402575992040635_" d="M374.39 847.71L376.03 856.82 435.03 860.58 435.83 851.04z" class="st30"></path>
        <path id="XMLID_00000034064569254992333420000011046829614238597816_" d="M440.23 851.23L441.07 860.63 501.6 858.48 503.18 847.85z" class="st30"></path>
      </g>
      <g style="transform-origin:437.745px 825.6px;animation-duration:7.5s;animation-name:char1topper;animation-iteration-count:infinite;transition-timing-function:ease-in-out">
        <g id="char1head">
          <g style="transform-origin:454.2px 553px;animation-duration:7.5s;animation-name:char1haired;animation-iteration-count:infinite;transition-timing-function:ease-in-out">
            <path id="XMLID_00000084494075935314362090000018148449545365361328_" d="M473.61,624.29 c1.41-7.26,17.02-16.61,15.12-35.95c-1.89-19.34-28.39-18.77-30.6-40.83c-2.73,2.62-7.41,13.88-7.41,13.88 c-2.12,12.3,2.02,25.53,8.41,31.78c6.12,5.98,8.19,9.45,7.57,13.92c-0.73,5.3-5.77,10.03-3.09,18.59 c0.28-3.73,1.36-6.57,3.77-9.24c-2.7,4.24-5.57,17.02,9.06,16.23C476.45,632.67,472.14,631.88,473.61,624.29z" class="st31"></path>
            <path id="XMLID_00000100358849030615911260000010567213968758281613_" d="M456.73,560.07 c0,0-5.7,12.39,0.02,23.68c2.88,5.69,18.01,17.62-0.71,21.7c0,0,6.23-1.53,5.39-7.62c-0.84-6.1-10.79-7.1-10.71-18.36 c0.05-7.5,2.24-15.47,3.52-17.08L456.73,560.07z" class="st31"></path>
            <path id="XMLID_00000161593526619262868350000008296638182132554671_" d="M459.57,556.82l2.78-2.2 c0,0,0.1,3.21,2.6,7.2c4.66,7.43,20.4,11.35,23.77,23.28c3.29,11.64-2.59,21.63-8.52,28.78c0,0,9.22-12.61,3.61-24.93 c-6.15-13.5-19.21-7.14-22.99-24.69L459.57,556.82z" class="st31"></path>
            <path id="XMLID_00000071556228895104496950000005005070344506677384_" d="M458.13,547.51 c0,0,10.38,20.19,26.44,24.9c0,0-22.85,3.96-26.48-17L458.13,547.51z" class="st31"></path>
          </g>
          <path id="XMLID_00000023243756821994696700000009648884185258273975_" d="M451.97,549.16c0,0,0,29.47,3.47,32.07 c5.36,4.02,50.04,17.7,51.96,19.89c6.89,7.86,7.84,8.01,9.57,24.47c3.3,31.39-157.59,1.78-156.02,1.93 c0,0,4.44-21.46,10.14-24.65s45.43-16.21,48.82-19.59c3.39-3.37,2.6-28.92,2.6-28.92L451.97,549.16z" class="st29"></path>
          <path d="M422.5,566.59l30.49-3.01C452.99,563.57,440.24,591.49,422.5,566.59z" class="st30"></path>
          <g style="transform-origin:435px 567.8px;animation-duration:7.5s;animation-name:char1header;animation-iteration-count:infinite;transition-timing-function:ease-in-out">
            <path id="XMLID_00000028311849614623234790000006684456222863691426_" d="M471.78,529.1 c1.87-7.69,8.09-44.41-22.01-50.12c-13.37-2.54-31.11,83.7,1.89,75.26C457.16,552.84,468.33,545.71,471.78,529.1z" class="st31"></path>
            <path d="M440.08,489.75c-18.91-2.88-36.37,12.27-36.1,33.77c0.27,21.22,1.94,29.6,12.23,37.87 c6.57,5.28,11.9,10.86,18.75,10.93c9.38,0.11,13.52-4.99,16.07-7.21c7.29-6.35,15.07-12.88,15.03-38.99 C466.02,506.77,456.09,489.45,440.08,489.75z" class="st29"></path>
            <path d="M448.46,487.03c4.2,0.84,8.12,5.24,11.25,11.18c3.27,5.94,5.53,11.82,7.44,15.91 c1.84,4.15,3.38,6.48,3.37,6.43c-0.05-0.04-0.56-3.03-1.35-7.69c-0.88-4.63-2.14-11.08-5.67-17.34 c-1.78-3.15-4.13-5.95-6.89-7.8c-2.58-1.78-5.45-2.49-7.79-2.52c0.98-1.18,1.22-2.42,0.81-3.54 c18.11,3.9,22.31,28.41,22.31,28.41c-0.9-28.98-23.45-31.33-23.45-31.33s-12.78-10.17-30.16-3.44 c-21.28,8.25-25.08,29.09-25.08,29.09c0.34-0.91,0.74-1.8,1.17-2.69c-0.43,1.17-0.83,2.38-1.2,3.64 c-1.13,5.44-1.09,10.86-0.52,15.74c-6.9,14.72,0.83,21.79,9,28.63c-2.03-3.45-4.24-6.27-5.64-10.01 c1.2,2.26,2.81,4.17,4.16,5.81c2.32,2.88,4.05,5.21,4.92,7.62c1.67,4.83,1.21,8.36,1.36,8.25c-0.19-0.04,1.67-3.5,0.66-9.56 c-0.51-3.03-2.07-6.64-2.41-10.14c-0.68-6.9-0.46-5.14-0.79-8.83l0,0c0.57-3.96,1.15-9.31,1.43-12.05 c2.62-5.57,6.62-8.9,10.7-15.57c9.84-16.09,23.97-15.48,23.97-15.48c-0.17-0.13-0.34-0.24-0.52-0.36 c0.71-0.13,1.38-0.27,2.02-0.43c7.06,1.48,11.15,6.79,13.22,9.57c5.51,7.4,7.89,14.49,9.1,18.91c0.34,1.25,0.59,2.86,0.82,4.55 c0.44,4.67,1.18,11.84,1.78,14.26l0.38-5.29c0.68,0.4,1.61-0.31,2.96-2.85c-3.51-9.13-4.79-16.79-8.32-23.78 c-6.07-12.03-13.55-16-16.82-16.19c-0.14-0.01-0.28-0.01-0.43-0.02c1.07-0.41,1.98-0.86,2.74-1.35 C447.46,486.84,447.95,486.92,448.46,487.03z" class="st31"></path>
            <path d="M463.81,546.35c0,0,1.68-42.7-17.94-55.9c-19.62-13.19,16.67,3.47,16.67,3.47 S472.45,536.78,463.81,546.35z" class="st31"></path>
          </g>
        </g>
        <g>
          <path d="M517.92 605.05c.6.73 1.25 1.96 1.95 3.59C519.15 606.92 518.49 605.68 517.92 605.05zM537.73 677.31l-.01-.01L537.73 677.31z" class="st32"></path>
        </g>
        <g>
          <path d="M382.21,594.6l-0.54,82.89c1.14,13.71,2.51,36.34,1.59,52.42c-2.15,37.51-8.26,69.55-11.26,120.7 c70.64,7.65,134.6,1.64,134.6,1.64c-0.54-26.13-10.61-79.44-12.27-123.75c-1.42-37.87,3.09-43.16,3.09-43.16l0.41-0.13 l-0.15-43.29l-2.49-48.65c-4.31-1.32-8.17-2.23-10.63-2.77c-8.57-2.47-16.27-4.4-16.27-4.4s-14.36,17.73-31.98,34.98 c-14.16-9.42-32.2-33.46-32.2-33.46" class="st32"></path>
        </g>
        <path id="XMLID_00000114066992941967682930000017692735118044958860_" d="M394.28,590.38l9.77-2.88 c0,0,15.56,19.67,32.25,33.58c0,0,19.95-20.98,31.98-34.98l6.8,2.13c0,0-22.05,30.69-39.04,44.36 C436.04,632.59,416.61,617.1,394.28,590.38z" class="st42"></path>
        <path id="XMLID_00000079475239083839388250000004621601424482016903_" d="M458.35,645.27c0,0,31.22-0.41,33.6-0.62 l0.24,5.66l-33.83,0.52L458.35,645.27L458.35,645.27z" class="st42"></path>
        <path id="XMLID_00000013893312921516249080000017371122728339641275_" d="M381.76,642.94l10.66,85.56 c0,0-19.21,114.14-20.43,122.12c-0.25-49.58,11.26-120.7,11.26-120.7l-3.05-71.26L381.76,642.94z" class="st42"></path>
        <path id="XMLID_00000008871846502581785070000012349920605406006195_" d="M497.67,641.92l2.18,22.05l-3.63,62.82 c0,0,9.59,67.76,10.37,125.46c-3.24-12.14-19.17-125.46-19.17-125.46L497.67,641.92z" class="st42"></path>
        <g id="XMLID_00000101813544662135675490000006354536649339559041_">
          <path id="XMLID_00000013914582490903293280000017692062726176784013_" d="M502.77,789.48 c0,0-19.02,2.26-34.52,2.09c0,0,2.18,42.21,4.07,43.04c1.89,0.83,32.07-1.68,33.64-2.71 C507.52,830.87,502.77,789.48,502.77,789.48z" class="st42"></path>
          <path id="XMLID_00000044153491028823588490000016835427858957550213_" d="M468.26,791.57 c0,0,20.61,0.44,34.52-2.09C502.77,789.48,478.02,789.48,468.26,791.57z" class="st42"></path>
        </g>
        <g id="XMLID_00000103980255460239297090000003550272997931664547_">
          <path id="XMLID_00000182487848996478040290000000843612978914319763_" d="M406.86,791.88c0,0-17.34-0.2-31.3-2.37 c0,0-3.8,41.31-2.16,42.39c1.64,1.07,30.35,3.51,31.84,2.69C406.72,833.77,406.86,791.88,406.86,791.88z" class="st42"></path>
          <path id="XMLID_00000033331253264813445250000004773662906192168863_" d="M375.56,789.52c0,0,18.57,3.09,31.3,2.37 C406.86,791.88,385.9,789.23,375.56,789.52z" class="st42"></path>
        </g>
        <path id="XMLID_00000062896649724613707580000002258941186852449929_" d="M375.56,789.52l-0.48,5.43 c0,0,17.09,2.3,31.78,2.19v-5.25C406.86,791.88,389.92,791.69,375.56,789.52z" class="st32"></path>
        <path id="XMLID_00000016780041662911999760000006933547357713521846_" d="M468.26,791.57l0.29,5.22 c0,0,10.8,0.58,34.84-1.8l-0.61-5.51C502.77,789.48,477.64,791.6,468.26,791.57z" class="st32"></path>
        <g id="XMLID_00000152246871481804803440000017981679252511729049_">
          <linearGradient id="XMLID_00000112616621933797125400000016793566763108769697_" x1="-3501.489" x2="-3497.941" y1="611.166" y2="630.126" gradientTransform="scale(-1 1) rotate(-.756 -5.49 -228959.112)" gradientUnits="userSpaceOnUse">
            <stop offset="0" stop-color="#b9bbbb"></stop>
            <stop offset=".625" stop-color="#c4c5c5"></stop>
            <stop offset="1" stop-color="#cdcece"></stop>
          </linearGradient>
          <path id="XMLID_00000132064660167416851650000017145238975955356576_" fill="url(#XMLID_00000112616621933797125400000016793566763108769697_)" d="M459.31,646.42c-0.07,5.36,4.19,9.76,9.52,9.83s9.7-4.22,9.77-9.57c0.07-5.36-4.19-9.76-9.52-9.83 C463.76,636.78,459.38,641.06,459.31,646.42z"></path>
          <linearGradient id="XMLID_00000129178919892373525110000015958489825600626819_" x1="-3508.636" x2="-3491.325" y1="620.098" y2="620.098" gradientTransform="scale(-1 1) rotate(-.756 -5.49 -228959.112)" gradientUnits="userSpaceOnUse">
            <stop offset="0" stop-color="#d2d4d5"></stop>
            <stop offset="1" stop-color="#dddfe0"></stop>
          </linearGradient>
          <path id="XMLID_00000134230119129779621890000011675414075315522229_" fill="url(#XMLID_00000129178919892373525110000015958489825600626819_)" d="M460.53,646.11c-0.06,4.8,3.76,8.75,8.54,8.81s8.7-3.78,8.77-8.59c0.06-4.81-3.76-8.75-8.54-8.82 C464.51,637.46,460.59,641.3,460.53,646.11z"></path>
          <path id="XMLID_00000155118870092576081300000016545399588366224048_" d="M471.82,637.06 c5.1-24.5,6.53-54.54-18.1-60.25c0.08,0.56,0.4,1.96,0.69,2.66c25.42,7.19,17.45,45.67,14.93,57.34 c-0.24,1.16-1.15,2.53-0.99,4.03s2.12,2.07,2.87,0.83C471.98,640.43,471.62,637.94,471.82,637.06z" class="st45"></path>
          <linearGradient id="XMLID_00000129182081462393394950000015421093184375319696_" x1="-3502.419" x2="-3498.094" y1="614.053" y2="630.353" gradientTransform="scale(-1 1) rotate(-.756 -5.49 -228959.112)" gradientUnits="userSpaceOnUse">
            <stop offset="0" stop-color="#b9bbbb"></stop>
            <stop offset=".625" stop-color="#c4c5c5"></stop>
            <stop offset="1" stop-color="#cdcece"></stop>
          </linearGradient>
          <path id="XMLID_00000158710738021661445900000010111633213513495221_" fill="url(#XMLID_00000129182081462393394950000015421093184375319696_)" d="M464.71,645.96c0.22,3.07,2.85,5.38,5.88,5.17s5.32-2.87,5.1-5.93c-0.21-3.06-2.84-5.37-5.88-5.16 C466.78,640.25,464.49,642.9,464.71,645.96z"></path>
          <linearGradient id="XMLID_00000075864041570004523570000000474091849625692826_" x1="-3501.541" x2="-3501.097" y1="615.091" y2="626.512" gradientTransform="scale(-1 1) rotate(-.756 -5.49 -228959.112)" gradientUnits="userSpaceOnUse">
            <stop offset="0" stop-color="#e2e3e3"></stop>
            <stop offset=".783" stop-color="#ededed"></stop>
            <stop offset="1" stop-color="#f1f1f1"></stop>
          </linearGradient>
          <path id="XMLID_00000016792546268251409790000017170165896633037447_" fill="url(#XMLID_00000075864041570004523570000000474091849625692826_)" d="M465.92,645.42c0.18,2.56,2.43,4.49,5.02,4.31s4.54-2.39,4.36-4.95c-0.18-2.56-2.42-4.49-5.02-4.31 C467.69,640.65,465.74,642.87,465.92,645.42z"></path>
        </g>
        <g id="XMLID_00000069374373709215764510000008459584859825207470_">
          <g id="XMLID_00000070118295622499347930000002815833758998437518_">
            <path id="XMLID_00000073718491736224929540000007956918048340367247_" d="M410.51,634.66 c0,0,8.25,34.76-13.33,35.73c0,0-1.12,1.86,2,1.96c3.12,0.1,20.68-4.65,13.64-38.17L410.51,634.66z" class="st29"></path>
            <path id="XMLID_00000103952585901641526730000007893464185025934487_" d="M400.02,637.64 c0,0,10.09,34.27,29.31,24.4c0,0,1.9,1.06-0.76,2.69s-20.26,6.23-30.79-26.37L400.02,637.64z" class="st29"></path>
            <path id="XMLID_00000117651662030066943020000014484605448150427326_" d="M427.68,662.87c0,0,1.99-2.13,2.67-1.82 c0.68,0.32,1.64,2.94,1.37,3.37c-0.28,0.43-2.41,0.66-3.23,0.5C428.24,664.53,427.92,663.8,427.68,662.87z" class="st45"></path>
            <path id="XMLID_00000167368137949973831690000005567968582086539191_" d="M400.5,672.19c0,0-2.49,1.52-3.05,1.03 c-0.57-0.49-0.8-3.27-0.42-3.61c0.38-0.34,2.5,0.01,3.25,0.38C400.4,670.44,400.51,671.23,400.5,672.19z" class="st45"></path>
            <path id="XMLID_00000136400275192145133200000015739319517085190300_" d="M421.84,576.6 c-21.73,5.2-24.08,31.33-22.8,40.02c-8.07,4.07-1.75,22.72-1.48,22.84c0.27,0.12,3.05-0.81,3.26-1.18 c0.2-0.37-7.24-17.72,0.06-19.04c8-1.44,9.24,16.95,9.39,17.24c0.15,0.29,3.54-0.24,3.75-0.61c0.2-0.37-3.02-19.54-12.59-19.66 c-0.95-7.2,2.87-32.57,19.97-36.71C421.46,578.89,421.84,577.37,421.84,576.6z" class="st45"></path>
          </g>
        </g>
        <g style="transform-origin:373.61px 612px;animation-duration:7.5s;animation-name:char1rarmer;animation-iteration-count:infinite;transition-timing-function:ease-in-out">
          <path id="XMLID_00000127722878915167458670000015672311212268689819_" d="M367.84,601.97 c0,0-6.69,4.76-10.35,30.52c-3.27,23-2.24,41.56-3.24,52.36c-1.48,15.96-5.63,33.48-5.68,52.31c-0.08,26.92,7.06,50.4,7.06,50.4 l9.3,3.04c0,0,1.76-16.89,2.37-24.71c0.47-6.05,4.15-25.38,6.97-37.22c4.39-18.41,8.41-63.62,7.32-68.77 C380.48,654.74,382.27,614.34,367.84,601.97z" class="st29"></path>
          <g id="XMLID_00000176015000568357197350000000032850509487202486_">
            <g id="XMLID_00000022531432581586260720000006664650073826486438_">
              <path id="XMLID_00000004531529196175747380000001676857425210803643_" d="M363.24,847.21 c-7.95-1.43-10.63-4.99-10.8-6.87c-0.17-1.88,3.35-13.09,3.35-13.09s0.41,7.31,1.47,8.64s4.96,5.25,5.97,5.87 c1,0.62,9.12,1.33,9.29,3.21C372.69,846.85,371.19,848.65,363.24,847.21z" class="st29"></path>
              <path id="XMLID_00000129924638994850847490000005497891878157535897_" d="M366.26,795.29 c0.68,2.31,3.88,11.74,3.81,19.1c-0.06,7.35,0.81,30.74-0.6,30.86s-4.79,2.08-6.02-11.79c-1.22-13.88-1.93-13.81-3.12-13.94 c-1.2-0.13-3.86,4.61-4.19,8.9c-0.33,4.29-0.87,11.69-0.29,12.82c0.57,1.13,11.16,5.65,12.68,6.7 c1.51,1.05,6.17,3.95,4.09,6.04c-1.64,1.65-20.47-6.34-24.97-9.13c-1.92-1.19-1.8-15.05-1.79-20.27 c0.01-5.21,4.69-25.61,6.6-32.21c0.63-2.19-0.92-23.41-0.92-23.41l12.89,19.88C364.42,788.83,365.58,792.98,366.26,795.29z" class="st29"></path>
              <path id="XMLID_00000049195892661315720630000016615817138348202375_" d="M363.34,832.14 c0,0-0.15-13.09-2.92-13.08c-2.77,0.01-4.15,8.16-4.15,8.16S361.47,820.13,363.34,832.14z" class="st29"></path>
              <path id="XMLID_00000025416851539920927490000015193440863494649735_" d="M368.72,839.54 c0.24-1.51,1.49-1.41,1.49-1.41s0.56,4.1-0.36,7.34C368.49,845.72,368.2,842.82,368.72,839.54z" class="st29"></path>
              <path id="XMLID_00000171712398609319329740000002461546793507447692_" d="M365.37,852.42 c0,0,0.32-1.21,1.82-0.94c3.27,0.58,5.91,1.81,5.22,3.02C369.07,854.29,365.37,852.42,365.37,852.42z" class="st29"></path>
            </g>
            <path id="XMLID_00000021078471283972832550000004204146589411527573_" d="M368.8,762.56c0,0-2.71,30.4-2.02,33.35 c0.69,2.95,3.66,9.81,3.29,20.05c0,0-3.42-16.23-5.73-20.1C361.26,790.68,368.8,762.56,368.8,762.56z" class="st29"></path>
          </g>
          <path id="XMLID_00000102522221594224953390000017646536461378820486_" d="M381.41,680.1c0,0-2.49,18.06-2.69,20.71 c-1.38,18.38-5.66,34.32-6.77,40.42c-5.14,28.17-5.37,52.65-5.37,52.65l-2.16-5.05c0,0-1.62-40.34,9.92-82.79 c1.82-6.68,3.97-26.69,3.97-26.69L381.41,680.1z" class="st29"></path>
          <path id="XMLID_00000160911848406531709160000000596472844945054383_" d="M353.45,691.91 c0,0-3.55,22.45-3.94,26.15c-0.4,3.69-2.52,17.98-1.35,28.66c1.17,10.68,4.41,41.23,4.41,41.23s-2.19-47.63-1.87-51.33 C351.03,732.92,353.45,691.91,353.45,691.91z" class="st29"></path>
          <path d="M385.5,595.73l-3.89,90.02l-39.91-8.12c0,0,16.06-63.56,18.98-69.59c2.59-5.36,15.49-11.09,22.57-13.91 C384.36,593.68,385.55,594.53,385.5,595.73z" class="st32"></path>
          <path d="M388.35,649.62l-6.74,36.13l-14.76-21.22l7.81-60.5l7.19-8.29c0.65-0.75,1.87-0.58,2.28,0.33l8.28,18.12 L388.35,649.62z" class="st32"></path>
          <path id="XMLID_00000150803502358489498350000011537415052101977006_" d="M381.2,685.65c0,0-34.8-7.05-39.5-8.02 l1.38-6.31l38.24,8.72L381.2,685.65z" class="st42"></path>
          <path id="XMLID_00000090996433624053123410000003213194974008638143_" d="M381.61 685.75L381.95 639.15 374.66 684.32z" class="st42"></path>
        </g>
        <path fill="#333" d="M425.88,743.27c0,0,11.72,27.96,12.52,28.91l61.17-18.5l-1.77-14.83L425.88,743.27z" opacity=".11"></path>
        <g style="transform-origin:501px 608px;animation-duration:7.5s;animation-name:char1larmer;animation-iteration-count:infinite;transition-timing-function:ease-in-out">
          <path d="M539.07,705.76c-0.24-2.76-11.41-42.53-12.2-45.85c-8.7-36.38-5.01-57.95-19.89-60.58 c-3.57-0.63-11.89,20.12-11.8,28.62c0.09,8.51,2.58,16.11,4.43,26.65c1.83,10.46,6.18,30.1,11.33,45.99 C510.93,700.6,529.87,700.62,539.07,705.76z" class="st29"></path>
          <path d="M493.4,592.76c-1.82-0.54-3.61,0.89-3.5,2.78l2.28,37.16l5.63,52.73l39.91-8.12 c0,0-13.45-64.41-19.81-72.26C513.2,599.23,499.93,594.71,493.4,592.76z" class="st32"></path>
          <path id="XMLID_00000113321447205625089270000000444102859927115701_" d="M498.23,685.33c0,0,34.8-7.05,39.5-8.02 l-1.38-6.31l-38.24,8.72L498.23,685.33z" class="st42"></path>
          <path id="XMLID_00000142167715024612648520000002349272184006198443_" d="M497.82 685.43L497.48 638.84 504.77 684.01z" class="st42"></path>
          <g>
            <path fill="#d35e63" d="M505.14,744.45l-29.41-92.17l-69.75,23.51l-2.61,0.98c0,0-2.99,0.82-2.24,1.89l1.2,0.68l32.7,90.52 L505.14,744.45z"></path>
            <linearGradient id="SVGID_1_" x1="134.053" x2="-108.789" y1="-1224.436" y2="-1269.031" gradientTransform="matrix(.8973 .4604 -.4505 .8718 -127.388 1752.793)" gradientUnits="userSpaceOnUse">
              <stop offset="0" stop-color="#e9e2d6"></stop>
              <stop offset=".625" stop-color="#f6f3ee"></stop>
              <stop offset="1" stop-color="#fff"></stop>
            </linearGradient>
            <path fill="url(#SVGID_1_)" d="M402.16,678.75c0,0-1.89,0.45,1-0.97c3.14-1.54,71.61-24.48,71.61-24.48l1.16,1.14l28.92,90.92 l-3.05,1.18l-30.96-86.86L402.16,678.75z"></path>
            <path d="M401.02,678.44c0,0,0.29,0.61,2.82-0.24c2.52-0.85,72.94-24.55,72.94-24.55l30.06,92.33l-71.5,25.17 L401.02,678.44z" class="st24"></path>
          </g>
          <path d="M510.93,700.6c-2.39,1.72-8.06,5.23-19.65,9.32c-15.5,5.47-25.55,6.97-25.55,6.97l4.88,18.85 c0,0,26.97-2.91,37.95-5.07c10.12-1.99,29.39-7.13,30.96-9.51c1.23-1.87,0.62-7.87-0.46-15.39 C529.87,700.62,521.4,698.32,510.93,700.6z" class="st29"></path>
          <g>
            <path d="M465.73,716.89c0,0-19.27,2.74-21.66,2.55s-14.1-8.66-15.48-9.42c-1.38-0.75-12.4,0.6-13.7,0.81 c-1.3,0.22-4.61,7.33-5.55,9.02s1.41,3.94,5.87,0.8c2.04-1.44,2.96-2.81,3.82-3.54c1.48-1.26,5.38-0.05,6.15,0.33 s-5.42,2.45-8.07,3.52c-2.94,1.18-5.8,2.26-6.21,3.35c-0.86,2.28,1.02,5.22,2.64,5.03c-1.24,1.5-1.07,2.87-0.34,4.14 c1.27,2.19,1.78,1.75,2.87,2.16c-0.82,2.18,0.04,3.17,0.63,4.06c1,1.53,2.04,1.17,3.3,1.44c0.47,0.1-0.62,3.64,3.69,3.99 c4.62,0.38,10.26-0.68,13.16-1.98c3.33-1.49,11.62-5.3,15.87-6.24c2.69-0.59,17.91-1.17,17.91-1.17L465.73,716.89z" class="st29"></path>
            <path d="M411.87 715c0 0-3.77 6.03-3.22 6.65 0 0 1.2.86 3.2-2.3C413.86 716.19 412.46 715.56 411.87 715zM412.77 713.4c0 0 1.31-2.32 2-2.57.75-.26 12.2-1.63 13.69-.96 1.48.67 6.31 4.28 6.31 4.28s-4.93-2.9-6.87-3.51c-1.94-.6-12.21.5-12.83.79C414.44 711.74 412.77 713.4 412.77 713.4zM435.43 714.6c0 0 7.05 4.71 8.63 4.84 1.59.13 18.51-2.19 21.66-2.55 0 0-17.74 5.67-20.37 4.96C442.74 721.14 435.43 714.6 435.43 714.6zM429.28 719.95c0 0-14.98 1.84-15.2 3.68-.22 1.84.58 3.92 1.51 4.3.63.25 1.89.23 3.43.04-1.34.47-2.24.98-2.29 1.51-.14 1.67.62 3.5 1.55 3.89.55.23 1.26.35 2.06.39 0 .01-.01.02-.01.03-.88 4.03 3.03 4.03 3.97 4.38.08.03.17.05.26.08-.03.06-.05.11-.06.16-.22 1.85.39 2.67 1.31 3.09 7.91 3.55 15.41-2.55 15.41-2.55L429.28 719.95zM438.39 742.48c0 0 7.96-6.31 11.59-6.91s19.05.24 19.05.24-15.83 1.21-16.79 1.29C450.97 737.21 438.39 742.48 438.39 742.48zM412.72 721.96c1.27-.38 3.68-1.75 5.13-3.57s2.55-2.07 4.71-1.63 2.59.66 2.54.84c-.05.18-9.62 4.01-9.62 4.01s10.01-2.38 12.1-4.22c2.09-1.84-2.31-1.83-3.64-1.94-1.33-.11-5.39 1.24-6.1 1.26C417.84 716.71 414.14 721.4 412.72 721.96z" class="st29"></path>
            <path d="M412.16 728.82c.16.13.73.56 1.3.56 0 0-.43.44-.64 1.17 0 0 1.92-1.39 3.58-1.63C416.4 728.93 413.1 729.16 412.16 728.82zM414.48 735.09c.53.36 1.57.56 1.57.56s-.48 1.33-.28 2.01c0 0 .84-2.34 2.01-2.7C417.77 734.96 415.7 735.34 414.48 735.09zM417.87 740.75c.51.22 1.36.34 2.1.41 0 0 .09.77.35 1.55 0 0-.19-1.46 1.56-2.36C421.88 740.36 420.42 740.92 417.87 740.75z" class="st29"></path>
          </g>
          <path d="M470.62,735.74c0,0,12.94-0.86,22.59-1.85s22.39-1.9,45.49-10.93c2.77-1.08,0.88-13.29,0.88-13.29 s0.09,8.64-4.98,10.49C525.55,723.48,509.95,730.55,470.62,735.74z" class="st29"></path>
        </g>
      </g>
    </g>
    <g id="char4">
      <g style="transform-origin:1054.5px 766px;animation-duration:7.5s;animation-name:char4bottom;animation-iteration-count:infinite;transition-timing-function:ease-in-out">
        <path d="M999.91,954.33c-0.65,6.47-2.77,64.85-3.92,97.59c7.97-1.36,15.95-2.63,23.94-3.83l20.31-133.36 l11.99-94.81l7.77,87.36c0,0-1.08,26.48-3,43.85c-2.3,20.74-0.64,61.96,1.07,91.78c8.42-1.02,16.85-1.95,25.29-2.81l10.61-118.47 c0,0,9.02-92.62,8.29-108.57c-0.66-14.59-1.38-36.12-1.95-40.4l-52.99-8.02l-44.9-9.32c-2.1,6.51-6.5,21.73-6.5,35.08 c0,17.54,8.57,104.05,8.57,108.9C1004.48,910.47,1001.45,938.93,999.91,954.33z" class="st32"></path>
        <g>
          <path d="M999.91,954.33c-0.65,6.47-2.77,64.85-3.92,97.59c2.54-0.43,5.09-0.85,7.63-1.27 c3.8-46.17,9.7-97.9,10.17-141.94c0.47-44.21-20.41-74.99-6.24-118.17c3.87-11.82,59.5-6.38,93.1-13.23l-46.08-11.15 l-52.16-10.83c-2.1,6.51-6.5,21.73-6.5,35.08c0,17.54,8.57,104.05,8.57,108.9C1004.48,910.47,1001.45,938.93,999.91,954.33z" class="st30"></path>
        </g>
        <g>
          <path d="M1056.99,951.14c-2.3,20.74-0.64,61.96,1.07,91.78c2.48-0.3,4.96-0.59,7.44-0.87 c0.22-10.33,0.79-20.7,1.25-31.16c1.04-23.76,1.89-47.54,1.49-71.33c-0.6-35.57-4.41-71.38-14.74-105.42l6.5,73.14 C1060,907.29,1058.92,933.76,1056.99,951.14z" class="st30"></path>
        </g>
      </g>
      <g style="transform-origin:1054.5px 766px;animation-duration:7.5s;animation-name:char4topper;animation-iteration-count:infinite;transition-timing-function:ease-in-out">
        <g style="transform-origin:1099px 611px;animation-duration:7.5s;animation-name:char4larmed;animation-iteration-count:infinite;transition-timing-function:ease-in-out">
          <path d="M1129.13,804.34c-0.21-2.15-0.12-11.51-0.92-15.23c-0.34-1.59-1.38-4.36-2.47-7.07l-13.97-70.9l0.01-98.14 l-30.44-1.75l7.98,98.98c0,0,2.99,19.55,4.54,25.38c2.49,9.34,11.54,30.4,17,42.77c-0.87,3.09-2.73,10.29-1.96,13.31 c0.85,3.33,1.84,11.77,2.11,14.17l-0.89,5.1l-3.35,7.27c0,0-1.3,2.95,1,4.48l5.59-6.37l-0.05,1.2l-1.92,7.8 c0,0-0.72,3.15,1.82,4.2l1.53-2.79l-0.16,0.52c0,0-0.93,3.19,1.98,4.17l5.55-10.2l-0.94,3.83c0,0-0.72,3.15,1.83,4.2l3.83-7.01 l2.34-16.92l-0.15-0.01C1129.1,804.99,1129.16,804.66,1129.13,804.34z" class="st29"></path>
          <path d="M1097.51,700.79c0.31-14.08,7.17-27.08,7.2-41.1c0.01-6.6,2.91-11.33,7.06-14.21v-32.49l-30.44-1.75 l7.98,98.98c0,0,2.99,19.55,4.54,25.38c2.49,9.34,11.54,30.4,17,42.77c-0.87,3.09-2.73,10.29-1.96,13.31 c0.85,3.33,1.84,11.77,2.11,14.17l-0.89,5.1l-3.35,7.27c0,0-1.3,2.95,1,4.48l5.59-6.37l-0.05,1.2l-1.92,7.8 c0,0-0.28,1.23,0.13,2.41c0.34-2.43,1.3-4.96,3.06-7.51c15.04-21.81,0.56-50.8-6.73-72.82 C1102.98,732.73,1097.16,716.44,1097.51,700.79z" class="st30"></path>
          <path d="M1111.76,711.13l2.81-73.13l-2.45-30.68h0.05l-2.06-4.7c-2.39-4.33-7.14-10.42-15.66-12.85l0,0l-3.44-1.17 l-0.71,81.5l-1.61,31.26l0.97,11.12l4.19,23.13l13.69,42.35h19.87L1111.76,711.13z" class="st28"></path>
          <path d="M1120.1,800.26c2.2,6.62,1.04,14,1.04,14s1.16,3.59,3.43,1.7s2.84-13.24,2.84-13.24l-7.31-16.09 C1120.1,786.62,1117.9,793.63,1120.1,800.26z" class="st29"></path>
        </g>
        <path d="M1101.24,613.58l-1.26-6.35l-1.69-5.65c-2.39-4.33-6.4-9.92-7.27-12.98l-39.53-13.88 c-0.04-0.28-3.65-0.28-3.68,0l-42.42,14.87c-11.15,2.91-9.81,6.44-11.41,10.32l-0.73,23.69c1.82,0.61,1.1,21.4,16.08,23.26 l-0.83,71.36l-10.75,46.73c-0.96,3.09-1.71,7.9-2.26,13.14c35.05-0.06,71.62-6.84,105.16-0.78c-0.35-5.37-0.83-10.46-1.45-13.31 l-11.49-43.65l2.6-50.25c4.97-3.07,8.34-8.9,8.34-15.56v-1.23c0,0-0.3-3.9-0.96-9.32c7.74-2.44,4.33-12.17,5.65-12.62 L1101.24,613.58z" class="st28"></path>
        <path d="M1101.13,653.24c0,0-0.3-5.13-0.96-10.55c0,0-9.14-53.75-9.15-54.08l-21.23-7.47 c-0.01-0.07,2.44,13.59,0.37,26.89c-2.18,14.04-9.08,29.57-9.08,29.57s-10.56-13.52-18.35-26.36 c-8.95-14.75-13.05-30.18-13.06-30.11l-24.28,8.46c-0.02,0.21,10.93,30.17,3.69,57.24c0.09,0.01,0.17,0.03,0.26,0.04l-0.83,71.36 l-10.75,46.73c-0.96,3.09-1.71,7.9-2.26,13.14c24.63,2.68,43.44,4.24,67.01,4.09c1.72-0.01,3.98-6.24,3.98-6.24 s2.08,6.29,3.96,6.25c9.26-0.19,23.51-2.13,30.2-4.88c-0.35-5.37-0.83-10.46-1.45-13.31l-11.48-43.65l2.6-50.25 C1095.27,667.03,1101.13,659.9,1101.13,653.24z" class="st15"></path>
        <path d="M1009.33,646.87l-0.83,71.36l-10.75,46.73c-0.96,3.09-1.71,7.9-2.26,13.14c1.38,0,2.77-0.01,4.15-0.02 c3.77-15.18,7.32-30.6,13.71-44.94C1020.8,716.42,1012.26,648.03,1009.33,646.87z" class="st30"></path>
        <g style="transform-origin:1050.8px 591px;animation-duration:7.5s;animation-name:char4headed;animation-iteration-count:infinite;transition-timing-function:ease-in-out">
          <path d="M1031.75,573.66c-0.23-0.87-0.46-1.74-0.73-2.58c15.31,4.52,31.69,4.96,46.92,0.11 c-0.44,1.86-0.88,3.69-1.32,5.54c10.14-6.53,19.26-14.37,27.61-23.3c-2.89-15.15-7.32-29.97-13.19-44.12 c-3.16-7.61-6.85-15.2-12.6-20.86c-5.57-5.48-12.93-8.87-20.5-9.44c-7.58-0.57-15.31,1.69-21.55,6.28 c-5.96-0.41-13.19,3.77-17.05,8.61c-3.85,4.84-6.1,10.87-7.98,16.88c-4.71,15.03-7.63,31.68-8.53,47.49 c9.8,6.02,19.84,11.94,29.64,17.96c-0.26-0.81-0.48-1.66-0.71-2.51L1031.75,573.66z" class="st51" style="transform-origin:1049.8px 495px;animation-duration:7.5s;animation-name:char4haired;animation-iteration-count:infinite;transition-timing-function:ease-in-out"></path>
          <path d="M1074.73,499.56h-26.09c-8.72-0.33-18.33,19.13-19.23,27.81c-0.98,9.44,2.97,26.25,4.21,29.48 c5.5,14.37,17.38,25.84,33.07,14.19c9.22-6.84,14.48-17.8,14.77-29.28l0.41-16.02C1081.97,522.36,1078.12,499.69,1074.73,499.56 z" class="st29"></path>
          <path d="M1034.62,585.2c-0.23,8.84,7.39,18.26,16.21,18.49c8.83,0.23,15.53-8.82,15.75-17.66l0.46-31.83 l-31.97-0.82L1034.62,585.2z" class="st29"></path>
          <path d="M1044.59,568.72c10.31,11.34,22.16,5.07,22.16,5.07l0.07-2.88 C1056.7,576.41,1044.59,568.72,1044.59,568.72z" class="st30"></path>
          <path d="M1076.62,576.73l1.32-5.54c0,0,18.06-53.56-32.92-68.27c0,0-17.09,12.55-14.35,44.64l-1.83-7.83 l-3.03-13.55c0,0-2.31-26.14,18.7-29.14C1044.51,497.05,1109.81,468.66,1076.62,576.73z" class="st51"></path>
        </g>
        <g style="transform-origin:1002.8px 613px;animation-duration:7.5s;animation-name:char4rarmed;animation-iteration-count:infinite;transition-timing-function:ease-in-out">
          <g style="transform-origin:1002.8px 748px;animation-duration:7.5s;animation-name:char4handed;animation-iteration-count:infinite;transition-timing-function:ease-in-out">
            <path d="M1002.64,706.14l-36.5,12.47l14.69,55.24l83.32-24.83l-12.76-57.11c-0.3-1.32-1.68-2.09-2.96-1.65 L1002.64,706.14z" class="st2"></path>
            <path d="M1052.3,750.37c-1.66,0.78-5.78,5.05-9.13,4.62c-7.38-0.94-13.04-2.95-13.04-2.95s-1.07-2.97,2.82-3.32 c3.89-0.35,9.79-1.84,9.81-6.34l-18.38,0.55l-12.83,2.6l-6.01-8.58c-3.74,3.55-7.56,7.02-11.34,10.53 c-0.18,0.17-0.36,0.32-0.54,0.47l10.49,10.6c0.49,0.49,1.07,0.86,1.72,1.09c4.9,1.71,26.4,9.15,26.4,9.15l14.27-3.59 l6.57-10.04C1053.1,755.16,1056.38,748.45,1052.3,750.37z" class="st29"></path>
          </g>
          <path d="M980.17,700.8l29.16-53.93l-3.94-57.28c-11.15,2.91-16.02,12.07-17.62,15.95l-12.2,25 c0.08,0.03,0.2,0.09,0.33,0.16l-0.33-0.16c0,0-22.36,55.44-21.87,60.69s-6.46,12.96,9.82,28.82l31.97,35.46l15.45-16.6 L980.17,700.8z" class="st28"></path>
        </g>
      </g>
    </g>
  </g>
  <path d="M1555,788.23v-34.99c0,0-39.32,0.65-81.61,27.35c0,0-56.47,38.4-56.47,97.13 c0,0-88.09-2.26-101.65,72.28c0,0-39.67-8.34-54.77,23.13c-6.04-0.16-12.07,0.33-17.92,1.45c-24.49-2.64-69.93-2.66-87.69,29.63 v1.09c-6.88,1.56-13.55,4.07-19.79,7.49c-22.4-20.1-62.08-22.76-88.74-5.94c-6.6,4.05-12.21,9.52-16.44,16.01 c-17.67-22.45-56.19-29.98-86.08-16.67c-2.27,1.01-4.48,2.14-6.62,3.4c-5.17-25.95-37.27-43.75-71.67-39.89 c-23.32,2.64-42.81,14.95-50.33,31.83c-7.21-3.84-15.27-5.83-23.44-5.79c-18.4,0-34.45,9.32-39.04,22.82 c-13.91-13.14-39.33-15.28-56.7-4.8c-6.4,3.6-11.32,9.34-13.91,16.2c-13.85-13.16-39.31-15.36-56.68-4.9 c-3.34,1.97-6.34,4.47-8.87,7.41c-9.28-15.28-33.22-21.99-53.47-15.01c-3.24,1.1-6.33,2.58-9.22,4.4 c-2.44-9.51-10.2-17.24-20.48-21.79c-17.88-26.15-55.86-27.88-79.92-25.97c-8.38-5.84-18.86-9.99-30.51-11.73 c-17.8-18.6-47.4-12.37-47.4-12.37c-13.55-74.54-101.65-72.28-101.65-72.28c0-58.73-56.47-97.13-56.47-97.13 c-51.54-38.41-84.1-43.98-84.1-43.98v71.57c0,0,0.61,0.05,1.73,0.13l-10.24,269.84l6.14,0.11v0.77h0.03h1386.16l48.82-0.88 L1555,788.23z" class="st28" style="transform-origin:857.7px 1079px;animation-duration:5s;animation-name:cloudineyde;animation-iteration-count:infinite;transition-timing-function:ease-in-out"></path>
</svg>
