<?xml version="1.0" encoding="UTF-8"?>
<svg xmlns="http://www.w3.org/2000/svg" xmlns:xlink="http://www.w3.org/1999/xlink" version="1.1" id="background" x="0px" y="0px" viewBox="0 0 805 426.35" style="enable-background:new 0 0 805 426.35;" xml:space="preserve">
<style type="text/css">
	.st0{opacity:0.4;}
	.st1{opacity:0.4;fill:#67C3D6;enable-background:new    ;}
	.st2{opacity:0.42;fill:#67C3D6;enable-background:new    ;}
	.st3{fill:#66C4D7;}
	.st4{fill:#F3BD18;}
	.st5{fill:#4D94A5;}
	.st6{fill:#A7A9AA;}
	.st7{fill:#FFFFFF;}
	.st8{fill:#294274;}
	.st9{opacity:0.42;}
	.st10{opacity:0.36;}
	.st11{opacity:0.39;}
	.st12{opacity:0.31;}
	.st13{fill:#E96668;}
	.st14{clip-path:url(#SVGID_00000088104632442075702400000013799560438960203411_);}
	.st15{fill:none;stroke:#66C5D8;stroke-width:3;stroke-linecap:round;stroke-linejoin:round;stroke-miterlimit:10;}
	.st16{fill:#CDCDCD;}
	.st17{fill:#030303;}
	.st18{fill:#66C5D8;}
	.st19{fill:#AFAFB0;}
	.st20{fill:none;stroke:#FFFFFF;stroke-width:0.75;stroke-linecap:round;stroke-linejoin:round;stroke-miterlimit:10;}

			/*cloud*/

	@-webkit-keyframes cloudif2 {
    from {
        transform:scale(1) translateX(0px);
    }

	50% {
		transform:scale(1.02) translateX(1px);
	}

    to {
        transform:scale(1) translateX(0px);
    }
	}

	#cloudees {
	transform-origin: 404.2px 426.2px;
	animation-duration: 5s;
	animation-name: cloudif2;
	animation-iteration-count: infinite;
	transition-timing-function: ease-in-out;
	}

	/*plants*/

	@-webkit-keyframes folha1 {
    from {
        transform:rotate(0deg);
    }

	50% {
		transform:rotate(10deg);
	}

    to {
        transform:rotate(0deg);
    }
	}

	@-webkit-keyframes folha2 {
    from {
        transform:rotate(0deg);
    }

	50% {
		transform:rotate(5deg);
	}

    to {
        transform:rotate(0deg);
    }
	}

	#planty1 {
	transform-origin: 505.9px 380.2px;
	animation-duration: 5s;
	animation-name: folha1;
	animation-iteration-count: infinite;
	transition-timing-function: ease-in-out;
	}

	#planty2 {
	transform-origin: 300.9px 342.1px;
	animation-duration: 5s;
	animation-name: folha1;
	animation-iteration-count: infinite;
	transition-timing-function: ease-in-out;
	}

	#planty3 {
	transform-origin: 300.9px 342.1px;
	animation-duration: 5s;
	animation-name: folha2;
	animation-iteration-count: infinite;
	transition-timing-function: ease-in-out;
	}

	#planty4 {
	transform-origin: 300.9px 342.1px;
	animation-duration: 5s;
	animation-name: folha2;
	animation-iteration-count: infinite;
	transition-timing-function: ease-in-out;
	}

	/*checks*/

	@-webkit-keyframes linechecke {
	from {
		stroke-dashoffset: 20;
		stroke-dasharray: 0;
		opacity:0;
	}

	60%{
		opacity:0;
	}

	to {
		stroke-dashoffset: -85;
		stroke-dasharray: 40;
		opacity:1;
	}
	}

	#shek1 {
	opacity:0;
	animation-duration: 7s;
	animation-name: linechecke;
	animation-fill-mode: forwards;
	animation-timing-function: linear;
	}

	#shek2 {
	opacity:0;
	animation-duration: 7s;
	animation-name: linechecke;
	animation-fill-mode: forwards;
	animation-timing-function: linear;
	animation-delay:1s;
	}

	#shek3 {
	opacity:0;
	animation-duration: 7s;
	animation-name: linechecke;
	animation-fill-mode: forwards;
	animation-timing-function: linear;
	animation-delay:2s;
	}

	#shek4 {
	opacity:0;
	animation-duration: 7s;
	animation-name: linechecke;
	animation-fill-mode: forwards;
	animation-timing-function: linear;
	animation-delay:3s;
	}

	#shek5 {
	opacity:0;
	animation-duration: 7s;
	animation-name: linechecke;
	animation-fill-mode: forwards;
	animation-timing-function: linear;
	animation-delay:4s;
	}

	/*heartbeat*/

	@-webkit-keyframes beaten {
    from {
        transform: translateX(0px);
    }

    to {
        transform: translateX(290px);
    }
	}

	#st77 {
	fill:#ffffff;
	transform-origin: 404.2px 426.2px;
	animation-duration: 10s;
	animation-name: beaten;
	animation-iteration-count: infinite;
	animation-timing-function: linear;
	}

	/*character1*/

	@-webkit-keyframes char1headed {
    from {
        transform:rotate(0deg);
    }

	50% {
		transform:rotate(-12deg);
	}

    to {
        transform:rotate(0deg);
    }
	}

	#char1head {
	transform-origin: 339.9px 30.8px;
	animation-duration: 5s;
	animation-name: char1headed;
	animation-iteration-count: infinite;
	transition-timing-function: ease-in-out;
	}

	@-webkit-keyframes char1legged {
    from {
        transform:rotate(0deg);
    }

	50% {
		transform:rotate(7deg);
	}

    to {
        transform:rotate(0deg);
    }
	}

	#char1leg {
	transform-origin: 335.1px 91.6px;
	animation-duration: 5s;
	animation-name: char1legged;
	animation-iteration-count: infinite;
	transition-timing-function: ease-in-out;
	}

	@-webkit-keyframes char1armed {
    from {
        transform:rotate(0deg);
    }

	50% {
		transform:rotate(3deg);
	}

    to {
        transform:rotate(0deg);
    }
	}

	#char1arm {
	transform-origin: 342.5px 45.6px;
	animation-duration: 2.5s;
	animation-name: char1armed;
	animation-iteration-count: infinite;
	transition-timing-function: ease-in-out;
	}

	/*character2*/

	@-webkit-keyframes char2headed {
    from {
        transform:rotate(0deg);
    }

	50% {
		transform:rotate(-8deg);
	}

    to {
        transform:rotate(0deg);
    }
	}

	#char2head {
	transform-origin: 541.2px 28.5px;
	animation-duration: 5s;
	animation-name: char2headed;
	animation-iteration-count: infinite;
	transition-timing-function: ease-in-out;
	}

	#charrarm {
	transform-origin: 541.2px 38.5px;
	animation-duration: 5s;
	animation-name: char2headed;
	animation-iteration-count: infinite;
	transition-timing-function: ease-in-out;
	}

	@-webkit-keyframes char2armed {
    from {
        transform:rotate(0deg);
    }

	50% {
		transform:rotate(-20deg);
	}

    to {
        transform:rotate(0deg);
    }
	}

	#char2leftarm {
	transform-origin: 542.2px 43.5px;
	animation-duration: 5s;
	animation-name: char2armed;
	animation-iteration-count: infinite;
	transition-timing-function: ease-in-out;
	}

	/*character3*/

	@-webkit-keyframes char3headed {
    from {
        transform:rotate(0deg);
    }

	50% {
		transform:rotate(-20deg);
	}

    to {
        transform:rotate(0deg);
    }
	}

	#char3head {
	transform-origin: 416.3px 270px;
	animation-duration: 10s;
	animation-name: char3headed;
	animation-iteration-count: infinite;
	transition-timing-function: ease-in-out;
	}

	@-webkit-keyframes char3armed {
    from {
        transform:rotate(0deg);
    }

	50% {
		transform:rotate(10deg);
	}

    to {
        transform:rotate(0deg);
    }
	}

	#char3larm, #char3lhand, #char3write {
	transform-origin: 408.7px 287.3px;
	animation-duration: 10s;
	animation-name: char3armed;
	animation-iteration-count: infinite;
	transition-timing-function: ease-in-out;
	}

	#char3rarm {
	transform-origin: 408.7px 287.3px;
	animation-duration: 10s;
	animation-name: char3armed;
	animation-iteration-count: infinite;
	transition-timing-function: ease-in-out;
	}

	/*character4*/

	@-webkit-keyframes char4headed {
    from {
        transform:rotate(0deg);
    }

	50% {
		transform:rotate(-10deg);
	}

    to {
        transform:rotate(0deg);
    }
	}

	#char4head {
	transform-origin: 252.2px 261.1px;
	animation-duration: 5s;
	animation-name: char4headed;
	animation-iteration-count: infinite;
	transition-timing-function: ease-in-out;
	}

	@-webkit-keyframes char4armed {
    from {
        transform:rotate(0deg);
    }

	50% {
		transform:rotate(-5deg);
	}

    to {
        transform:rotate(0deg);
    }
	}

	#char4larm {
	transform-origin: 253.48px 274.7px;
	animation-duration: 5s;
	animation-name: char4armed;
	animation-iteration-count: infinite;
	transition-timing-function: ease-in-out;
	}

	@-webkit-keyframes hearteded2 {
	from {
		transform:scale(1);
	}

	35%{
		transform:scale(1);
	}
	40%{
		transform:scale(1.05);
	}
	50% {
		transform:scale(0.97);
	}
	55%{
		transform:scale(1);
	}
	100% {
		transform:scale(1);
	}
	}

	#beaters {
	transform-origin:514.43px 267.3px;
	animation-duration: 2.5s;
	animation-name: hearteded2;
	animation-iteration-count: infinite;
	animation-timing-function: ease-in-out;
	}

</style>
<g>
	<g class="st0">
		<path class="st1" d="M670.11,219.55c-14.94-24.4-46.59-37.48-47.41-74.05c-0.53-23.77,8.68-36.65-6.07-56.93    c-35.65-49.04-90.6-54.78-137.51-34.3c-46.9,20.48-84.38,61.53-136.52,59.05c-28.4-1.35-54.78-17.12-82.89-20.08    c-8.66-0.91-16.75-0.13-24.32,2.14c-28.36,8.5-53.41,40.43-62.84,75.9c-7.64,28.75,2.12,57.14-9.88,85.3    c-12.79,30.01-37.99,50.86-44.34,85.51c-7.62,41.59,21.49,77.75,52.76,78.88c19.9,0.72,56.79-3,73.7-17.37    c20.59-17.5,46.88,6.2,70.88,6.87c45.67,1.28,83.71-3.83,128.79,4.74c38.63,7.34,80.61,1.32,119.76,2.7    c28.75,1.01,50.83,10.64,66.39-25.91C649.23,348.31,701.44,270.74,670.11,219.55z"></path>
		<path class="st2" d="M653.14,220.73c-14.05-22.4-43.84-34.4-44.62-67.96c-0.5-21.81,8.17-33.63-5.71-52.25    c-33.55-45-85.25-50.28-129.4-31.48c-44.13,18.79-79.4,56.47-128.47,54.2c-26.72-1.24-51.55-15.71-78-18.43    c-8.15-0.84-15.76-0.12-22.88,1.96c-26.69,7.8-50.25,37.11-59.13,69.66c-7.19,26.39,2,52.44-9.3,78.28    c-12.04,27.54-35.75,46.68-41.72,78.48c-7.17,38.17,20.22,71.36,49.64,72.4c18.73,0.66,53.44-2.75,69.35-15.94    c19.37-16.06,53.14,8.61,75.73,9.23c42.98,1.17,70.36-5,112.78,2.86c36.35,6.73,73.06,8.19,109.9,9.46    c27.06,0.93,50.02,1.35,64.66-32.2C633.49,338.89,682.61,267.7,653.14,220.73z"></path>
	</g>
	<g>
		<g id="planty4">
			<path class="st3" d="M205.66,353.35c-0.03-0.24-0.06-0.48-0.09-0.73c28.43-3.23,57.26,2.68,82.25,17.03     c-0.1,0.18-0.21,0.36-0.31,0.54C262.63,355.94,233.94,350.1,205.66,353.35z"></path>
			<path class="st3" d="M193.92,354.84c-0.56-2.35,7.27-5.33,12.45-1.94C202.15,357.14,194.47,357.11,193.92,354.84z"></path>
			<path class="st3" d="M212.55,352.37c1.05,5.9-4.24,11.69-6.33,10.64C204.02,361.95,206.1,354.23,212.55,352.37z"></path>
			<path class="st3" d="M223.82,352.15c0.65,7.01-6.11,13.32-8.45,11.94C212.87,362.67,215.93,353.69,223.82,352.15z"></path>
			<path class="st3" d="M279.82,365.76c-2.49,7.13-12.71,10-14.62,7.58C263.1,370.78,270.42,363.23,279.82,365.76z"></path>
			<path class="st3" d="M237.05,353.1c-0.06,8.25-8.7,14.91-11.28,13.1C222.96,364.3,227.41,353.96,237.05,353.1z"></path>
			<path class="st3" d="M266.52,360.12c-1.99,8.41-12.83,13.12-15.17,10.68C248.75,368.21,255.84,358.53,266.52,360.12z"></path>
			<path class="st3" d="M251.46,355.65c-1.08,9.13-11.59,15.54-14.26,13.28C234.22,366.53,240.32,355.38,251.46,355.65z"></path>
			<path class="st3" d="M203.78,343.09c2.24-1.66,9.27,3.23,8.78,9.28C206.09,351.38,201.65,344.76,203.78,343.09z"></path>
			<path class="st3" d="M214.14,340.43c2.87-1.77,10.89,4.68,9.69,11.73C216.24,350.36,211.43,342.21,214.14,340.43z"></path>
			<path class="st3" d="M274.38,349.37c4.01-0.33,10.01,10.14,5.44,16.39C272.31,360.17,270.58,349.82,274.38,349.37z"></path>
			<path class="st3" d="M226.63,338.25c3.69-1.78,12.71,6.74,10.42,14.85C228.22,350.12,223.17,340.08,226.63,338.25z"></path>
			<path class="st3" d="M258.54,342.24c4.45-0.93,12.36,10.18,7.99,17.89C257.64,354.81,254.36,343.29,258.54,342.24z"></path>
			<path class="st3" d="M241.14,337.82c4.48-1.56,13.93,9.13,10.32,17.83C241.75,351.23,236.96,339.47,241.14,337.82z"></path>
		</g>
		<g id="planty3">
			<path class="st4" d="M239.34,204.36c0.25-0.22,0.49-0.44,0.74-0.66c25.82,28.95,41.85,65.5,45.52,104.4     c-0.28,0.03-0.56,0.05-0.84,0.08C281.06,269.48,265.07,233.13,239.34,204.36z"></path>
			<path class="st4" d="M228.5,192.54c2.17-2.46,11.59,3.88,11.9,12.26C232.4,203.45,226.42,194.91,228.5,192.54z"></path>
			<path class="st4" d="M245.82,211.23c-5.71,5.78-16.26,4.45-16.74,1.33C228.53,209.29,238.72,205.54,245.82,211.23z"></path>
			<path class="st4" d="M254.88,223.54c-7.25,6.21-19.53,3.66-19.83-0.01C234.67,219.64,247.01,216.01,254.88,223.54z"></path>
			<path class="st4" d="M283.65,296.2c-9.84,2.82-21.02-6.25-19.84-10.25C265,281.61,279.09,283.8,283.65,296.2z"></path>
			<path class="st4" d="M264.19,238.93c-9.18,6.39-23.32,2.04-23.33-2.24C240.76,232.09,255.69,228.93,264.19,238.93z"></path>
			<path class="st4" d="M279.48,277.06c-10.86,4.38-24.56-3.94-23.69-8.44C256.62,263.7,272.88,263.98,279.48,277.06z"></path>
			<path class="st4" d="M272.64,256.88c-10.96,5.95-26.28-0.66-25.86-5.4C247.1,246.31,264.22,244.33,272.64,256.88z"></path>
			<path class="st4" d="M249.22,194.25c3.59,1.18,3.69,12.79-3.41,16.98C241.86,203.31,245.71,193.2,249.22,194.25z"></path>
			<path class="st4" d="M260.29,203.64c4.21,1.8,3.35,15.72-5.4,19.9C250.93,213.74,256.19,202.04,260.29,203.64z"></path>
			<path class="st4" d="M297.54,277.34c3.5,4.18-3.39,19.01-13.89,18.86C283.96,283.5,294.06,273.48,297.54,277.34z"></path>
			<path class="st4" d="M272.47,215.77c4.86,2.69,2.48,19.36-8.28,23.16C260.57,226.81,267.74,213.37,272.47,215.77z"></path>
			<path class="st4" d="M293.03,254.22c4.51,4.2-1.6,21.66-13.55,22.84C278.4,263.06,288.6,250.41,293.03,254.22z"></path>
			<path class="st4" d="M284.31,231.5c5.24,3.74,0.79,22.57-11.67,25.38C269.94,242.66,279.2,228.16,284.31,231.5z"></path>
		</g>
		<g id="planty2">
			<g>
				<g>
					
						<rect x="247.5" y="252.27" transform="matrix(0.5145 -0.8575 0.8575 0.5145 -144.4796 362.9403)" class="st5" width="1.54" height="113.57"></rect>
				</g>
				<g>
					<g>
						<path class="st5" d="M181.08,268.75l2.01,0.37c0.62,0.11,15.32,2.88,17.24,10.55l0.19,0.75l-0.75,0.19        c-7.67,1.92-17.02-9.75-17.42-10.25L181.08,268.75z"></path>
					</g>
				</g>
				<path class="st5" d="M284.5,330.81l0.66,0.4l-0.4,0.66c-9.85,16.41-33.83,17.55-34.85,17.59l-1.75,0.07l1.13-1.34      C250.18,347.15,271.06,322.75,284.5,330.81z"></path>
				<path class="st5" d="M264.07,318.55l0.66,0.4l-0.4,0.66c-8.64,14.4-29.68,15.41-30.57,15.44l-1.75,0.07l1.13-1.34      C233.92,332.87,252.24,311.46,264.07,318.55z"></path>
				<path class="st5" d="M244.52,306.82l0.66,0.4l-0.4,0.66c-7.44,12.39-25.53,13.26-26.29,13.29l-1.75,0.07l1.13-1.34      C218.54,319.11,234.3,300.69,244.52,306.82z"></path>
				<path class="st5" d="M225.85,295.62l0.66,0.4l-0.4,0.66c-6.23,10.39-21.37,11.11-22.02,11.14l-1.75,0.07l1.13-1.34      C204.04,305.89,217.25,290.46,225.85,295.62z"></path>
				<path class="st5" d="M209.83,286.01l0.66,0.4l-0.4,0.66c-5.03,8.38-17.22,8.96-17.74,8.98l-1.75,0.07l1.13-1.34      C192.19,294.25,202.83,281.81,209.83,286.01z"></path>
				<path class="st5" d="M283.28,291.56l0.65-1.63l0.76,1.58c0.44,0.92,10.72,22.62,0.87,39.03l-0.4,0.66l-0.66-0.4      C271.07,322.74,282.77,292.83,283.28,291.56z"></path>
				<path class="st5" d="M262.96,284.09l0.65-1.63l0.76,1.58c0.39,0.8,9.4,19.84,0.76,34.24l-0.4,0.66l-0.66-0.4      C252.25,311.44,262.52,285.2,262.96,284.09z"></path>
				<path class="st5" d="M243.53,277.14l0.65-1.63l0.76,1.58c0.33,0.69,8.08,17.06,0.65,29.45l-0.4,0.66l-0.66-0.4      C234.31,300.68,243.15,278.1,243.53,277.14z"></path>
				<path class="st5" d="M224.97,270.73l0.65-1.63l0.76,1.58c0.28,0.58,6.77,14.28,0.53,24.67l-0.4,0.66l-0.66-0.4      C217.25,290.45,224.66,271.53,224.97,270.73z"></path>
				<path class="st5" d="M209.07,265.9l0.65-1.63l0.76,1.58c0.22,0.47,5.45,11.5,0.42,19.88l-0.4,0.66l-0.66-0.4      C202.84,281.8,208.81,266.55,209.07,265.9z"></path>
			</g>
		</g>
		<g id="planty1">
			<g>
				<g>
					<g>
						<path class="st4" d="M588.52,301.98c-0.2-0.43-0.4-0.85-0.6-1.28c-35.88,17.1-65.89,44.81-85.8,79.62        c0.35,0.2,0.7,0.4,1.05,0.6C523.01,346.37,552.86,318.9,588.52,301.98z"></path>
					</g>
					<g>
						<path class="st4" d="M587.49,301.13c-0.1,0.23-0.2,0.47-0.3,0.7c0.24,0.07,0.49,0.14,0.73,0.2        c7.26,2.02,18.91-7.57,19.61-7.93c0.56-0.44,1.12-0.87,1.69-1.3c-0.71,0-1.42,0.01-2.14,0.02        C606.47,292.62,590.6,293.7,587.49,301.13z"></path>
					</g>
					<path class="st4" d="M510.77,367.66c-0.15,0.22-0.3,0.45-0.45,0.67c0.17,0.12,0.34,0.23,0.51,0.35       c12.71,7.84,32.84,0.34,33.76,0.63c0.5-0.15,0.99-0.29,1.49-0.43c-0.42-0.26-0.83-0.51-1.25-0.76       C544.07,367.42,520.44,353.63,510.77,367.66z"></path>
					<path class="st4" d="M526.07,348.05c-0.18,0.2-0.36,0.4-0.53,0.6c0.16,0.14,0.32,0.28,0.48,0.43       c10.47,8.69,29.05,4.34,29.84,4.62c0.52-0.09,1.04-0.17,1.55-0.26c-0.39-0.31-0.79-0.62-1.18-0.93       C555.59,351.81,535.97,336.98,526.07,348.05z"></path>
					<path class="st4" d="M542.85,331.31c-0.2,0.18-0.4,0.35-0.6,0.53c0.14,0.17,0.29,0.33,0.43,0.5       c8.25,8.89,24.82,7.02,25.49,7.28c0.53-0.03,1.07-0.06,1.6-0.09c-0.37-0.36-0.73-0.72-1.1-1.08       C568.16,337.79,552.42,322.91,542.85,331.31z"></path>
					<path class="st4" d="M560.63,317.36c-0.22,0.15-0.44,0.31-0.66,0.46c0.13,0.19,0.26,0.37,0.38,0.56       c6.16,8.5,20.38,8.46,20.94,8.7c0.55,0.02,1.09,0.04,1.64,0.07c-0.34-0.41-0.67-0.81-1.01-1.21       C581.52,325.32,569.42,311.27,560.63,317.36z"></path>
					<path class="st4" d="M577.12,307.07c-0.23,0.13-0.47,0.26-0.7,0.39c0.11,0.2,0.22,0.41,0.34,0.61       c4.36,7.54,15.99,8.56,16.45,8.76c0.55,0.07,1.11,0.13,1.66,0.21c-0.31-0.44-0.62-0.88-0.93-1.32       C593.64,315.18,584.72,302.86,577.12,307.07z"></path>
					<path class="st4" d="M503.75,332.01c-0.29-0.4-0.58-0.81-0.86-1.21c-0.17,0.63-0.34,1.26-0.5,1.89       c-0.75,1.18-5.81,27.02,7.41,35.28c0.17,0.12,0.34,0.23,0.51,0.35c0.15-0.22,0.3-0.45,0.45-0.67       C519.9,354.75,504.43,333.24,503.75,332.01z"></path>
					<path class="st4" d="M523.11,315.84c-0.25-0.44-0.5-0.88-0.75-1.33c-0.23,0.61-0.46,1.21-0.68,1.82       c-0.7,0.96-7.45,22.84,3.37,31.88c0.16,0.14,0.32,0.29,0.48,0.43c0.18-0.2,0.35-0.4,0.53-0.6       C535.45,337.8,523.6,316.96,523.11,315.84z"></path>
					<path class="st4" d="M543.04,303.1c-0.21-0.48-0.42-0.95-0.63-1.43c-0.28,0.58-0.57,1.15-0.84,1.73       c-0.63,0.76-8.25,18.77,0.24,27.94c0.14,0.17,0.29,0.33,0.43,0.5c0.2-0.18,0.4-0.36,0.6-0.53       C551.96,323.47,543.38,304.09,543.04,303.1z"></path>
					<path class="st4" d="M563.06,293.51c-0.17-0.5-0.34-1.01-0.51-1.51c-0.33,0.55-0.66,1.09-0.99,1.64       c-0.55,0.59-8.3,14.9-1.99,23.61c0.13,0.19,0.26,0.37,0.38,0.56c0.22-0.15,0.44-0.31,0.66-0.46       C569.05,311.63,563.28,294.37,563.06,293.51z"></path>
					<path class="st4" d="M580.7,287.83c-0.13-0.53-0.26-1.05-0.39-1.58c-0.37,0.51-0.74,1.03-1.1,1.55       c-0.45,0.44-7.57,11.36-3.12,19.04c0.11,0.2,0.22,0.41,0.34,0.61c0.23-0.13,0.47-0.26,0.7-0.39       C584.45,303.07,580.83,288.53,580.7,287.83z"></path>
				</g>
			</g>
		</g>
		<g>
			<g>
				<g>
					<g>
						<path class="st6" d="M508.49,412.15H286.87c-1.53,0-2.92-0.58-3.97-1.53c-1.21-1.09-1.96-2.66-1.96-4.41V108.52        c0-1.71,0.72-3.25,1.88-4.34c1.06-0.99,2.49-1.6,4.06-1.6H508.5c1.54,0,2.95,0.59,4.01,1.55c1.19,1.09,1.93,2.65,1.93,4.38        V406.2c0,1.62-0.65,3.08-1.7,4.15C511.65,411.46,510.15,412.15,508.49,412.15z"></path>
					</g>
					<g>
						<g>
							<rect x="292.8" y="114.46" class="st7" width="209.75" height="285.81"></rect>
						</g>
						<g>
							<g>
								<g>
									<path class="st8" d="M338.29,174.16h-21.92c-0.94,0-1.71-0.76-1.71-1.71v-21.92c0-0.94,0.76-1.71,1.71-1.71h21.92           c0.94,0,1.71,0.76,1.71,1.71v21.92C340,173.4,339.23,174.16,338.29,174.16z M318.07,170.75h18.51v-18.51h-18.51V170.75z"></path>
								</g>
							</g>
							<g class="st9">
								<g>
									<g>
										<rect x="356.81" y="147.06" class="st3" width="126.43" height="3.46"></rect>
									</g>
									<g>
										<rect x="356.81" y="155.53" class="st3" width="41.72" height="3.46"></rect>
									</g>
									<g>
										<rect x="414.72" y="155.53" class="st3" width="49" height="3.46"></rect>
									</g>
									<g>
										<rect x="356.81" y="164" class="st3" width="69.85" height="3.46"></rect>
									</g>
									<g>
										<rect x="435.31" y="164" class="st3" width="47.93" height="3.46"></rect>
									</g>
									<g>
										<rect x="356.81" y="172.47" class="st3" width="30.27" height="3.46"></rect>
									</g>
									<g>
										<rect x="405.95" y="172.47" class="st3" width="77.29" height="3.46"></rect>
									</g>
								</g>
							</g>
						</g>
						<g>
							<g>
								<g>
									<path class="st8" d="M338.29,225.68h-21.92c-0.94,0-1.71-0.76-1.71-1.71v-21.92c0-0.94,0.76-1.71,1.71-1.71h21.92           c0.94,0,1.71,0.76,1.71,1.71v21.92C340,224.92,339.23,225.68,338.29,225.68z M318.07,222.27h18.51v-18.51h-18.51V222.27z"></path>
								</g>
							</g>
							<g class="st10">
								<g>
									<rect x="356.8" y="223.98" class="st3" width="90.64" height="3.46"></rect>
								</g>
								<g>
									<rect x="420.02" y="215.51" class="st3" width="41.72" height="3.46"></rect>
								</g>
								<g>
									<rect x="356.8" y="215.51" class="st3" width="49" height="3.46"></rect>
								</g>
								<g>
									<rect x="413.38" y="207.04" class="st3" width="69.86" height="3.46"></rect>
								</g>
								<g>
									<rect x="356.8" y="207.04" class="st3" width="47.93" height="3.46"></rect>
								</g>
								<g>
									<rect x="452.97" y="198.57" class="st3" width="30.27" height="3.46"></rect>
								</g>
								<g>
									<rect x="356.8" y="198.57" class="st3" width="77.29" height="3.46"></rect>
								</g>
							</g>
						</g>
						<g>
							<g>
								<g>
									<path class="st8" d="M338.29,277.19h-21.92c-0.94,0-1.71-0.76-1.71-1.71v-21.92c0-0.94,0.76-1.71,1.71-1.71h21.92           c0.94,0,1.71,0.76,1.71,1.71v21.92C340,276.43,339.23,277.19,338.29,277.19z M318.07,273.78h18.51v-18.51h-18.51V273.78z"></path>
								</g>
							</g>
							<g class="st11">
								<g>
									<rect x="356.8" y="250.09" class="st3" width="126.43" height="3.46"></rect>
								</g>
								<g>
									<rect x="421.01" y="258.56" class="st3" width="41.72" height="3.46"></rect>
								</g>
								<g>
									<rect x="356.8" y="258.56" class="st3" width="49" height="3.46"></rect>
								</g>
								<g>
									<rect x="413.38" y="267.03" class="st3" width="69.86" height="3.46"></rect>
								</g>
								<g>
									<rect x="356.8" y="267.03" class="st3" width="47.93" height="3.46"></rect>
								</g>
								<g>
									<rect x="452.97" y="275.5" class="st3" width="30.27" height="3.46"></rect>
								</g>
								<g>
									<rect x="356.8" y="275.5" class="st3" width="77.29" height="3.46"></rect>
								</g>
							</g>
						</g>
						<g>
							<g>
								<g>
									<path class="st8" d="M338.29,328.71h-21.92c-0.94,0-1.71-0.76-1.71-1.71v-21.93c0-0.94,0.76-1.71,1.71-1.71h21.92           c0.94,0,1.71,0.76,1.71,1.71V327C340,327.94,339.23,328.71,338.29,328.71z M318.07,325.3h18.51v-18.51h-18.51V325.3z"></path>
								</g>
							</g>
							<g class="st11">
								<g>
									<rect x="356.81" y="327.02" class="st3" width="126.43" height="3.46"></rect>
								</g>
								<g>
									<rect x="356.81" y="318.55" class="st3" width="41.72" height="3.46"></rect>
								</g>
								<g>
									<rect x="414.72" y="318.55" class="st3" width="49" height="3.46"></rect>
								</g>
								<g>
									<rect x="356.81" y="310.08" class="st3" width="69.85" height="3.46"></rect>
								</g>
								<g>
									<rect x="435.31" y="310.08" class="st3" width="47.93" height="3.46"></rect>
								</g>
								<g>
									<rect x="356.81" y="301.61" class="st3" width="30.27" height="3.46"></rect>
								</g>
								<g>
									<rect x="398.52" y="301.61" class="st3" width="77.29" height="3.46"></rect>
								</g>
							</g>
						</g>
						<g>
							<g>
								<g>
									<g>
										<path class="st8" d="M338.29,380.22h-21.92c-0.94,0-1.71-0.76-1.71-1.71v-21.92c0-0.94,0.76-1.71,1.71-1.71h21.92            c0.94,0,1.71,0.76,1.71,1.71v21.92C340,379.46,339.23,380.22,338.29,380.22z M318.07,376.81h18.51V358.3h-18.51V376.81z"></path>
									</g>
								</g>
							</g>
							<g class="st12">
								<g>
									<rect x="356.81" y="353.12" class="st3" width="126.43" height="3.46"></rect>
								</g>
								<g>
									<rect x="356.81" y="361.59" class="st3" width="41.72" height="3.46"></rect>
								</g>
								<g>
									<rect x="418.74" y="361.59" class="st3" width="49" height="3.46"></rect>
								</g>
								<g>
									<rect x="356.81" y="370.06" class="st3" width="69.85" height="3.46"></rect>
								</g>
								<g>
									<rect x="435.31" y="370.06" class="st3" width="47.93" height="3.46"></rect>
								</g>
								<g>
									<rect x="356.81" y="378.53" class="st3" width="30.27" height="3.46"></rect>
								</g>
								<g>
									<rect x="399.56" y="378.53" class="st3" width="58.36" height="3.46"></rect>
								</g>
							</g>
						</g>
					</g>
					<g>
						<path class="st3" d="M440.04,122.25h-84.73c-3.24,0-5.87-2.63-5.87-5.87v-11.09c0-3.24,2.63-5.87,5.87-5.87h84.73        c3.24,0,5.87,2.63,5.87,5.87v11.09C445.91,119.62,443.28,122.25,440.04,122.25z"></path>
					</g>
					<g>
						<g>
							<path class="st3" d="M397.68,77.4c-7.89,0-14.28,6.39-14.28,14.28V102h28.56V91.68C411.96,83.79,405.57,77.4,397.68,77.4z          M397.68,98.29c-3.65,0-6.61-2.96-6.61-6.61s2.96-6.61,6.61-6.61s6.61,2.96,6.61,6.61S401.33,98.29,397.68,98.29z"></path>
						</g>
					</g>
				</g>
			</g>
			<g>
				<g>
					<path id="beaters" class="st13" d="M599.67,210.49c-14.84-38.92-62.67-47.83-85.24-6.97l0,0l0,0       c-22.57-40.86-70.4-31.95-85.24,6.97c-20.76,54.44,71.83,127.44,85.24,127.44S620.43,264.93,599.67,210.49z"></path>
					<g>
						<g>
							<defs>
								<path id="SVGID_1_" d="M599.67,210.49c-14.84-38.92-62.67-47.83-85.24-6.97l0,0l0,0c-22.57-40.86-70.4-31.95-85.24,6.97          c-5.19,13.61-3.3,28.38,2.67,42.88c17.91,43.5,72.51,84.56,82.56,84.56C527.83,337.93,620.43,264.93,599.67,210.49z"></path>
							</defs>
							<clipPath id="SVGID_00000091728591827520656670000004114809694299210660_">
								<use xlink:href="#SVGID_1_" style="overflow:visible;"></use>
							</clipPath>
							<g id="beatingheart" style="clip-path:url(#SVGID_00000091728591827520656670000004114809694299210660_);">
							<path id="st77" d="         M545.16,253.85l-18.35,29.46l-40.61-65.19l-22.26,35.72H402.9c0.06,0.15,0.13,0.3,0.2,0.45l-18.08,29.02l-40.61-65.19         l-22.26,35.72H261.1c0,0,0,0.01,0,0.01h-5.23l-18.35,29.46l-40.61-65.19l-22.26,35.72h-61.04c0.06,0.15,0.13,0.3,0.2,0.45         l-18.08,29.02l-40.61-65.19l-22.26,35.72h-61.04c0.98,2.35,2.07,4.7,3.26,7.03h61.69l18.35-29.46l40.61,65.19l22.26-35.72h41         c0,0,0-0.01,0-0.01h19.57l18.35-29.46l40.61,65.19l22.26-35.72h49.77c0,0,0-0.01,0-0.01h16.49l18.35-29.46l40.61,65.19         l22.26-35.72h41c0,0,0-0.01,0-0.01h19.57l18.35-29.46l40.61,65.19l22.26-35.72h49.77c1.18-2.33,2.27-4.67,3.26-7.03H545.16z"></path>
							</g>
						</g>
					</g>
				</g>
			</g>
		</g>
		<path id="shek5" class="st15" d="M312.41,359.8c0,0,8.51,5.77,12.67,12.86c0,0,8.93-17.38,19.63-22.15"></path>
		<path id="shek4" class="st15" d="M312.41,308.6c0,0,8.51,5.77,12.67,12.86c0,0,8.93-17.38,19.63-22.15"></path>
		<path id="shek3" class="st15" d="M312.41,256.78c0,0,8.51,5.77,12.67,12.86c0,0,8.93-17.38,19.63-22.15"></path>
		<path id="shek2" class="st15" d="M312.41,205.26c0,0,8.51,5.77,12.67,12.86c0,0,8.93-17.38,19.63-22.15"></path>
		<path id="shek1" class="st15" d="M312.41,153.15c0,0,8.51,5.77,12.67,12.86c0,0,8.93-17.38,19.63-22.15"></path>
		<g>
			<g>
				<g id="char4">
					<g>
						<path class="st16" d="M250.3,255.17c-0.64,4.69-3.55,7.06-3.55,7.06s0,2.73,3.45,4.37c3.45,1.64,5.29-0.9,5.29-0.9l1.12-5.94        C256.62,259.76,253.9,255.49,250.3,255.17z"></path>
					</g>
					<g id="char4head">
						<path class="st17" d="M257.91,240.12c-0.13-0.79-0.94-2.12-3.05-2.06c-1.58,0.04-2.65,1.49-2.52,2.54        c-0.8-1.06-2.42-1.68-3.81-0.82c-1.64,1.02-1.56,2.5-1.14,3.97c-0.8-0.14-2.33,0.05-2.88,1.83c-0.66,2.12,0.53,3.95,1.45,4.58        c-1.14,0.19-2.17,1.48-1.64,3.06c0.88,2.68,5.27,2.67,5.27,2.67l-1.25-5.62h-0.01c1.03-0.98,4.06-3.91,3.55-4.18        c-0.38-0.2-1.61-0.67-2.5-1l4.07-1.95c0,0-0.03-0.11-0.08-0.27c0.94,0.28,3.34,0.95,4.28,0.97l2.34,1.62        c-0.17,0.86-0.61,3.08-0.53,3.31c0.11,0.28,1.34-2.29,1.34-2.29c2.91-1.62,2.02-4.59,0.83-5.88        C260.57,239.46,258.6,239.59,257.91,240.12z"></path>
						<path class="st17" d="M249.05,243.12c-0.08,0.08-1.42,4.73-1.42,4.73v5.23c0,0,5.99,4,6.92,4.03        c0.92,0.03,3.47-6.51,3.47-6.51l2.52-6.95l-5.5-2.21C255.04,241.43,249.13,243.04,249.05,243.12z"></path>
						<path class="st16" d="M259.34,245.97c-2.1,0.13-4.8,0.59-6.35-0.39c-0.06,5.04-0.64,8.99-0.64,8.99l-1.13-0.46        c0,0-0.47-2.72-0.52-2.78c-0.49-0.51-2.17-2.06-3.57-0.61c-1.5,1.55-0.58,4.18,1.92,5.08c4.04,6.4,10.65,5.96,11.58,4.36        c2.43-4.16,1.01-10.69,0.15-13.68C260.56,246.26,259.87,245.94,259.34,245.97z"></path>
						<path class="st17" d="M253.59,243.56c0,0-5.14,1.47-5.15,1.51s3.42,6.27,3.42,6.27l0.5,3.22c0.33-3.42,0.27-5.19,1.86-6.45        c1.33-1.05,4.1-1.9,6.57-1.64C261.1,244.7,253.59,243.56,253.59,243.56z"></path>
					</g>
					<g id="char4larm">
						<path class="st16" d="M287.32,315.6c1.27,0.68,4.24,0.7,4.06-0.45c-0.12-0.72-2.72-0.97-4.45-1.99        c-1.3-0.77-3.6-0.51-3.6-0.51l-7.71-7.51l-3.12,3.53l8.21,6.9c0,0,1.16,3.25,3.33,5.17c2.58,2.28,5.64,3.52,7.57,1.34        C293.46,319.97,288.47,317.56,287.32,315.6z"></path>
						<g>
							<g>
								<path class="st8" d="M265.9,290.47c-3.18-10.28-9.22-22.26-14.11-19.99c-5.83,2.7,0.46,16.05,5.41,24.07          c6.82,11.05,21.69,20.67,21.69,20.67l4.32-4.02C283.22,311.2,268.37,298.45,265.9,290.47z"></path>
							</g>
						</g>
						<g>
							<g>
								<path class="st16" d="M290.87,266.31c0,0-3.58-13.06-6.11-21.56l-4.1,0.2c-1.69,8.71-3.98,22.05-3.98,22.05l7.1-0.35l0,0          l0,0L290.87,266.31z"></path>
								<polygon class="st5" points="287.26,264.2 280.07,264.55 276.68,267.04 283.65,410.04 297.84,409.35 290.87,266.34                   "></polygon>
								
									<rect x="283.54" y="264.29" transform="matrix(0.9988 -0.0487 0.0487 0.9988 -16.0175 14.3827)" class="st18" width="7.2" height="143.21"></rect>
								<path class="st18" d="M282.36,237.61c-0.21,0.01-0.88,3.13-1.7,7.34c0,0,0.42,0.6,2.08,0.52c1.66-0.08,2.02-0.72,2.02-0.72          C283.54,240.64,282.56,237.6,282.36,237.61z"></path>
							</g>
						</g>
					</g>
					<g>
						<g>
							<g>
								<path class="st6" d="M264.49,319.04c0,0-12.34,0.01-18.52,0c1.27,17.09,10.15,31.48,16.09,47.18          c1.99,11.58,3.08,23.85,4.07,35.54l7.47,0.83c1.18-14.21,1.69-30.07-0.55-43.96S267.86,332.42,264.49,319.04z"></path>
							</g>
						</g>
					</g>
					<g>
						<path class="st6" d="M247.02,366.79c-0.53,7,0.94,36.78,0.94,36.78h7.55c0,0,3.53-34.04,4.17-42.27        c0.63-8.23,1.95-37.54,1.95-42.27c0,0-8.27,0-18.33,0C239.9,333.17,246.07,349.24,247.02,366.79z"></path>
					</g>
					<g>
						<g>
							<path class="st8" d="M262.95,279.2c-1.33-6.08-7.45-13.49-7.45-13.49s-3.82,0.64-8.74-3.47c-5.65,4.95-9.76,10.39-7.78,28.08         c1.16,10.31,4.31,23.33,4.31,28.72c4.85,0,19.02,0,21.21,0c0,0-0.4-8.01-1.41-16.84         C261.54,288.83,264.49,286.26,262.95,279.2z"></path>
						</g>
					</g>
					<path class="st8" d="M245.24,315.32c-1.56-2.77-2.67-5.37-3.48-7.75c0.34,1.91,0.65,3.72,0.9,5.37       c0.38,0.8,0.79,1.61,1.24,2.44l-0.84,0.47c0.05,0.46,0.1,0.89,0.13,1.3l2.34-1.31L245.24,315.32z"></path>
					<g id="char4rarm">
						<path class="st19" d="M242.83,266.24C242.82,266.24,242.82,266.24,242.83,266.24C242.83,266.24,242.83,266.24,242.83,266.24        C242.83,266.23,242.83,266.23,242.83,266.24z"></path>
						<path class="st8" d="M247.54,278.53c-0.29-0.18-0.67-0.09-0.86,0.2c-1.48,2.44-3.33,4.91-4.96,7.08        c-0.32,0.42-0.62,0.82-0.9,1.2c-1.05,1.41-1.84,2.53-2.37,3.43c0.15,1.12,0.32,2.25,0.5,3.4c0.01-0.57,0.03-1.06,0.06-1.46        c0.06-0.72,1.14-2.32,2.51-4.16c0.39-0.53,0.8-1.07,1.22-1.63c1.61-2.14,3.42-4.55,4.9-6.97c0.04-0.06,0.08-0.13,0.11-0.19        C247.94,279.11,247.84,278.72,247.54,278.53z"></path>
						<path class="st19" d="M243.16,266.11c-0.11,0.04-0.22,0.08-0.33,0.12c0.13-0.05,0.26-0.09,0.39-0.13        C243.21,266.11,243.18,266.11,243.16,266.11z"></path>
						<path class="st8" d="M243.98,266.51c-0.11-0.31-0.43-0.48-0.75-0.41c-0.13,0.04-0.26,0.08-0.39,0.13c-0.01,0-0.01,0-0.02,0.01        c-0.91,0.36-1.82,0.91-2.71,1.61c-0.46,0.36-0.92,0.75-1.37,1.18c-0.22,0.79-0.41,1.62-0.58,2.51        c0.58-0.68,1.17-1.29,1.77-1.84c1.14-1.05,2.28-1.84,3.37-2.27c0.06-0.02,0.12-0.04,0.18-0.06c0.03-0.01,0.07-0.03,0.1-0.04        C243.91,267.21,244.09,266.85,243.98,266.51z"></path>
						<g>
							<path class="st16" d="M247.73,317.74c-1.12-1.16-3.56-1.56-3.56-1.56l-2.18-3.75l-3.6-6.19l-4.23,2.73l2.57,3.77l3.89,5.69         c0,0,0.27,3.68,1.95,6.27c2,3.09,4.79,5.25,7.41,3.56c2.52-1.63-1.93-5.55-2.55-7.9c1.11,1.07,4.17,1.94,4.3,0.7         C251.83,320.3,249.22,319.29,247.73,317.74z"></path>
						</g>
						<g>
							<path class="st8" d="M238.37,292.32c0.27-3.55,16.84-18.65,9.98-24.67c-6.96-6.11-18.17,11.48-19.34,22.88         c-0.78,7.63,3.43,19.37,9.85,27.18l5.37-3C238.36,304.26,238.1,295.86,238.37,292.32z"></path>
						</g>
					</g>
					<path class="st16" d="M267.66,404.38c0,0,0.59,2.15,0.59,2.2c0,0.05,3.98-1.6,3.98-1.6l0.16-2.53l-4.94-0.55L267.66,404.38z"></path>
					<path class="st17" d="M275.95,408.24c-2.05-1.34-3.72-3.26-3.72-3.26s-2.06,1.4-4.57-0.6c0,0-1.75,2.31-1.27,5.75       c2.97,0.49,4.17,0.69,4.17,0.69l0.15-0.88c0,0,3.26,1.45,6.67,2.01c3.41,0.57,4.18-0.28,3.89-0.88       C280.97,410.48,278.68,410.03,275.95,408.24z"></path>
					<g>
						<polygon class="st16" points="249.43,406.26 252.09,409.29 254.03,406.11 254.07,403.57 249.18,403.57       "></polygon>
						<path class="st17" d="M258.24,408.71c-2.24-0.98-4.21-2.6-4.21-2.6s-1.81,1.72-4.6,0.15c0,0-1.35,2.57-0.31,5.89        c3.01,0,4.23,0,4.23,0v-0.89c0,0,3.46,0.89,6.91,0.89s4.08-0.96,3.7-1.51C263.57,410.1,261.24,410.03,258.24,408.71z"></path>
					</g>
				</g>
				<polygon class="st16" points="294.23,407.24 287.04,407.59 283.65,410.04 287.26,412.15 294.45,411.8 297.84,409.35     "></polygon>
				<path class="st3" d="M292.8,409.59c0.02,0.31-0.89,0.6-2.03,0.66s-2.06-0.15-2.08-0.46c-0.01-0.31,0.89-0.6,2.03-0.66      C291.85,409.08,292.79,409.28,292.8,409.59z"></path>
			</g>
		</g>
		<g id="char3">
			<g>
				<g id="char3head">
					<path class="st17" d="M415.59,251.49c5.03,3.06,4.42,10.48,6.56,15.95c4.03,10.33,14.3,18.9,10.62,22.91       c-4.24,4.61-11.15-0.26-20.25,6.35c-6.29,4.57-9.37-41.21-9.37-41.21s0.26-1.27,1.1-2.46       C406.06,250.43,411.71,249.13,415.59,251.49z"></path>
					<path class="st16" d="M412.55,266.37c0.64,4.69,3.55,7.06,3.55,7.06s1,1.73-2.45,3.37c-3.45,1.64-5.29-0.9-5.29-0.9l-1.12-5.94       C407.23,269.95,408.95,266.69,412.55,266.37z"></path>
					<path class="st16" d="M409.82,256.11c1.8,3.08,1.97,5.41,1.97,5.41s1.88-2.27,3.4-0.7c1.38,1.42,0.53,3.83-1.76,4.65       c-3.7,5.86-9.76,5.46-10.61,4c-2.96-5.08,0.32-14,0.32-14S407.15,253.65,409.82,256.11z"></path>
				</g>
				<g>
					<g>
						<g>
							<path class="st16" d="M386.56,404.37l4.88,0.52l-0.48,2.79l-2.92,2.88l-4.66,0.86l-2.16-1.88c0,0,3.41-1.09,4.37-2.12         C386.54,406.39,386.56,404.37,386.56,404.37z"></path>
						</g>
						<path class="st17" d="M381.21,409.54c2.2,0.73,4.15,0.63,5.71,0.22c2.52-0.65,4.04-2.08,4.04-2.08s0.61,1.22,0.41,3.58        c-0.06,0.77-0.21,1.72-0.61,2.61c-0.69-0.07-1.43-0.15-1.43-0.15s0.08-0.98,0.16-1.94c-2.04,0.3-4.72,1.45-7.52,1.14        C375.5,412.23,375.91,410.05,381.21,409.54z"></path>
					</g>
				</g>
				<g>
					<path class="st8" d="M398.65,322.68l18.68-2.89c1.33,19.13-11.52,31.98-18.34,48.34c-3.38,12.27-4.88,24.23-6.07,36.97       c-2.52-0.3-5.06-0.44-7.57-0.84c-0.97-14.89-1.03-28.52,2.7-42.55C391.79,347.67,398.65,322.68,398.65,322.68z"></path>
				</g>
				<g>
					<g>
						<g>
							<path class="st16" d="M420.53,406.34l4.67-1.46l0.56,2.64l-1.64,3.68l-3.97,2.6l-2.67-0.8c0,0,2.74-2.3,3.24-3.59         C421.24,408.12,420.53,406.34,420.53,406.34z"></path>
						</g>
						<path class="st17" d="M422.81,410.94c2.07-1.56,2.95-3.43,2.95-3.43s1,0.84,1.67,2.98c0.22,0.7,0.43,1.6,0.38,2.54        c-0.66,0.21-1.36,0.43-1.36,0.43s-0.28-0.9-0.55-1.77c-1.76,1.07-3.81,3.13-6.49,3.97c-6.19,1.94-6.59-0.14-1.91-2.68        C419.77,412.77,421.52,411.92,422.81,410.94z"></path>
					</g>
				</g>
				<g>
					<path class="st8" d="M417.06,369.49c3.38,11.61,6.58,23.25,9.27,35.05c-2.41,0.79-4.8,1.45-7.22,2.34       c-5-13.9-10.71-22.15-13.07-37.01c-2.43-15.33-3.6-34.65-2.63-49.65l17.74,5.26C425.97,341.36,415.36,354.49,417.06,369.49z"></path>
				</g>
			</g>
			<g>
				<g id="char3larm">
					<g>
						<g>
							<path class="st5" d="M396.76,297.45c3.42-5.45,6.2-17.92,14.38-15.48c9.75,2.91,0.55,14.78-4.27,19.15         c-6.65,6.01-16.64,9.87-25.76,13.19c-1.42-1.5-2.94-2.87-3.96-4.63C383.19,307.46,394.11,301.67,396.76,297.45z"></path>
						</g>
					</g>
				</g>
				<g>
					<path class="st5" d="M399.12,288.47c4.07-3.99,6.79-8.53,8.04-10.87c0.47-0.88,1.49-1.47,2.66-1.59       c1.36-0.14,3.38-0.58,5.75-1.78c1.59-0.81,2.34-0.46,3.58,0.68c4.72,4.33,7.71,10,4.44,24.25c-1.9,8.3-6.86,19.39-1.56,27.16       c0,0-12.53,6.46-24.46,0c0-0.72,2.6-22.96,1.68-25.39C397.31,295.8,396.11,291.41,399.12,288.47z"></path>
				</g>
				<g id="char3rarm">
					<path class="st16" d="M388.83,301.56c0,0-2.95-1.74-5.96-0.3c-3.02,1.44-1.52,3.68-1.52,3.68s0.75,1.84,2.54,0.71       c1.79-1.14,2.76-1.05,2.76-1.05s0.15,1.41,3.42,1.05L388.83,301.56z"></path>
					<path class="st20" d="M389.69,301.27c0,0,18.76-2.06,20.95-4.53c1.88-2.13,4.15-8.31,4.15-8.31"></path>
					<path class="st5" d="M417.47,281.32c0,0-4.72,13.39-6.84,15.42s-22.04,4.66-22.04,4.66l1.33,4.53c0,0,19.31,0.51,25.52-2.59       c4.91-2.46,10.26-14.49,9.52-19.26c-0.24-1.56-1.61-5.05-3.17-5.91C420.15,277.24,420.28,279.53,417.47,281.32z"></path>
				</g>
				<g id="char3write">
					<g>
						<path class="st8" d="M381.72,320.57l12.65,0.5c0.1,0,0.18-0.03,0.23-0.09c0.05-0.06,0.07-0.13,0.03-0.2l-8.7-18.75        c-0.02-0.04-0.05-0.07-0.09-0.09c-0.04-0.03-0.09-0.04-0.15-0.05l-12.65-0.5c-0.09,0-0.17,0.03-0.22,0.08        c-0.05,0.06-0.07,0.14-0.04,0.21l8.7,18.75c0.02,0.04,0.05,0.07,0.08,0.09C381.61,320.55,381.66,320.57,381.72,320.57z"></path>
					</g>
				</g>
				<g id="char3lhand">
					<g>
						<path class="st16" d="M381.13,312.05c0.18,1.7-1.68,3.28-3.03,3.53c-1.36,0.25-3.68-4.2-2.15-4.87        C377.49,310.04,380.95,310.35,381.13,312.05z"></path>
					</g>
				</g>
			</g>
		</g>
		<g id="char2">
			<g id="char2head">
				<path class="st17" d="M538.61,10.52c-5.78,2.17-7.47,10.58,0,16.48c5.97,4.71,10.88-11.96,10.88-11.96      C548.87,12.45,543.21,8.8,538.61,10.52z"></path>
				<g>
					<path class="st16" d="M542.35,14.23c-0.05,4.62-0.58,8.24-0.58,8.24l-1.04-0.42c0,0-0.43-2.5-0.48-2.55       c-0.45-0.47-1.99-1.89-3.27-0.56c-1.38,1.42-0.53,3.83,1.76,4.65c3.7,5.86,9.76,5.46,10.61,4c2.23-3.81,0.93-9.8,0.14-12.54       C547.43,12.99,543.07,13.8,542.35,14.23z"></path>
				</g>
			</g>
			<g>
				<path class="st16" d="M539.62,23.48c-0.64,4.69-3.55,7.06-3.55,7.06s0,2.73,3.45,4.37s5.29-0.9,5.29-0.9l1.12-5.94      C545.94,28.07,543.22,23.8,539.62,23.48z"></path>
			</g>
			<g id="char2leftarm">
				<path class="st16" d="M576.64,83.91c1.27,0.68,4.24,0.7,4.06-0.45c-0.12-0.72-2.72-0.97-4.45-1.99c-1.3-0.77-3.6-0.51-3.6-0.51      l-7.71-7.51l-3.12,3.53l8.21,6.9c0,0,1.16,3.25,3.33,5.17c2.58,2.28,5.64,3.52,7.57,1.34      C582.78,88.28,577.79,85.87,576.64,83.91z"></path>
				<g>
					<path class="st3" d="M555.23,58.78c-3.18-10.28-9.22-22.26-14.11-19.99c-5.83,2.7,0.46,16.05,5.41,24.07       c6.82,11.05,21.69,20.67,21.69,20.67l4.32-4.02C572.54,79.51,557.69,66.76,555.23,58.78z"></path>
				</g>
			</g>
			<path class="st3" d="M552.27,47.51c-1.33-6.08-7.45-13.49-7.45-13.49s-3.82,0.64-8.74-3.47c-5.65,4.95-9.76,10.39-7.78,28.08     c1.16,10.31,4.31,23.33,4.31,28.72c4.85,0,19.02,0,21.21,0c0,0-0.4-8.01-1.41-16.84C550.86,57.15,553.82,54.57,552.27,47.51z"></path>
			<g>
				<g>
					<g>
						<path class="st8" d="M553.82,87.35c0,0-12.34,0.01-18.52,0c1.27,17.09,10.15,31.48,16.09,47.18        c1.99,11.58,3.08,25.65,4.07,37.35h7.47c1.18-14.21,1.69-31.06-0.55-44.94C560.15,113.06,557.18,100.73,553.82,87.35z"></path>
					</g>
				</g>
			</g>
			<g>
				<path class="st8" d="M536.34,135.1c-0.53,7,0.94,36.78,0.94,36.78h7.55c0,0,3.53-34.04,4.17-42.27      c0.63-8.23,1.95-37.54,1.95-42.27c0,0-8.27,0-18.33,0C529.22,101.48,535.39,117.55,536.34,135.1z"></path>
			</g>
			<g id="charrarm">
				<g>
					<path class="st7" d="M545.22,49.85c-1.96,0-3.22-3.04-4.44-5.99l-0.15-0.36c-0.13-0.31-0.48-0.45-0.78-0.32       c-0.31,0.13-0.45,0.48-0.32,0.78l0.15,0.36c1.37,3.31,2.79,6.73,5.55,6.73c2.67,0,7.2-3.97,9.16-6.4       c-0.12-0.46-0.27-0.92-0.43-1.39C552.07,45.78,547.67,49.85,545.22,49.85z"></path>
				</g>
				<polygon class="st16" points="555.31,43.57 559.75,45.13 563.04,34.92 559.34,33.59     "></polygon>
				<g>
					<path class="st3" d="M545.22,50.45c-5.08,0-5.31-14.69-11.21-12.61c-6.99,2.47-1.2,21.18,8.75,21.18       c9.19,0,15.83-7.03,19.51-19.92l-4.99-2.27C554.36,42.84,550.56,50.45,545.22,50.45z"></path>
				</g>
				<g>
					<g>
						<polygon class="st3" points="558.05,27.76 562.26,28.07 562.26,22.98 558.05,23.29       "></polygon>
						<polygon class="st3" points="563.45,35.86 566.49,35.86 566.49,29.24 562.55,29.24       "></polygon>
						<path class="st3" d="M567.28,25.53v3.35c2.87,0,12.27,5.77,12.27,5.77v-9.12v-9.12c0,0-9.4,5.77-12.27,5.77V25.53z"></path>
						<path class="st3" d="M566.8,21.57h-4.54c-0.14,0-0.27,0.05-0.37,0.13c-0.14,0.11-0.23,0.28-0.23,0.48v6.7        c0,0.14,0.05,0.27,0.13,0.37c0.11,0.14,0.28,0.23,0.48,0.23h4.54c0.19,0,0.37-0.09,0.48-0.23c0.08-0.1,0.13-0.23,0.13-0.37        v-6.7c0-0.17-0.07-0.32-0.18-0.43C567.12,21.64,566.97,21.57,566.8,21.57z"></path>
						<path class="st3" d="M580.08,15.95c-0.29,0-0.53,0.24-0.53,0.53v18.08c0,0.29,0.24,0.53,0.53,0.53s0.53-0.24,0.53-0.53V16.48        C580.61,16.19,580.37,15.95,580.08,15.95z"></path>
					</g>
					<path class="st3" d="M566.43,35.39h-3.09c-0.32,0-0.59,0.26-0.59,0.59c0,0.32,0.26,0.59,0.59,0.59h4.43       C568.64,36.56,567.34,35.39,566.43,35.39z"></path>
				</g>
				<path class="st16" d="M565.06,29.91c-0.81-1-1.73-0.84-3.4,0.28c-1.25,0.84-1.85,2.25-2.32,3.41c-0.61,1.51,3.17,2.97,3.17,2.97      s1.36,0.39,4.03-0.74c1.71-0.72,3.19-2.38,2.25-4.61C567.69,28.63,565.6,29.68,565.06,29.91z"></path>
			</g>
			<g>
				<polygon class="st16" points="538.75,174.57 541.42,177.6 543.36,174.42 543.4,171.88 538.5,171.88     "></polygon>
				<path class="st17" d="M547.56,177.02c-2.24-0.98-4.21-2.6-4.21-2.6s-1.81,1.72-4.6,0.15c0,0-1.35,2.57-0.31,5.89      c3.01,0,4.23,0,4.23,0v-0.89c0,0,3.46,0.89,6.91,0.89c3.46,0,4.08-0.96,3.7-1.51C552.89,178.41,550.56,178.34,547.56,177.02z"></path>
			</g>
			<g>
				<polygon class="st16" points="556.98,174.57 559.64,177.6 561.58,174.42 561.63,171.88 556.73,171.88     "></polygon>
				<path class="st17" d="M565.79,177.02c-2.24-0.98-4.21-2.6-4.21-2.6s-1.81,1.72-4.6,0.15c0,0-1.35,2.57-0.31,5.89      c3.01,0,4.23,0,4.23,0v-0.89c0,0,3.46,0.89,6.91,0.89c3.46,0,4.08-0.96,3.7-1.51C571.12,178.41,568.79,178.34,565.79,177.02z"></path>
			</g>
		</g>
		<g id="char1">
			<g>
				<g>
					<path class="st16" d="M340.72,22.62c0.64,4.69,3.55,7.06,3.55,7.06s0,2.73-3.45,4.37s-5.29-0.9-5.29-0.9l-1.12-5.94       C334.4,27.2,337.12,22.94,340.72,22.62z"></path>
					<g id="char1head">
						<path class="st17" d="M338.82,7.65c2.63,1.15,10.01,11.84,3.4,17.51c-5.9,5.06-14.14-8.01-14.14-8.01s-2.56-0.64-2.62-3.02        C325.41,12.06,334.91,5.94,338.82,7.65z"></path>
						<path class="st16" d="M334.6,15.58c2.43,3.85,3.63,4.47,3.63,4.47s1.04-2.76,2.98-1.77c1.77,0.89,1.75,3.44-0.14,4.97        c-1.59,6.75-7.44,8.35-8.72,7.25c-4.46-3.83-4.26-13.34-4.26-13.34L334.6,15.58z"></path>
						<path class="st17" d="M334.4,26.86c3.55-1.98,0.21-11.28,0.21-11.28h1.66l1.97,4.47c0,0,2.89,5.85,1.3,8.16        c-1.59,2.31-5.28,3.65-6.79,3.94c-0.8,0.15-1.78,0-2.13-0.95c-0.6-1.64-1-4.86-1-4.86C331.27,25.36,331.73,28.34,334.4,26.86z        "></path>
					</g>
					<path class="st16" d="M311.64,79.7c1.32-0.74,5.9-1.32,5.9-1.32l9.11-5.73l2.32,4.1l-9.47,5.03c0,0-1.28,1.28-2.74,2.29       c-2.66,1.83-4.05,0.74-5.45-1.01c-1.03,0.58-1.3,4.87-1.94,5.22C307.68,89.23,308.51,81.46,311.64,79.7z"></path>
					<g>
						<path class="st5" d="M337.27,60.85c1.6-6.34-1.04-20.93,6.01-20.97c7.57-0.05,5.64,19.44,2.35,24.95        c-4.53,7.59-16.66,12.8-23.77,16.61l-3.43-4.85C323.22,73.45,336.03,65.77,337.27,60.85z"></path>
					</g>
					<path class="st5" d="M328.07,46.64c1.33-6.08,7.45-13.49,7.45-13.49s3.82,0.64,8.74-3.47c5.65,4.95,9.76,10.39,7.78,28.08       c-1.16,10.31-4.31,23.33-4.31,28.72c-4.85,0-19.02,0-21.21,0c0,0,0.4-8.01,1.41-16.84C329.48,56.28,326.53,53.71,328.07,46.64z       "></path>
					<g id="char1leg">
						<g>
							<polygon class="st16" points="305.72,141.85 304.78,144.54 302.11,147.57 300.17,144.39 300.83,141.85        "></polygon>
							<path class="st17" d="M295.96,146.99c2.24-0.98,4.21-2.6,4.21-2.6s1.81,1.72,4.6,0.15c0,0,1.35,2.57,0.31,5.89         c-3.01,0-4.23,0-4.23,0v-0.89c0,0-3.46,0.89-6.91,0.89s-4.08-0.96-3.7-1.51C290.64,148.38,292.97,148.31,295.96,146.99z"></path>
						</g>
						<g>
							<g>
								<path class="st8" d="M326.53,86.48h21.21c0,11.61-9,16.33-19.61,16.33c-4,0-10.35,0.52-10.35,0.52l-10.95,38.52h-6.95          c0-14.31,4.92-40.44,7.81-44C312.23,92.24,326.53,86.48,326.53,86.48z"></path>
							</g>
						</g>
					</g>
					<g>
						<polygon class="st16" points="326.94,146.77 324.27,149.79 322.33,146.61 321.36,144.08 326.25,144.08       "></polygon>
						<path class="st17" d="M318.13,149.21c2.24-0.98,4.21-2.6,4.21-2.6s1.81,1.72,4.6,0.15c0,0,1.35,2.57,0.31,5.89        c-3.01,0-4.23,0-4.23,0v-0.89c0,0-3.46,0.89-6.91,0.89s-4.08-0.96-3.7-1.51C312.8,150.6,315.13,150.53,318.13,149.21z"></path>
					</g>
					<g>
						<g>
							<g>
								<path class="st8" d="M301.64,90.4c4.69-2.02,24.88-3.91,24.88-3.91h21.21c0.83,13.85-6.31,16.85-17.56,16.85          c-3.17,0-18.38,0-18.38,0s14.03,27.41,15.55,40.74h-7.04C317.7,136.28,290.18,95.34,301.64,90.4z"></path>
							</g>
						</g>
					</g>
				</g>
			</g>
			<g>
				<g>
					<path class="st8" d="M301.82,88.72l25.13-2.96c0.08,0.49-0.26,0.95-0.75,1.03l-25.07,3.86l-16.95-18.87       c-0.33-0.37-0.3-0.94,0.07-1.27L301.82,88.72z"></path>
				</g>
			</g>
			<g id="char1arm">
				<g>
					<path id="char1hand_00000170244897103895020330000001493656590307266944_" class="st16" d="M310.31,79.16       c1.32-0.74,5.9-1.33,5.9-1.33l9.11-5.73l2.32,4.1l-9.47,5.03c0,0-1.28,1.28-2.74,2.29c-2.66,1.83-4.05,0.74-5.45-1.01       c-1.03,0.58-1.3,4.87-1.94,5.22C306.35,88.69,307.18,80.93,310.31,79.16z"></path>
					<g>
						<path class="st7" d="M335.35,60.17c0.47-1.88,0.56-4.56,0.66-7.38c0.04-1.3,0.09-2.64,0.17-3.94c0.02-0.33,0.3-0.57,0.64-0.56        c0.33,0.02,0.58,0.31,0.56,0.64c-0.08,1.28-0.13,2.61-0.17,3.9c-0.1,2.9-0.19,5.63-0.69,7.64c-0.68,2.69-4.39,6-8.56,9.06        c0.06-0.56,0.12-1.1,0.17-1.62C331.72,65.19,334.8,62.35,335.35,60.17z"></path>
					</g>
					<path class="st5" d="M335.93,60.32c1.6-6.34-1.04-20.93,6.01-20.97c7.57-0.05,5.64,19.44,2.35,24.95       c-4.53,7.59-16.66,12.8-23.77,16.61l-3.43-4.85C321.88,72.92,334.7,65.24,335.93,60.32z"></path>
				</g>
			</g>
		</g>
	</g>
	<path id="cloudees" class="st7" d="M804.7,400.33c-2.13,1.09-4.07,2.65-5.65,4.7c-1.91-7.67-8.6-13.03-16.25-13.03   c-3.51,0-6.93,1.15-9.76,3.28c-3.14-9.65-11.23-16.67-20.96-18.19c-14.32-2.23-27.68,7.97-29.84,22.79   c-0.88-0.71-1.8-1.36-2.76-1.94c-12.44-7.61-28.48-3.34-35.84,9.52c-1.62-3.52-3.95-6.64-6.85-9.14   c-11.1-9.61-27.63-8.09-36.92,3.39c-4.5-3.49-9.98-5.37-15.6-5.37c-3.61-0.03-7.18,0.71-10.5,2.17c-0.92-3.26-2.43-6.31-4.43-9   c-8.86-11.84-25.32-14.01-36.76-4.84c-0.32-2.18-0.9-4.3-1.7-6.32v-0.68c-0.08,0.04-0.15,0.09-0.23,0.13   c-1.43-3.37-3.5-6.43-6.14-8.97c-10.05-9.67-25.48-9.61-35.45-0.22c-9.97-9.38-25.4-9.45-35.45,0.22c-2.64,2.54-4.71,5.6-6.14,8.97   c-0.08-0.04-0.15-0.09-0.23-0.13v0.68c-0.8,2.02-1.38,4.13-1.7,6.32c-11.44-9.17-27.91-7-36.76,4.84c-2.01,2.68-3.52,5.74-4.43,9   c-3.32-1.46-6.89-2.2-10.5-2.17c-5.63-0.01-11.1,1.88-15.6,5.37c-9.29-11.48-25.82-13-36.92-3.39c-2.89,2.5-5.23,5.62-6.85,9.14   c-7.35-12.87-23.4-17.13-35.84-9.52c-0.96,0.59-1.88,1.23-2.76,1.94c-2.16-14.82-15.52-25.02-29.84-22.79   c-9.73,1.52-17.82,8.54-20.96,18.19c-2.84-2.13-6.26-3.28-9.76-3.28c-7.66,0.01-14.34,5.37-16.25,13.03   c-5.79-7.5-16.36-8.73-23.61-2.74c-2.85,2.35-4.88,5.6-5.79,9.25c-5.77-7.52-16.34-8.77-23.6-2.8c-1.45,1.19-2.7,2.62-3.7,4.23   c-3.86-8.73-13.83-12.57-22.26-8.57c-1.38,0.65-2.67,1.5-3.84,2.51c-1.85-10.01-11.18-16.57-20.85-14.66   c-5.25,1.04-9.77,4.46-12.32,9.31l-0.17-0.2v-1.82c-0.01-15-11.77-27.15-26.26-27.14c-9.79,0.01-18.76,5.64-23.27,14.63   c-10.14-10.69-26.73-10.85-37.06-0.37c-0.52,0.53-1.02,1.08-1.49,1.65c-2.82-1.86-6.1-2.84-9.45-2.85c-6.71,0-12.85,3.9-15.9,10.08   c-6.23-7.11-16.85-7.66-23.73-1.22c-3.51,3.29-5.52,7.96-5.52,12.86V455h487h83.64H804.7V400.33z"></path>
</g>
</svg>
