<?xml version="1.0" encoding="UTF-8"?>
<svg xmlns="http://www.w3.org/2000/svg" xmlns:xlink="http://www.w3.org/1999/xlink" version="1.1" id="background" x="0px" y="0px" viewBox="0 0 805 426.35" style="enable-background:new 0 0 805 426.35;" xml:space="preserve">
<style type="text/css">
	.st0{opacity:0.22;fill:#66C4D7;enable-background:new    ;}
	.st1{fill:url(#SVGID_1_);}
	.st2{fill:url(#SVGID_00000141418699953188470880000007036154368956114315_);}
	.st3{opacity:0.25;fill:#FFFFFF;enable-background:new    ;}
	.st4{fill:#DCDCDB;}
	.st5{fill:url(#SVGID_00000153684258374793133770000003573578681805181342_);}
	.st6{fill:#CECDCC;}
	.st7{fill:#A7A9AA;}
	.st8{fill:#537BBD;}
	.st9{fill:#E9E8E7;}
	.st10{opacity:0.22;fill:#FFFFFF;enable-background:new    ;}
	.st11{fill:#F3F4FA;}
	.st12{opacity:0.32;fill:#FFFFFF;enable-background:new    ;}
	.st13{opacity:0.17;fill:#FFFFFF;enable-background:new    ;}
	.st14{fill:#FFFFFF;}
	.st15{fill:#4D94A5;}
	.st16{fill:#E9E9E9;}
	.st17{fill:#EFECED;}
	.st18{fill:#E96668;}
	.st19{fill:#294274;}
	.st20{fill:#66C4D7;}
	.st21{fill:#E7E6ED;}
	.st22{fill:#CDCDCD;}
	.st23{fill:#DEDEDD;}
	.st24{fill:#333333;}
	.st25{fill:#1A1A1A;}
	.st26{fill:#F9FAFB;}
	.st27{opacity:0.41;fill:#FFFFFF;enable-background:new    ;}
	.st28{fill:#F3BD18;}
	.st29{fill:#DBE2E1;}
	.st30{fill:#676767;}
	.st31{opacity:0.3;fill:#FFFFFF;enable-background:new    ;}
	.st32{fill:#B3B2B3;}
	.st33{opacity:0.32;}
	.st34{opacity:0.24;}
	.st35{fill:#F2F1F1;}
	.st36{opacity:0.05;fill:#333333;enable-background:new    ;}
	.st999{fill:#eef7fa;}

	/*cloud*/

	@-webkit-keyframes cloudineys {
    from {
        transform:scale(1) translateX(0px);
    }

	50% {
		transform:scale(1.02) translateX(1px);
	}

    to {
        transform:scale(1) translateX(0px);
    }
	}

	#clooud {
	transform-origin: 403.21px 426.3px;
	animation-duration: 5s;
	animation-name: cloudineys;
	animation-iteration-count: infinite;
	transition-timing-function: ease-in-out;
	}

	/*doctor*/

	@-webkit-keyframes shieldarm {
    from {
        transform:scale(1) translateY(0px);
    }

	50% {
		transform:scale(1.05) translateY(-10px);
	}

    to {
        transform:scale(1) translateY(0px);
    }
	}

	#shieldao {
	transform-origin: 573.7px 130.2px;
	animation-duration: 5s;
	animation-name: shieldarm;
	animation-iteration-count: infinite;
	transition-timing-function: ease-in-out;
	}

	@-webkit-keyframes doklarm {
    from {
        transform: rotate(0deg);
    }

	50% {
		transform: rotate(3deg);
	}

    to {
        transform: rotate(0deg);
    }
	}

	#doklarm {
	transform-origin: 555.8px 162.9px;
	animation-duration: 5s;
	animation-name: doklarm;
	animation-iteration-count: infinite;
	transition-timing-function: ease-in-out;
	}

	@-webkit-keyframes doktorsed {
    from {
        transform: rotate(0deg);
    }

	50% {
		transform: rotate(2deg);
	}

    to {
        transform: rotate(0deg);
    }
	}

	#doktorso {
	transform-origin: 527.7px 154.7px;
	animation-duration: 5s;
	animation-name: doktorsed;
	animation-iteration-count: infinite;
	transition-timing-function: ease-in-out;
	}

	@-webkit-keyframes dokheaded {
    from {
        transform: rotate(0deg);
    }

	50% {
		transform: rotate(-4deg);
	}

    to {
        transform: rotate(0deg);
    }
	}

	#dokhead {
	transform-origin: 527.7px 154.7px;
	animation-duration: 5s;
	animation-name: dokheaded;
	animation-iteration-count: infinite;
	transition-timing-function: ease-in-out;
	}

	@-webkit-keyframes dokrarmed {
    from {
        transform: rotate(0deg);
    }

	50% {
		transform: rotate(6deg);
	}

    to {
        transform: rotate(0deg);
    }
	}

	#dokarm {
	transform-origin: 500.3px 154.7px;
	animation-duration: 5s;
	animation-name: dokrarmed;
	animation-iteration-count: infinite;
	transition-timing-function: ease-in-out;
	}

	@-webkit-keyframes dokrarmed2 {
    from {
        transform: rotate(0deg);
    }

	50% {
		transform: rotate(3deg);
	}

    to {
        transform: rotate(0deg);
    }
	}

	#dokhand {
	transform-origin: 500.3px 154.7px;
	animation-duration: 5s;
	animation-name: dokrarmed2;
	animation-iteration-count: infinite;
	transition-timing-function: ease-in-out;
	}

	/*elements*/

	@-webkit-keyframes umbrelad {
    from {
        transform: rotate(0deg);
    }

	50% {
		transform: rotate(3deg);
	}

    to {
        transform: rotate(0deg);
    }
	}

	#umbrelo {
	transform-origin: 378.5px 370.85px;
	animation-duration: 5s;
	animation-name: umbrelad;
	animation-iteration-count: infinite;
	transition-timing-function: ease-in-out;
	}

	@-webkit-keyframes docusmentos {
    from {
        transform: rotate(0deg);
    }

	50% {
		transform: rotate(1deg);
	}

    to {
        transform: rotate(0deg);
    }
	}

	#documento {
	transform-origin: 378.5px 370.85px;
	animation-duration: 5s;
	animation-name: docusmentos;
	animation-iteration-count: infinite;
	transition-timing-function: ease-in-out;
	animation-delay:1s;
	}

	@-webkit-keyframes logohelth {
    from {
        transform:scale(1) ;
    }

	50% {
		transform:scale(1.1) ;
	}

    to {
        transform:scale(1) ;
    }
	}

	#crossy {
	transform-origin: 419.75px 328px;
	animation-duration: 10s;
	animation-name: logohelth;
	animation-iteration-count: infinite;
	transition-timing-function: ease-in-out;
	}
	
</style>
<g>
	<path class="st0" d="M241.5,199.32h102.8c-4.42-11.87-6.83-24.68-6.83-38.05c0-61.56,51.18-111.47,114.35-111.47   c54.03,0,99.3,36.53,111.26,85.63c4.14-0.67,8.39-1.02,12.72-1.02c41.61,0,75.5,32.09,77.09,72.25   c31.04,13.39,52.69,43.67,52.69,78.89c0,47.62-39.6,86.24-88.48,86.24H241.5c-48.87,0-88.49-38.62-88.49-86.24   C153.02,237.92,192.63,199.32,241.5,199.32z"></path>
	<g>
		<g>
			<g>
				
					<linearGradient id="SVGID_1_" gradientUnits="userSpaceOnUse" x1="3053.7307" y1="231.9928" x2="3060.4285" y2="80.3801" gradientTransform="matrix(-1 0 0 -1 3258.7173 428)">
					<stop offset="0" style="stop-color:#FFFFFF"></stop>
					<stop offset="1" style="stop-color:#DCDCDB"></stop>
				</linearGradient>
				<rect x="163.18" y="216.47" class="st1" width="74.76" height="159.48"></rect>
			</g>
		</g>
		<g id="TOP_00000072245363249288634580000008526171156145244340_">
			
				<linearGradient id="SVGID_00000005966898753467143540000017830585199785724034_" gradientUnits="userSpaceOnUse" x1="258.1244" y1="317.244" x2="262.644" y2="47.1933" gradientTransform="matrix(1 0 0 -1 0 428)">
				<stop offset="0" style="stop-color:#E9E8E7"></stop>
				<stop offset="0.6174" style="stop-color:#E4E3E2"></stop>
				<stop offset="1" style="stop-color:#DDDDDC"></stop>
			</linearGradient>
			
				<rect x="202.12" y="184.1" style="fill:url(#SVGID_00000005966898753467143540000017830585199785724034_);" width="117.74" height="195.76"></rect>
			<polygon class="st3" points="319.85,292.82 319.85,343.23 300.89,379.85 274.79,379.85    "></polygon>
			<g>
				<rect x="202.55" y="327.52" class="st4" width="117.3" height="4.26"></rect>
				<rect x="202.55" y="229.88" class="st4" width="117.3" height="4.26"></rect>
				<rect x="202.55" y="197.34" class="st4" width="117.3" height="4.26"></rect>
				<rect x="202.55" y="294.97" class="st4" width="117.3" height="4.26"></rect>
				<rect x="202.55" y="360.07" class="st4" width="117.3" height="4.26"></rect>
				<rect x="202.55" y="262.43" class="st4" width="117.3" height="4.26"></rect>
			</g>
		</g>
		<g>
			<g>
				
					<linearGradient id="SVGID_00000026880008499118417480000012151173317062210228_" gradientUnits="userSpaceOnUse" x1="2901.7871" y1="247.9321" x2="2909.1033" y2="82.3214" gradientTransform="matrix(-1 0 0 -1 3258.7173 428)">
					<stop offset="0" style="stop-color:#FFFFFF"></stop>
					<stop offset="1" style="stop-color:#DCDCDB"></stop>
				</linearGradient>
				
					<rect x="318.95" y="202.08" style="fill:url(#SVGID_00000026880008499118417480000012151173317062210228_);" width="66.29" height="174.88"></rect>
			</g>
		</g>
		<g>
			<g>
				<g>
					<rect x="247.57" y="230.76" class="st6" width="84.37" height="149.1"></rect>
				</g>
			</g>
			<polygon class="st7" points="267.35,220.5 267.35,230.82 312.33,230.82 312.33,220.5 301.77,220.5 301.77,204.06 291.79,204.06      291.79,189.85 287.88,189.85 287.88,204.06 277.9,204.06 277.9,220.5    "></polygon>
		</g>
		<path class="st8" d="M226.73,369.67c0.03-0.05,0.04-0.11,0.02-0.17c0-0.01-0.01-0.03-0.02-0.04c-0.04-0.01-0.07-0.03-0.11-0.04    c-0.19,0.05-0.17,0.2-0.17,0.25c0,0.01,0,0.02,0,0.03c0.04,0.02,0.08,0.05,0.12,0.07C226.65,369.75,226.7,369.72,226.73,369.67z"></path>
		<g>
			<rect x="386.02" y="257.53" class="st9" width="101.33" height="117.78"></rect>
			<rect x="385.21" y="257.53" class="st10" width="101.33" height="117.78"></rect>
			<g>
				<g>
					<rect x="397.44" y="257.53" class="st11" width="0.83" height="117.87"></rect>
					<rect x="410.4" y="257.53" class="st11" width="0.83" height="117.87"></rect>
					<rect x="423.35" y="257.53" class="st11" width="0.83" height="117.87"></rect>
					<rect x="436.31" y="257.53" class="st11" width="0.83" height="117.87"></rect>
					<rect x="449.27" y="257.53" class="st11" width="0.83" height="117.87"></rect>
					<rect x="462.22" y="257.53" class="st11" width="0.83" height="117.87"></rect>
					<rect x="475.18" y="257.53" class="st11" width="0.83" height="117.87"></rect>
				</g>
				<g>
					<rect x="386.27" y="344.37" class="st11" width="100.91" height="0.8"></rect>
					<rect x="386.27" y="331.86" class="st11" width="100.91" height="0.8"></rect>
					<rect x="386.27" y="319.35" class="st11" width="100.91" height="0.8"></rect>
					<rect x="386.27" y="306.84" class="st11" width="100.91" height="0.8"></rect>
					<rect x="386.27" y="294.33" class="st11" width="100.91" height="0.8"></rect>
					<rect x="386.27" y="281.82" class="st11" width="100.91" height="0.8"></rect>
					<rect x="386.27" y="269.31" class="st11" width="100.91" height="0.8"></rect>
				</g>
				<g>
					<rect x="386.27" y="357.46" class="st11" width="100.91" height="0.8"></rect>
				</g>
			</g>
			<polygon class="st12" points="462.08,347.78 415.3,347.78 413.28,342.1 460.05,342.1    "></polygon>
			<rect x="384.39" y="255.55" class="st6" width="104.58" height="3.7"></rect>
			<rect x="386.04" y="259.26" class="st12" width="101.33" height="2.96"></rect>
		</g>
		<polygon class="st13" points="406.03,347.39 406.03,348.53 387.12,364.49 387.12,363.34   "></polygon>
		<rect x="413" y="372.15" class="st14" width="13.47" height="3.27"></rect>
	</g>
	<g id="documento">
		<g>
			<g>
				<path class="st15" d="M516,364.85c0,3.91-3.28,7.11-7.29,7.11H331.93c-4,0-7.29-3.2-7.29-7.11V132.63      c0-3.91,3.29-7.11,7.29-7.11h176.79c4.01,0,7.29,3.2,7.29,7.11L516,364.85L516,364.85z"></path>
			</g>
			<g>
				<g>
					<polygon class="st16" points="468.82,364.52 338.46,364.52 338.46,136.65 505.02,136.65 505.02,333.84      "></polygon>
					<g>
						<polygon class="st16" points="467.47,362.93 337.11,362.93 337.11,135.07 503.67,135.07 503.67,332.25       "></polygon>
					</g>
				</g>
				<polygon class="st14" points="503.67,332.35 467.36,332.19 467.49,363.01     "></polygon>
			</g>
			<g>
				<path class="st15" d="M454.69,135.06c-0.1-3.34-0.75-6.55-1.85-9.55h-60.53c-1.1,3-1.75,6.21-1.86,9.55H454.69z"></path>
				<path class="st15" d="M452.23,136.17C452.15,118.94,437.8,105,420.11,105c-17.7,0-32.05,13.94-32.14,31.17H452.23z"></path>
				<path class="st15" d="M425.74,122.98c0,3.1-2.57,5.61-5.75,5.61c-3.17,0-5.74-2.51-5.74-5.61c0-3.09,2.57-5.61,5.74-5.61      C423.17,117.37,425.74,119.89,425.74,122.98z"></path>
			</g>
			<path class="st17" d="M388.08,135.06v6.18c0,1.8,1.5,3.26,3.35,3.26h57.46c1.85,0,3.35-1.46,3.35-3.26v-6.18H388.08z"></path>
			<g id="crossy">
				<path class="st18" d="M443.42,328c0,12.74-10.6,23.07-23.67,23.07s-23.67-10.33-23.67-23.07c0-12.74,10.6-23.07,23.67-23.07      S443.42,315.26,443.42,328z"></path>
				<polygon class="st14" points="436.29,323.02 424.86,323.02 424.86,311.88 414.64,311.88 414.64,323.02 403.21,323.02       403.21,332.98 414.64,332.98 414.64,344.12 424.86,344.12 424.86,332.98 436.29,332.98     "></polygon>
			</g>
		</g>
		<path class="st0" d="M489.31,216.72c0,1.04-0.87,1.88-1.93,1.88H354.25c-1.07,0-1.93-0.84-1.93-1.88l0,0    c0-1.04,0.87-1.88,1.93-1.88h133.12C488.44,214.84,489.31,215.68,489.31,216.72L489.31,216.72z"></path>
		<path class="st0" d="M489.31,163.6c0,1.04-0.87,1.88-1.93,1.88h-59.9c-1.07,0-1.93-0.84-1.93-1.88l0,0c0-1.04,0.87-1.88,1.93-1.88    h59.9C488.44,161.72,489.31,162.56,489.31,163.6L489.31,163.6z"></path>
		<path class="st0" d="M489.31,171.14c0,1.04-0.87,1.88-1.93,1.88h-59.9c-1.07,0-1.93-0.84-1.93-1.88l0,0    c0-1.04,0.87-1.88,1.93-1.88h59.9C488.44,169.26,489.31,170.1,489.31,171.14L489.31,171.14z"></path>
		<path class="st0" d="M489.31,178.68c0,1.04-0.87,1.88-1.93,1.88h-59.9c-1.07,0-1.93-0.84-1.93-1.88l0,0    c0-1.04,0.87-1.88,1.93-1.88h59.9C488.44,176.79,489.31,177.64,489.31,178.68L489.31,178.68z"></path>
		<path class="st0" d="M489.31,186.21c0,1.04-0.87,1.88-1.93,1.88h-59.9c-1.07,0-1.93-0.84-1.93-1.88l0,0    c0-1.04,0.87-1.88,1.93-1.88h59.9C488.44,184.33,489.31,185.17,489.31,186.21L489.31,186.21z"></path>
		<path class="st0" d="M489.31,193.75c0,1.04-0.87,1.88-1.93,1.88h-59.9c-1.07,0-1.93-0.84-1.93-1.88l0,0    c0-1.04,0.87-1.88,1.93-1.88h59.9C488.44,191.87,489.31,192.71,489.31,193.75L489.31,193.75z"></path>
		<path class="st0" d="M489.31,201.29c0,1.04-0.87,1.88-1.93,1.88h-59.9c-1.07,0-1.93-0.84-1.93-1.88l0,0    c0-1.04,0.87-1.88,1.93-1.88h59.9C488.44,199.4,489.31,200.25,489.31,201.29L489.31,201.29z"></path>
		<path class="st0" d="M489.31,208.83c0,1.04-0.87,1.88-1.93,1.88h-59.9c-1.07,0-1.93-0.84-1.93-1.88l0,0    c0-1.04,0.87-1.88,1.93-1.88h59.9C488.44,206.94,489.31,207.79,489.31,208.83L489.31,208.83z"></path>
		<path class="st0" d="M489.31,225.61c0,1.04-0.87,1.88-1.93,1.88H354.25c-1.07,0-1.93-0.84-1.93-1.88l0,0    c0-1.04,0.87-1.88,1.93-1.88h133.12C488.44,223.72,489.31,224.57,489.31,225.61L489.31,225.61z"></path>
		<path class="st0" d="M489.31,233.95c0,1.04-0.87,1.88-1.93,1.88H354.25c-1.07,0-1.93-0.84-1.93-1.88l0,0    c0-1.04,0.87-1.88,1.93-1.88h133.12C488.44,232.07,489.31,232.91,489.31,233.95L489.31,233.95z"></path>
		<path class="st0" d="M489.31,242.29c0,1.04-0.87,1.88-1.93,1.88H354.25c-1.07,0-1.93-0.84-1.93-1.88l0,0    c0-1.04,0.87-1.88,1.93-1.88h133.12C488.44,240.41,489.31,241.25,489.31,242.29L489.31,242.29z"></path>
		<path class="st0" d="M489.31,250.64c0,1.04-0.87,1.88-1.93,1.88H354.25c-1.07,0-1.93-0.84-1.93-1.88l0,0    c0-1.04,0.87-1.88,1.93-1.88h133.12C488.44,248.75,489.31,249.6,489.31,250.64L489.31,250.64z"></path>
		<path class="st0" d="M489.31,258.98c0,1.04-0.87,1.88-1.93,1.88H354.25c-1.07,0-1.93-0.84-1.93-1.88l0,0    c0-1.04,0.87-1.88,1.93-1.88h133.12C488.44,257.1,489.31,257.94,489.31,258.98L489.31,258.98z"></path>
		<path class="st0" d="M489.31,267.33c0,1.04-0.87,1.88-1.93,1.88H354.25c-1.07,0-1.93-0.84-1.93-1.88l0,0    c0-1.04,0.87-1.88,1.93-1.88h133.12C488.44,265.44,489.31,266.29,489.31,267.33L489.31,267.33z"></path>
		<path class="st0" d="M489.31,275.67c0,1.04-0.87,1.88-1.93,1.88H354.25c-1.07,0-1.93-0.84-1.93-1.88l0,0    c0-1.04,0.87-1.88,1.93-1.88h133.12C488.44,273.79,489.31,274.63,489.31,275.67L489.31,275.67z"></path>
		<path class="st0" d="M489.31,284.02c0,1.04-0.87,1.88-1.93,1.88H354.25c-1.07,0-1.93-0.84-1.93-1.88l0,0    c0-1.04,0.87-1.88,1.93-1.88h133.12C488.44,282.13,489.31,282.98,489.31,284.02L489.31,284.02z"></path>
		<rect x="362.28" y="163.43" class="st0" width="44.74" height="41.46"></rect>
	</g>
	<g id="umbrelo">
		<path class="st19" d="M195.2,91.49c0.55-0.06,1.08-0.22,1.57-0.5c1.93-1.08,2.61-3.49,1.51-5.37l-21.54-36.73    c-0.8-1.36-2.34-2.13-3.94-1.96c-0.55,0.06-1.08,0.23-1.57,0.5c-0.93,0.52-1.61,1.37-1.89,2.38c-0.28,1.01-0.14,2.07,0.39,2.99    l21.54,36.73C192.06,90.88,193.6,91.65,195.2,91.49z"></path>
		<path class="st19" d="M378.5,370.85c4.05-0.42,7.96-1.57,11.6-3.42c16.08-8.14,22.36-27.52,14.01-43.19    c-5.04-9.46-14.54-15.83-25.41-17.06c-0.3-0.03-0.61-0.04-0.9,0c-1.86,0.2-3.37,1.65-3.59,3.47c-0.12,1.05,0.18,2.08,0.85,2.91    c0.67,0.83,1.63,1.35,2.71,1.47c8.2,0.92,15.36,5.73,19.15,12.85c6.29,11.81,1.56,26.4-10.56,32.54    c-2.74,1.39-5.68,2.26-8.74,2.58c-9.52,1-18.68-3.4-23.69-11.25l-0.01,0.01l-0.61-0.98L257.22,186.9    c-0.79-1.36-2.34-2.12-3.94-1.96c-0.55,0.06-1.08,0.23-1.57,0.5c-0.93,0.52-1.61,1.37-1.89,2.38c-0.28,1.01-0.14,2.07,0.39,2.98    l96.68,164.87l0,0C353.5,366.25,365.77,372.18,378.5,370.85L378.5,370.85z"></path>
		<g>
			<g>
				<path class="st20" d="M116.15,288c0,0,16.23-20.55,35.81-31.46c25.47-14.19,48.87-18.27,54.02-19.03      c0.69-0.1,1.05-0.14,1.05-0.14s0.05-0.06,0.14-0.17c1.77-2.2,20.37-24.76,49.02-40.73c40.04-22.31,64.08-23.87,66.99-23.98      c0.2-0.01,0.3-0.01,0.3-0.01s0.17-0.32,0.54-0.9c2.45-3.9,13.58-19.8,40.67-34.9c30.92-17.23,48.59-14.23,48.59-14.23      c-46.3-76.48-145.81-104.02-226.2-63.3l0,0c-2.05,1.04-4.09,2.12-6.12,3.25c-1.61,0.9-3.2,1.82-4.77,2.76l0,0      C98.48,111.72,71.81,209.89,116.15,288z"></path>
			</g>
		</g>
		<g>
			<g>
				<path class="st20" d="M116.15,288c0,0,16.23-20.55,35.81-31.46c25.47-14.19,48.87-18.27,54.02-19.03      c0.69-0.1,1.05-0.14,1.05-0.14s0.05-0.06,0.14-0.17c-45.25-79.06-56.69-157.11-25.38-174.56      c31.31-17.44,94.48,31.75,141.4,109.86c0.2-0.01,0.3-0.01,0.3-0.01s0.17-0.32,0.54-0.9c2.45-3.9,13.58-19.8,40.67-34.9      c30.92-17.23,48.59-14.23,48.59-14.23c-46.3-76.48-145.81-104.02-226.2-63.3c-2.05,1.04-4.09,2.12-6.12,3.25      c-1.61,0.9-3.2,1.82-4.77,2.76C98.48,111.72,71.81,209.89,116.15,288z"></path>
			</g>
		</g>
		<g>
			<path class="st14" d="M205.98,237.51c0.69-0.1,1.05-0.14,1.05-0.14s0.05-0.06,0.14-0.17c-45.25-79.06-56.69-157.11-25.38-174.56     c31.31-17.44,94.48,31.75,141.4,109.86c0.2-0.01,0.3-0.01,0.3-0.01s0.17-0.32,0.54-0.9c-22.7-37.73-49.7-69.83-76.23-90.56     c-24-18.77-45.23-26.35-60.71-21.87l0,0c-2.07,0.6-4.04,1.42-5.9,2.45c-1.79,1-3.45,2.18-4.99,3.55l0,0     c-11.94,10.66-16.08,32.41-11.65,62.24C169.41,160.24,184.11,199.26,205.98,237.51z"></path>
		</g>
	</g>
	<g id="doktor">
		<polygon class="st21" points="517.83,144.24 538.28,144 537.94,149.32 530.36,150.1 522.09,150.18 519.27,149.19 518.26,147.96       "></polygon>
		<polygon class="st20" points="521.73,143.69 520,144.25 519.82,143.7 521.54,143.15   "></polygon>
		<polygon class="st20" points="536.54,143.81 533.55,143.94 533.52,143.42 536.51,143.29   "></polygon>
		<g>
			<path class="st22" d="M527.19,142.6v1.46c0.07,0,0.13,0.01,0.2,0.01c1.64,0.02,3.34-0.7,4.55-1.47H527.19z"></path>
			<g>
				<path class="st22" d="M560.08,211.94c0.11,0,0.22-0.05,0.26-0.14c0.59-1.11,2.14-1.81,3-1.6c0.44,0.1,0.61,0.43,0.53,0.98      c-0.02,0.14,0.09,0.26,0.25,0.27c0.16,0.02,0.31-0.08,0.33-0.21c0.17-1.12-0.61-1.43-0.95-1.52c-1.11-0.26-2.95,0.5-3.69,1.87      c-0.07,0.13,0,0.27,0.14,0.32C560,211.93,560.04,211.94,560.08,211.94z"></path>
			</g>
			<g>
				<path class="st22" d="M492.81,210.72c0.11,0,0.22-0.05,0.26-0.15c0.59-1.1,2.14-1.81,3-1.6c0.44,0.1,0.61,0.43,0.53,0.98      c-0.02,0.14,0.09,0.26,0.25,0.28c0.16,0.01,0.31-0.08,0.33-0.21c0.17-1.12-0.61-1.43-0.95-1.52c-1.1-0.26-2.95,0.5-3.69,1.87      c-0.07,0.13,0,0.27,0.15,0.33C492.73,210.71,492.77,210.72,492.81,210.72z"></path>
			</g>
			<g>
				<g>
					<path class="st23" d="M521.98,152.85c2.14,2.93,9.77,1.08,11.78,0.16c2.38-1.09,4.32-2.75,6.53-4.05       c-2.23-0.51-4.36-1.26-5.75-3.04c-1.12-1.42-1.67-3.18-1.9-4.99h-3.92v-0.54h-5.51c-0.22,1.81-0.78,3.58-1.89,4.99       c-1.28,1.63-3.03,2.65-4.92,3.39C518.57,149.41,520.54,150.88,521.98,152.85z"></path>
				</g>
			</g>
			<path class="st20" d="M554.05,239.13c-0.11-3.76-1.69-8.58-2.54-12.27c-0.42-1.85-1.11-3.62-1.72-5.41     c-0.2-0.57-1.89-7.43-2.56-7.24c-3.85-0.69-6.06,0.55-9.95,0.14c-1.85-0.19-3.72-0.46-5.58-0.26c-1.41,0.16-2.81,0.4-4.24,0.44     c-1.37,0.04-2.69-0.25-4.04-0.29c-1.64-0.04-3.26,0.18-4.89,0.35c-3.89,0.41-6.1-0.83-9.95-0.14c-0.95,0.17-1.27,2.52-1.45,3.22     c-0.34,1.35-0.67,2.75-1.13,4.07c-0.61,1.77-1.29,3.53-1.71,5.36c-0.85,3.69-2.27,7.9-2.38,11.66c-0.3,10,0.38,19.39,0.41,29.41     c0.03,12.92,1.31,25.73,2.24,38.6c0.46,6.34,0.97,12.67,1.32,19.01c0.35,6.25,0.95,12.51,3.28,18.4     c0.93,2.34,0.36,7.28,2.98,8.42c2.38,1.04,8.28,0.73,9.79,0c1.76-7.59,2.5-19.12,3.76-29.02c1.75-13.75,0.99-27.57,0.51-41.45     c-0.23-6.76,0.8-15.74,0.75-22.51c-0.02-2.88,0.59-4.48,0.98-6.7c0.39,2.09,0.95,3.68,0.94,6.45     c-0.05,6.77,0.99,15.75,0.75,22.51c-0.48,13.88-1.24,27.7,0.51,41.45c1.26,9.9,2,21.43,3.76,29.02c1.51,0.73,7.41,1.04,9.79,0     c2.62-1.14,2.05-6.08,2.98-8.42c2.33-5.89,2.93-12.15,3.28-18.4c0.36-6.34,0.86-12.67,1.32-19.01     c0.93-12.87,2.21-25.69,2.24-38.61C553.52,257.91,554.36,249.13,554.05,239.13z"></path>
			<g>
				<path class="st20" d="M522.81,349.02c-0.32-0.62-1.21-0.34-1.77-0.3c-0.67,0.05-1.34,0.11-2.02,0.07      c-1.48-0.1-2.97-0.1-4.4-0.54c-1.13-0.36-2.16-0.85-3.26-1.27c-0.71-0.27-1.28-0.47-1.75-1.05l-0.01-0.19      c-0.07,1.63-0.15,3.27,0.42,4.83c0.4,1.08,0.97,2.15,2.18,2.52c1.71,0.51,3.75,0.57,5.53,0.58c1.33,0.01,3.49,0.1,4.48-0.96      c0.53-0.57,0.62-1.36,0.62-2.09C522.83,350.14,523.03,349.47,522.81,349.02z"></path>
				<path class="st20" d="M545.25,346.75c-0.46,0.4-1.05,0.82-1.62,1.04c-0.52,0.19-1.14,0.41-1.69,0.45      c-0.97,0.08-1.97,0.22-2.95,0.27c-1.12,0.05-2.24-0.07-3.34-0.1c-0.47-0.01-0.96-0.04-1.43,0c-0.33,0.03-0.95,0.01-1.04,0.36      c-0.26,1.1,0.31,3.45,1.03,3.9c0.5,0.32,1.22,0.34,1.8,0.4c0.73,0.08,1.47,0.16,2.21,0.19c1.24,0.05,2.49-0.25,3.72-0.39      c1.59-0.18,3.3-0.4,3.74-2.15c0.4-1.59,0.25-3.35,0.46-4.97C545.8,346.04,545.59,346.46,545.25,346.75z"></path>
			</g>
			<g>
				<path class="st24" d="M511.93,360.89c0.97,0.06,10.14-0.88,9.88,0.51l1.34,4.93l-12.04,0.57l-1.68,1.39      C509.99,365.89,511.26,360.85,511.93,360.89z"></path>
				<path class="st24" d="M517.61,358.11c4.81,0.25,3.56,8.93,3.56,8.93l-5.34,1.05c0,0-4.13-0.86-4.14-2.79      C511.68,361.44,512.79,357.86,517.61,358.11z"></path>
				<path class="st24" d="M516.65,364.1c8.35,0.38,7.93,6.51,7.93,6.51l-15.79-0.57C508.79,370.05,508.3,363.73,516.65,364.1z"></path>
				<path class="st24" d="M508.79,370.05c0.78,0.06,15.79-0.25,15.79,0.57c0,0,0.58,2.33-1.17,2.46c-4.2,0.3-14.82,0.19-15.01-1.14      C508.2,370.62,508.79,370.05,508.79,370.05z"></path>
			</g>
			<g>
				<path class="st24" d="M543.65,360.75c-0.97,0.06-9.72-0.79-9.46,0.6l-2.48,6.79l12.57-1.03l1.68,1.39      C545.97,368.5,544.62,360.69,543.65,360.75z"></path>
				<path class="st24" d="M538.49,358.51c-4.82-0.15-4.26,9.15-4.26,9.15l5.16,0.95c0,0,4.2-0.51,4.37-2.43      C544.1,362.32,543.31,358.66,538.49,358.51z"></path>
				<path class="st24" d="M539.12,364.35c-8.35,0.38-8.29,6.49-8.29,6.49l15.79-0.57C546.62,370.27,547.47,363.97,539.12,364.35z"></path>
				<path class="st24" d="M546.62,370.27c-0.78,0.06-15.79-0.25-15.79,0.57c0,0-0.58,2.34,1.17,2.46c4.2,0.31,14.82,0.19,15.01-1.13      C547.2,370.84,546.62,370.27,546.62,370.27z"></path>
			</g>
		</g>
		<g id="doktorso">
			<g>
				<g>
					<path class="st14" d="M551.18,184.61c-0.33,5.31,5.06,64.99,4.77,65.06c-7.87,1.64-28.04,9.97-55.82,1.11       c-0.27-0.08,4.52-77.82,3.21-81.6l-1.49-5.69c0,0-9.62-6.16-6.36-8.85c3.69-3.06,7.43-3.48,12.07-4.49       c1.43-0.32,3.99-0.54,6.36-0.94c1.37-0.23,2.67-0.51,3.67-0.89c0.05-0.02,0.09-0.03,0.13-0.05c0.06-0.02,0.12-0.05,0.17-0.07       l0.17,0.46l0.05,0.14l0.52,1.41l0.2,0.51c0.01,0.02,0.01,0.04,0.02,0.05l0.21,0.56l2.69,7.28v0.01l0.08,0.21l0.68,1.86       l0.52,1.4l0.19,0.53l3.4,9.17l0.29,0.79l0.33,0.88l0.32,0.85l0.39,1.06l0.02,0.06l0.04,0.11l0.08-0.21l0.05-0.11l0.01-0.02       l0.04-0.1l0.64-1.65l0.19-0.48l0.1-0.26l0.14-0.38l1.44-3.75l2.41-6.27l0.24-0.63l0.09-0.25l1.1-2.87l0.4-1.01l1.52-3.95       l1.33-3.44l0.47-1.22l0.28-0.72c0.01,0.01,0.03,0.02,0.04,0.02c0.06,0.02,0.11,0.05,0.16,0.06c0.8,0.21,1.52,0.34,2.34,0.51       c2.09,0.43,4.27,0.8,6.39,1.12c0.47,0.07,0.93,0.14,1.39,0.24c4.43,0.97,7.46,1.97,11.08,4.57c0.01,0,0.02,0.01,0.03,0.02       c0.16,0.1-2.06,2.11-1.9,2.24c2.25,1.59-5.16,6.51-5.16,6.51C552.35,167.07,551.76,175.29,551.18,184.61z"></path>
				</g>
			</g>
			<polygon class="st25" points="530.62,254.77 530.53,179.15 527.08,173.16 526.6,173.7 527.28,254.66    "></polygon>
			<polygon class="st26" points="530.17,254.8 530.15,179.24 526.23,171.78 526.23,254.68    "></polygon>
			<path class="st20" d="M516.68,149.15c0,0,10.96,7.36,22.31-0.76l-10.82,26.92L516.68,149.15z"></path>
			<polygon class="st14" points="513.77,149.41 514.37,155.29 519.42,157.44 518.4,161.36 528.66,176.76 517.83,144.24    "></polygon>
			<g>
				<polygon class="st25" points="543.17,149.21 542.04,149.03 539.13,147.24 527.7,176.05 527.7,176.05 541.1,160.56 539.6,158.32       544.27,156.33     "></polygon>
				<polygon class="st14" points="542.28,149.18 538.28,144 527.7,176.05 539.13,160.49 537.45,157.96 542.51,155.81     "></polygon>
			</g>
			<g>
				<rect x="534.97" y="175.39" class="st14" width="14.85" height="3.08"></rect>
				<g>
					<g>
						<rect x="533.33" y="175.26" class="st20" width="14.8" height="8.21"></rect>
						<rect x="533.89" y="177.67" class="st14" width="13.69" height="5.31"></rect>
					</g>
					<g>
						<path class="st14" d="M541.87,176.48c0,0.09-0.07,0.16-0.16,0.16h-1.9c-0.09,0-0.16-0.07-0.16-0.16l0,0        c0-0.08,0.07-0.16,0.16-0.16h1.9C541.8,176.32,541.87,176.39,541.87,176.48L541.87,176.48z"></path>
						<rect x="540.09" y="172.83" class="st19" width="1.36" height="3.8"></rect>
						<path class="st19" d="M541.12,173.61c0,0.19-0.16,0.35-0.36,0.35s-0.36-0.16-0.36-0.35s0.16-0.35,0.36-0.35        S541.12,173.42,541.12,173.61z"></path>
						<path class="st19" d="M541.29,175.3c0,0.08-0.07,0.14-0.15,0.14h-1.09c-0.08,0-0.16-0.06-0.16-0.14l0,0        c0-0.08,0.08-0.14,0.16-0.14h1.09C541.22,175.15,541.29,175.22,541.29,175.3L541.29,175.3z"></path>
					</g>
					<g>
						<g>
							<g>
								<g>
									<path class="st18" d="M537.08,179c-0.84-1.4-2.87-0.19-2.25,1.4c0.42,1.06,2.26,1.98,2.26,1.98s1.84-0.94,2.25-2           C539.96,178.79,537.92,177.6,537.08,179z"></path>
								</g>
							</g>
							<g>
								<polygon class="st14" points="538.62,180.63 538.62,180.63 537.95,180.54 537.45,179.55 536.91,180.86 536.58,180.24           536.35,180.57 535.56,180.64 535.56,180.64 536.39,180.67 536.57,180.45 536.92,181.21 537.46,180.01 537.81,180.72                   "></polygon>
							</g>
							<path class="st27" d="M538.1,178.7c0-0.11-0.01-0.22-0.03-0.32c-0.36,0-0.73,0.19-0.99,0.62c-0.84-1.4-2.87-0.19-2.25,1.4         c0.11,0.29,0.34,0.58,0.61,0.84c0.02,0,0.03,0,0.05,0C536.93,181.24,538.1,180.1,538.1,178.7z"></path>
						</g>
					</g>
				</g>
				<g>
					<path class="st28" d="M540.87,181.12v-1.52h0.23l0.49,0.77c0.12,0.18,0.2,0.34,0.28,0.5h0.01c-0.02-0.2-0.02-0.39-0.02-0.63       v-0.64h0.19v1.52h-0.2l-0.5-0.77c-0.11-0.17-0.21-0.34-0.29-0.51h-0.01c0.01,0.2,0.01,0.38,0.01,0.63v0.65H540.87z"></path>
					<path class="st28" d="M542.64,180.64l-0.16,0.48h-0.21l0.53-1.52h0.24l0.53,1.52h-0.22l-0.17-0.48H542.64z M543.16,180.49       l-0.16-0.44c-0.03-0.1-0.06-0.19-0.08-0.28l0,0c-0.02,0.09-0.05,0.18-0.08,0.28l-0.15,0.44H543.16z"></path>
					<path class="st28" d="M545.12,180.46c-0.01-0.22-0.02-0.47-0.02-0.66l0,0c-0.05,0.18-0.12,0.37-0.2,0.58l-0.28,0.73h-0.15       l-0.25-0.72c-0.07-0.22-0.14-0.41-0.18-0.59l0,0c0,0.19-0.02,0.44-0.03,0.67l-0.04,0.65h-0.19l0.11-1.52h0.25l0.27,0.73       c0.07,0.19,0.12,0.36,0.16,0.52l0,0c0.04-0.16,0.1-0.32,0.17-0.52l0.28-0.73h0.26l0.09,1.52h-0.2L545.12,180.46z"></path>
					<path class="st28" d="M546.47,180.41h-0.6v0.55h0.67v0.16h-0.88v-1.52h0.85v0.16h-0.64v0.48h0.6L546.47,180.41L546.47,180.41z"></path>
				</g>
			</g>
			<path class="st29" d="M528.99,185.14c0,0.39-0.33,0.71-0.73,0.71c-0.4,0-0.72-0.32-0.72-0.71s0.32-0.7,0.72-0.7     S528.99,184.76,528.99,185.14z"></path>
			<path class="st19" d="M528.9,185.08c0,0.39-0.32,0.71-0.73,0.71c-0.39,0-0.72-0.32-0.72-0.71s0.33-0.71,0.72-0.71     C528.58,184.38,528.9,184.69,528.9,185.08z"></path>
			<path class="st19" d="M528.66,185.08c0,0.07-0.06,0.13-0.14,0.13h-0.69c-0.08,0-0.14-0.06-0.14-0.13l0,0     c0-0.07,0.06-0.13,0.14-0.13h0.69C528.6,184.95,528.66,185.01,528.66,185.08L528.66,185.08z"></path>
			<path class="st30" d="M521.36,151.33c-0.47-0.11-0.91-0.26-1.33-0.48l7.95,23.9l0.69-1.53L521.36,151.33z"></path>
			<path class="st29" d="M528.99,194.25c0,0.39-0.33,0.71-0.73,0.71c-0.4,0-0.72-0.31-0.72-0.71c0-0.39,0.32-0.71,0.72-0.71     S528.99,193.86,528.99,194.25z"></path>
			<path class="st19" d="M528.9,194.18c0,0.39-0.32,0.71-0.73,0.71c-0.39,0-0.72-0.31-0.72-0.71c0-0.39,0.33-0.7,0.72-0.7     C528.58,193.48,528.9,193.79,528.9,194.18z"></path>
			<path class="st19" d="M528.66,194.19c0,0.07-0.06,0.13-0.14,0.13h-0.69c-0.08,0-0.14-0.06-0.14-0.13l0,0     c0-0.07,0.06-0.13,0.14-0.13h0.69C528.6,194.05,528.66,194.11,528.66,194.19L528.66,194.19z"></path>
			<path class="st29" d="M528.99,204.98c0,0.39-0.33,0.7-0.73,0.7c-0.4,0-0.72-0.31-0.72-0.7s0.32-0.71,0.72-0.71     C528.66,204.27,528.99,204.59,528.99,204.98z"></path>
			<path class="st19" d="M528.9,204.91c0,0.39-0.32,0.71-0.73,0.71c-0.39,0-0.72-0.31-0.72-0.71c0-0.39,0.33-0.7,0.72-0.7     C528.58,204.21,528.9,204.52,528.9,204.91z"></path>
			<path class="st19" d="M528.66,204.92c0,0.07-0.06,0.13-0.14,0.13h-0.69c-0.08,0-0.14-0.06-0.14-0.13l0,0     c0-0.07,0.06-0.13,0.14-0.13h0.69C528.6,204.79,528.66,204.84,528.66,204.92L528.66,204.92z"></path>
			<path class="st29" d="M528.99,215.71c0,0.39-0.33,0.7-0.73,0.7c-0.4,0-0.72-0.32-0.72-0.7c0-0.39,0.32-0.71,0.72-0.71     S528.99,215.32,528.99,215.71z"></path>
			<path class="st19" d="M528.9,215.64c0,0.4-0.32,0.71-0.73,0.71c-0.39,0-0.72-0.31-0.72-0.71c0-0.39,0.33-0.7,0.72-0.7     C528.58,214.94,528.9,215.26,528.9,215.64z"></path>
			<path class="st19" d="M528.66,215.65c0,0.07-0.06,0.13-0.14,0.13h-0.69c-0.08,0-0.14-0.05-0.14-0.13l0,0     c0-0.07,0.06-0.13,0.14-0.13h0.69C528.6,215.51,528.66,215.57,528.66,215.65L528.66,215.65z"></path>
			<path class="st29" d="M528.99,226.44c0,0.39-0.33,0.7-0.73,0.7c-0.4,0-0.72-0.32-0.72-0.7c0-0.39,0.32-0.71,0.72-0.71     S528.99,226.05,528.99,226.44z"></path>
			<path class="st19" d="M528.9,226.37c0,0.39-0.32,0.71-0.73,0.71c-0.39,0-0.72-0.31-0.72-0.71c0-0.39,0.33-0.7,0.72-0.7     C528.58,225.67,528.9,225.98,528.9,226.37z"></path>
			<path class="st19" d="M528.66,226.37c0,0.08-0.06,0.13-0.14,0.13h-0.69c-0.08,0-0.14-0.06-0.14-0.13l0,0     c0-0.07,0.06-0.13,0.14-0.13h0.69C528.6,226.24,528.66,226.3,528.66,226.37L528.66,226.37z"></path>
			<path class="st29" d="M528.99,237.17c0,0.39-0.33,0.71-0.73,0.71c-0.4,0-0.72-0.32-0.72-0.71s0.32-0.71,0.72-0.71     C528.66,236.46,528.99,236.78,528.99,237.17z"></path>
			<path class="st19" d="M528.9,237.1c0,0.4-0.32,0.71-0.73,0.71c-0.39,0-0.72-0.31-0.72-0.71c0-0.39,0.33-0.7,0.72-0.7     C528.58,236.4,528.9,236.71,528.9,237.1z"></path>
			<path class="st19" d="M528.66,237.11c0,0.07-0.06,0.13-0.14,0.13h-0.69c-0.08,0-0.14-0.05-0.14-0.13l0,0     c0-0.08,0.06-0.14,0.14-0.14h0.69C528.6,236.97,528.66,237.03,528.66,237.11L528.66,237.11z"></path>
			<path class="st29" d="M528.99,247.9c0,0.39-0.33,0.7-0.73,0.7c-0.4,0-0.72-0.31-0.72-0.7s0.32-0.71,0.72-0.71     C528.66,247.19,528.99,247.51,528.99,247.9z"></path>
			<path class="st19" d="M528.9,247.83c0,0.39-0.32,0.7-0.73,0.7c-0.39,0-0.72-0.31-0.72-0.7s0.33-0.71,0.72-0.71     C528.58,247.13,528.9,247.44,528.9,247.83z"></path>
			<path class="st19" d="M528.66,247.84c0,0.07-0.06,0.13-0.14,0.13h-0.69c-0.08,0-0.14-0.05-0.14-0.13l0,0     c0-0.08,0.06-0.13,0.14-0.13h0.69C528.6,247.7,528.66,247.76,528.66,247.84L528.66,247.84z"></path>
			<g>
				<g>
					<path class="st20" d="M520.4,174.46c0.03,0.01,0.04,0.03,0.03,0.06c-0.01,0.02-0.03,0.04-0.06,0.03l-0.29-0.09l-0.18,0.6       l0.29,0.08c0.02,0.01,0.04,0.03,0.03,0.06c-0.01,0.02-0.03,0.04-0.06,0.03l-0.3-0.08l-0.17,0.6l0.29,0.08       c0.02,0.01,0.03,0.03,0.03,0.05c-0.01,0.02-0.03,0.04-0.06,0.03l-0.29-0.09l-0.18,0.59l0.29,0.08       c0.03,0.01,0.04,0.04,0.04,0.06h-0.01h0.26l0.6-1.97c0.12-0.4-0.14-1-0.24-1.27l-0.32,1.07L520.4,174.46z"></path>
					<path class="st20" d="M519.1,176.55l0.04-0.15l-0.29-0.08c-0.03-0.01-0.04-0.03-0.03-0.05c0-0.03,0.03-0.03,0.05-0.03l0.3,0.08       l0.18-0.6l-0.29-0.09c-0.02,0-0.04-0.03-0.03-0.05c0.01-0.02,0.03-0.03,0.05-0.03l0.3,0.08l0.18-0.59l-0.29-0.08       c-0.02-0.01-0.04-0.04-0.04-0.05c0.01-0.02,0.04-0.04,0.07-0.03l0.29,0.09l0.18-0.59l-0.3-0.08c-0.03,0-0.04-0.03-0.03-0.06       c0-0.02,0.03-0.03,0.05-0.03l0.29,0.09l0.33-1.07c-0.26,0.16-0.79,0.54-0.91,0.94l-0.73,2.4h0.63V176.55z"></path>
					<path class="st20" d="M518.59,176.55l0.72-2.36c0.12-0.39,0.59-0.79,0.82-0.96l0.17-0.57c0-0.01,0-0.01,0.01-0.02       c-0.13-0.1-0.18-0.29-0.13-0.47l0.22-0.74c0.07-0.24,0.3-0.38,0.51-0.32s0.31,0.3,0.24,0.54l-0.23,0.74       c-0.05,0.19-0.2,0.31-0.36,0.33c0,0.01,0,0.01,0,0.02l-0.18,0.57c0.08,0.27,0.28,0.86,0.16,1.25l-0.6,2h0.77l0.64-2.14       c0.24-0.77-0.09-1.38-0.23-1.6l0.31-1.02c0.13-0.42-0.07-0.85-0.44-0.96s-0.78,0.15-0.91,0.57l-0.31,1.02       c-0.47,0.23-0.85,0.45-1.09,1.22l-0.88,2.91L518.59,176.55L518.59,176.55z"></path>
					<path class="st18" d="M518.86,176.32l0.29,0.08l-0.04,0.15h0.34l0.02-0.06l0.21,0.06h0.14h0.01c0-0.02-0.01-0.05-0.04-0.06       l-0.29-0.08l0.18-0.59l0.29,0.09c0.02,0.01,0.05-0.01,0.06-0.03s-0.01-0.05-0.03-0.05l-0.29-0.08l0.17-0.6l0.3,0.08       c0.03,0.01,0.05,0,0.06-0.03c0-0.03-0.01-0.05-0.03-0.06l-0.29-0.08l0.18-0.6l0.29,0.09c0.02,0.01,0.05-0.01,0.06-0.03       c0-0.02-0.01-0.05-0.03-0.06l-0.29-0.08l0.32-1.07l0.17-0.57c0-0.01,0-0.01,0-0.02c0.19-0.02,0.35-0.14,0.41-0.32l0.22-0.74       c0.07-0.24-0.07-0.48-0.31-0.55c-0.25-0.07-0.5,0.07-0.58,0.3l-0.22,0.74c-0.05,0.19,0.02,0.38,0.16,0.49       c0,0.01-0.01,0.01-0.01,0.01l-0.17,0.58l-0.33,1.07l-0.29-0.09c-0.02,0-0.05,0.01-0.05,0.03c-0.01,0.02,0,0.05,0.03,0.06       l0.3,0.08l-0.18,0.59l-0.29-0.09c-0.03,0-0.05,0.01-0.07,0.03c0,0.02,0.01,0.05,0.04,0.05l0.29,0.08l-0.18,0.59l-0.3-0.08       c-0.03-0.01-0.04,0.01-0.05,0.03c-0.01,0.03,0.01,0.05,0.03,0.05l0.29,0.09l-0.18,0.6l-0.3-0.08c-0.02,0-0.05,0-0.05,0.03       C518.82,176.29,518.83,176.31,518.86,176.32z"></path>
				</g>
				<rect x="507.06" y="176.3" class="st14" width="14.97" height="3.1"></rect>
				<g>
					<g>
						<g>
							<path class="st28" d="M516.74,176.37c0,0.13-0.11,0.24-0.24,0.24l0,0c-0.13,0-0.25-0.11-0.25-0.24v-1.18         c0-0.13,0.11-0.24,0.25-0.24l0,0c0.13,0,0.24,0.11,0.24,0.24V176.37z"></path>
							<path class="st28" d="M515.89,176.02c0-0.32,0.27-0.59,0.61-0.59l0,0c0.33,0,0.6,0.26,0.6,0.59l0,0         c0,0.33-0.27,0.59-0.6,0.59l0,0C516.16,176.62,515.89,176.35,515.89,176.02L515.89,176.02z"></path>
							<polygon class="st28" points="516.54,193.18 517.11,191.96 516.51,191.74 515.89,191.96 516.46,193.18        "></polygon>
							<rect x="515.89" y="176.03" class="st28" width="1.22" height="15.92"></rect>
							<path class="st28" d="M515.75,176.29v-0.31c0-0.09-0.07-0.16-0.16-0.16c-0.09,0-0.16,0.07-0.16,0.16v0.31H515.75z"></path>
						</g>
						<rect x="515.43" y="175.79" class="st28" width="1.4" height="0.24"></rect>
					</g>
					<path class="st31" d="M517.02,190.71c0,0.13-0.11,0.23-0.24,0.23l0,0c-0.13,0-0.23-0.1-0.23-0.23v-13.73       c0-0.13,0.11-0.23,0.23-0.23l0,0c0.13,0,0.24,0.11,0.24,0.23V190.71z"></path>
				</g>
				<g>
					<g>
						<path class="st20" d="M528.2,166.36c-3.27-2.4-5.61-5.67-7.24-9.29c-0.87-1.93-1.48-3.96-2.03-5.99        c-0.22-0.78-0.73-2.9-1.1-4.54c-0.11,0.4-0.25,0.79-0.36,1.2c0.28,1.36,0.61,2.83,0.8,3.52c0.57,2.1,1.23,4.16,2.1,6.15        c1.64,3.74,4.13,7.08,7.48,9.54C528.2,167.2,528.55,166.61,528.2,166.36z"></path>
					</g>
					<g>
						<path class="st19" d="M521.12,159.34c1.63,3.03,3.83,5.68,6.64,7.75c0.53,0.39,1.05-0.49,0.53-0.87        c-2.66-1.95-4.73-4.52-6.28-7.38C521.7,158.26,520.81,158.76,521.12,159.34L521.12,159.34z"></path>
					</g>
					<g>
						<path class="st32" d="M528.29,166.21c-2.66-1.95-4.73-4.52-6.28-7.38c-0.14-0.25-0.4-0.29-0.62-0.2        c-0.28,0.11,0.01,0.55,0.22,0.84C525.86,165.35,528.81,166.6,528.29,166.21z"></path>
					</g>
					<g>
						<path class="st20" d="M537.95,147.62c-0.19,1.14-0.46,2.28-0.76,3.4c-0.55,2.04-1.18,4.05-2.03,5.99        c-1.59,3.63-3.98,6.92-7.24,9.3c-0.34,0.26,0,0.84,0.35,0.58c3.37-2.47,5.8-5.8,7.48-9.54c0.89-1.99,1.52-4.06,2.1-6.15        c0.33-1.18,0.62-2.37,0.82-3.58L537.95,147.62L537.95,147.62z"></path>
					</g>
					<g class="st33">
						<path class="st14" d="M537.02,153.16c-0.42,1.37-0.97,2.89-1.55,4.21c-0.36,0.8-0.76,1.35-1.19,2.11l0.45-0.11        c0.36-0.66,0.7-1.32,1.01-2.01c0.6-1.33,1.08-2.7,1.5-4.09c0.03-0.09,0.17-0.35,0.04-0.4        C537.12,152.81,537.06,153.08,537.02,153.16z"></path>
					</g>
					<g>
						<path class="st19" d="M534.1,158.79c-1.55,2.86-3.61,5.43-6.27,7.38c-0.52,0.39-0.01,1.26,0.52,0.87        c2.81-2.06,5-4.72,6.64-7.74C535.3,158.72,534.41,158.22,534.1,158.79L534.1,158.79z"></path>
					</g>
					<g>
						<path class="st32" d="M534.34,160.01c-1.85,3.26-6.52,7.42-5.99,7.03c2.81-2.06,5-4.72,6.64-7.74        C535.3,158.72,534.46,159.8,534.34,160.01z"></path>
					</g>
				</g>
				<g>
					<path class="st19" d="M529.4,172.91c-0.25-0.98-0.54-1.94-0.74-2.94c-0.23-1.05-0.26-2.12-0.3-3.19       c-0.02-0.43-0.71-0.43-0.69,0c0.08,1.87,0.35,3.61,0.84,5.42c0.52,1.93,0.99,3.86,0.66,5.86c-0.28,1.71-1.21,3.42-2.82,4.26       c-2.19,1.13-4.25-0.93-5.35-2.56c-1.65-2.43-1.52-6.37-5.01-7.1c-2.4-0.5-4.28,1.38-4.14,3.63h0.68       c-0.12-1.45,0.84-2.86,2.37-3.02c1.74-0.19,2.95,0.91,3.57,2.37c0.69,1.61,1.09,3.21,2.09,4.68c0.89,1.33,2.18,2.57,3.81,2.91       c3.12,0.64,5.17-2.79,5.52-5.33C530.1,176.22,529.82,174.56,529.4,172.91z"></path>
				</g>
				<g>
					<path class="st32" d="M528.36,169.33c0.17,1.53,1.22,5.02,1.3,5.46c0.35,1.93,0.24,2.68,0.16,3.43c0.09,0.08-0.1-0.08,0,0       c0.02-0.1,0.03-0.2,0.05-0.3c0.22-1.7-0.06-3.36-0.48-5.01c-0.25-0.98-0.54-1.94-0.74-2.94c-0.23-1.05-0.3-2.93-0.3-2.93       C528.38,167.61,528.26,168.38,528.36,169.33z"></path>
					<path class="st32" d="M519.63,176.83c-0.72-2.04-1.47-3.7-3.66-4.16c-1.52-0.32-2.83,0.33-3.55,1.41c0.11,0.05,0,0,0,0       c0.55-0.7,1.65-1.09,2.45-1.17c1.74-0.19,3.4,1.04,3.97,2.51C519.65,177.5,519.9,177.55,519.63,176.83z"></path>
					<path class="st32" d="M526.44,182.66c-2.13,1.1-4.68-0.68-5.84-2.27c-0.01,0-0.02,0.01-0.03,0.02c0.9,1.3,2.16,2.51,3.77,2.84       c2.52,0.51,4.33-1.61,5.12-3.78C528.93,180.8,527.75,181.99,526.44,182.66z"></path>
				</g>
			</g>
			<path class="st20" d="M520.05,144.24c0,0-2.43,0.49-2.01,3.22c0.38,2.54-0.57,0.26-0.57,0.26s-0.66-3.1,2.62-4.11L520.05,144.24z     "></path>
			<g class="st33">
				<path class="st14" d="M518.93,151.07c-0.32-1.13-0.71-2.87-0.93-3.86c-0.08-0.37,0.15-1.3,0.01-1.27      c-0.31,0.09-0.11,1.65-0.11,1.65c0.2,1.14,0.46,2.43,0.75,3.52c0.32,1.2,0.68,2.38,1.09,3.54c0,0,0.07,0.16,0.18,0.12      c0.13-0.05,0.08-0.19,0.08-0.19C519.59,153.43,519.25,152.25,518.93,151.07z"></path>
			</g>
			<path class="st20" d="M536,143.36l0.05,0.45c2.67-0.22,1.9,3.81,1.9,3.81h0.72C539.04,142.43,536,143.36,536,143.36z"></path>
			<g class="st34">
				<path class="st14" d="M536.74,143.41c1.45,0.25,1.91,1.98,1.76,3.21c-0.01,0.1,0.14,0.09,0.15,0c0.16-1.31-0.37-3.09-1.87-3.35      C536.69,143.26,536.65,143.4,536.74,143.41L536.74,143.41z"></path>
			</g>
			<g id="dokhead">
				<g>
					<g>
						<path class="st22" d="M533.99,139.17L533.99,139.17c-0.07,0.04-0.13,0.08-0.2,0.11C533.86,139.25,533.92,139.21,533.99,139.17        z"></path>
					</g>
					<path class="st23" d="M541.26,114.79c0.03-0.21,0.2-0.28,0.36-0.26c-0.29-7.53-6.45-13.55-14.03-13.55       c-7.13,0-13.01,5.33-13.92,12.24c0.04,0.05,0.07,0.11,0.08,0.19c0.49,4.61,1.32,9.18,1.47,13.81c1.46,6.83,2.16,8.23,2.16,8.23       s0.17,1.5,4.11,3.56c0,0,0,0.02,0,0.05c0.05,0.47,0.48,5.48-0.76,6.95c-0.02,0.02-0.05,0.04-0.06,0.06c0,0,0.75,4.99,7,4.99       c5.79,0,6.7-4.53,6.76-4.82c-0.03-0.04-0.11-0.22-0.12-0.24c-1.09-1.83-0.73-6.48-0.68-6.95c0-0.02,0.01-0.05,0.01-0.05       c3.93-2.07,4.1-3.56,4.1-3.56s0.7-1.39,2.13-8.11C539.88,123.13,540.64,118.96,541.26,114.79z"></path>
					<g>
						<path class="st22" d="M533.72,140.3c0,0.04,0,0.09-0.01,0.13C533.71,140.39,533.71,140.34,533.72,140.3z"></path>
						<path class="st22" d="M533.74,139.86c0,0.02,0,0.05,0,0.07C533.74,139.91,533.74,139.89,533.74,139.86z"></path>
						<path class="st22" d="M521.71,139.98c0-0.05-0.01-0.1-0.01-0.14C521.71,139.88,521.71,139.93,521.71,139.98z"></path>
						<path class="st22" d="M533.77,139.53L533.77,139.53L533.77,139.53z"></path>
						<path class="st22" d="M521.68,139.58c0-0.02,0-0.04,0-0.06C521.68,139.54,521.68,139.56,521.68,139.58z"></path>
						<path class="st22" d="M521.74,140.45c0-0.06,0-0.12,0-0.18C521.73,140.33,521.73,140.39,521.74,140.45z"></path>
						<path class="st35" d="M521.7,139.84c-0.01-0.1-0.01-0.19-0.02-0.26C521.69,139.65,521.7,139.74,521.7,139.84z"></path>
						<path class="st35" d="M521.73,140.27c-0.01-0.11-0.02-0.2-0.02-0.29C521.71,140.07,521.72,140.17,521.73,140.27z"></path>
						<path class="st35" d="M533.74,139.93c-0.01,0.11-0.01,0.23-0.02,0.36C533.72,140.17,533.73,140.05,533.74,139.93z"></path>
						<path class="st35" d="M521.66,139.33c0,0.04,0.01,0.11,0.02,0.19C521.67,139.43,521.67,139.37,521.66,139.33L521.66,139.33z"></path>
						<path class="st35" d="M521.75,140.8c0-0.12-0.01-0.23-0.01-0.34C521.74,140.56,521.75,140.68,521.75,140.8z"></path>
						<path class="st35" d="M533.71,140.43c0,0.13-0.01,0.26-0.02,0.4C533.7,140.69,533.7,140.56,533.71,140.43z"></path>
						<path class="st35" d="M533.78,139.33L533.78,139.33c0,0.04-0.01,0.1-0.02,0.2C533.77,139.44,533.78,139.37,533.78,139.33z"></path>
						<path class="st22" d="M527.41,142.56c3.39,0,5.7-1.69,6.15-1.89c0-0.04,0-0.08,0-0.12c0.01-0.14,0.01-0.27,0.02-0.4        c0-0.04,0.01-0.09,0.01-0.13c0.01-0.13,0.01-0.25,0.02-0.36c0-0.03,0-0.05,0-0.07c0.01-0.13,0.02-0.24,0.03-0.33l0,0        c0.01-0.1,0.01-0.16,0.02-0.2c0,0-2.28,1.82-6.09,1.82c-3.53,0-6.03-1.82-6.03-1.82c0,0.04,0.01,0.1,0.01,0.19        c0.01,0.01,0.01,0.04,0.01,0.05c0,0.08,0.01,0.16,0.02,0.26c0,0.04,0.01,0.09,0.01,0.14c0,0.09,0.01,0.19,0.02,0.3        c0,0.06,0.01,0.11,0.01,0.18c0,0.11,0.01,0.22,0.01,0.34c0,0.05,0,0.1,0.01,0.15C522.07,140.87,524.25,142.56,527.41,142.56z"></path>
					</g>
				</g>
				<path class="st23" d="M512.49,119.89c-1.95,2.46,0.96,6.3,3.16,7.57l1.88-4.13C516.8,122.05,514.28,117.64,512.49,119.89z"></path>
				<path class="st23" d="M542.3,119.89c1.95,2.46-0.96,6.3-3.16,7.57l-1.88-4.13C537.99,122.05,540.51,117.64,542.3,119.89z"></path>
				<path class="st24" d="M542.64,107.46c-0.1-0.18-0.2-0.36-0.3-0.54c-0.17-0.38-0.36-0.76-0.61-1.09      c-0.08-0.11-0.16-0.21-0.25-0.31c-0.01-0.01-0.03-0.04-0.06-0.06c-0.12-0.16-0.23-0.32-0.36-0.48v0.11      c-0.15-0.17-0.28-0.34-0.24-0.41c0.09-0.13,0.19-0.26,0.27-0.39c0.19-0.33,0.28-0.7,0.38-1.06c0.25-0.92,0.5-1.88,0.61-2.83      c0.04-0.38,0.08-0.75,0.1-1.12c0.01-0.15,0.09-0.42-0.07-0.49c-0.21-0.09-0.5,0.32-0.64,0.42c-0.43,0.33-0.8,0.65-1.27,0.91      c-0.42,0.23-0.83,0.48-1.25,0.71c0.15-0.18,0.3-0.36,0.43-0.55c0.35-0.54,0.54-1.17,0.81-1.75c0.28-0.62,0.6-1.22,0.85-1.86      c0.11-0.28,0.26-0.54,0.37-0.82c0.06-0.15,0.1-0.36,0.1-0.52c-0.36-0.07-0.86,0.39-1.17,0.54c-0.54,0.26-1.1,0.48-1.67,0.69      c-0.94,0.34-1.9,0.66-2.88,0.89c-1.1,0.27-2.22,0.35-3.35,0.45c-0.85,0.08-1.69,0.16-2.53,0.22c-1.68-0.04-3.38-0.21-5.03-0.23      c-2.62-0.03-4.82,0.24-6.84,1.91c-1.29,1.07-2.34,2.6-2.3,4.14c-0.01,0.01-0.03,0.02-0.04,0.02c-3.03,1.82-3.91,3.72-4.16,7.13      c-0.1,1.45-0.16,3.99,0.24,5.41c0.28,1.02,0.63,1.79,1.15,2.45c0.02,0.13,0.04,0.27,0.06,0.39c0.1,0.74,0.32,1.61,0.56,2.34      c0.23,0.69,0.49,1.36,0.87,1.99c0.39,0.64,0.75,1.37,1.2,1.96l0.19,0.18c-0.18-1.97-0.6-3.91-0.57-5.9      c0.01-0.59,0.01-1.16,0.06-1.73c0.17-0.45,0.25-0.94,0.48-1.37c0.35-0.68,1.02-1.1,1.62-1.56c0.72-0.55,1.29-1.17,1.76-1.92      c0.28-0.47,0.53-0.93,0.74-1.41c1.34,0.45,2.66,0.93,4.03,1.3c2.69,0.73,5.29,0.79,8.05,0.45c1.85-0.23,3.62-0.3,5.48-0.07      c0.67,0.08,1.35,0.17,2.01,0.32c-0.2,0.76-0.05,1.76,0.01,2.36c0.12,1.27,0.38,2.52,0.38,3.8c0.01,1.91-0.4,3.8-0.57,5.7      l0.19-0.18c0.45-0.59,0.81-1.31,1.2-1.96c0.38-0.62,0.65-1.29,0.87-1.99c0.24-0.73,0.46-1.6,0.55-2.34      c0.03-0.23,0.13-1.12,0.18-2.16c0.03-0.13,0.06-0.27,0.09-0.4c0.23-0.97,0.46-1.96,0.56-2.96c0.13-1.3,0.28-2.61,0.26-3.92      C543.19,108.98,543.07,108.25,542.64,107.46z"></path>
			</g>
		</g>
		<g id="dokarm">
			<g id="dokhand">
				<g>
					<g>
						<g>
							<path class="st22" d="M491.33,251.51l0.06-0.24l1.38-0.97c0,0,0.29,0.88,0.38,1.3s1.78,2.11,2,2.63         c0.19,0.44-0.11,0.67-0.19,0.72c0.05,0.02,0.19,0.14,0.57,0.55c0.67,0.71,0.36,1.67,0.13,1.73         c-0.23,0.06-3.18-2.13-3.18-2.13l-0.27-0.36c1.02,1.49,2.47,3.17,2.57,3.52c0.17,0.56-0.17,1.16-0.51,1.17         s-3.97-4.09-3.97-4.09l-0.1,0.03l-0.21-5.3l0.97,0.08l0.1,0.85C491.07,251.02,491.25,251.17,491.33,251.51z"></path>
						</g>
					</g>
					<path class="st22" d="M490.74,248.97c0,0-0.24-4.49-0.13-4.89s-0.21-0.39-0.36,1.31c-0.03,0.37,0.5,4.66,0.58,4.74       C490.85,250.14,490.74,248.97,490.74,248.97z"></path>
				</g>
				<path class="st23" d="M496.27,231.73c-2.66-0.21-5.31-0.49-7.97-0.58c-0.11,1.64-0.21,3.27-0.27,4.91      c-0.11,1.19-0.24,2.51-0.32,3.52c-0.34,1.26-0.85,2.53-1.22,3.76c-0.52,1.76-0.57,3.63-0.68,5.46      c-0.09,1.79,0.03,3.55,0.03,5.35c0,0.53,0.16,1.06,0.37,1.58c0.04,0.15,0.08,0.3,0.12,0.46c0.04,0.25,0.12,0.5,0.2,0.74      c0.26,0.92,0.49,1.84,0.71,2.76c0.31,1.27,0.61,3.03,1.55,4.04c0.12,0.14,0.31,0.14,0.47,0.07c0.39,0.01,1.32-0.57,0.97-2.9      c-0.31-2.11-0.64-6-0.38-7.7c0.19,1.12,0.4,1.97,0.62,2.08c0.72,0.41,1.64,0.03,2-1.37c0.16-0.63,0.04-1.87-0.06-3.22      c-0.02-1.2-0.03-3.75,0.22-4.48c0.03-0.09,0.07-0.19,0.1-0.29c0.59-0.84,0.84-1.85,1.16-2.88c0.36-1.19,0.36-2.21,0.28-3.33      c0.06-0.4,0.11-0.8,0.17-1.2C495,236.22,495.74,233.62,496.27,231.73z"></path>
				<g>
					<path class="st22" d="M490.83,250.03c-0.02-0.27-0.09-1.06-0.09-1.06s-0.24-4.49-0.13-4.89s-0.21-0.39-0.36,1.31       c-0.03,0.34,0.43,4.04,0.55,4.65L490.83,250.03L490.83,250.03z"></path>
				</g>
			</g>
			<path class="st14" d="M506,170.54l-3.89,32.35c-1.21,10.24-3.97,35.08-3.97,35.08c-0.53,0.44-4.5,0.73-7.03,0.85     c-4.2,0.2-7.34-1.09-7.34-1.09s-0.53-19.67,1.63-36.28l6.36-41.38c0.32-1.64,1.39-4.16,2.52-5.13     C501.56,148.63,506,170.54,506,170.54z"></path>
		</g>
		<path id="doklarm" class="st14" d="M569.22,201.29c1.66,9.99,2.17,33.86,2.17,33.86s-3.45,0.98-7.48,0.98    c-3.82,0-7.02-1.26-7.02-1.26s-2.21-23.89-3.27-33.03l-2.82-16.74c-0.38-9.34-0.63-17.59-0.39-21.22c0,0,4.29-7.4,8.22-9.37    c0.21-0.1-0.42-0.19-0.63-0.28c0.44,0.14,1.48,0.2,1.94,0.53c1.29,0.91,1.08,2.27,1.63,4.29    C561.57,159.05,567.51,191.04,569.22,201.29z"></path>
	</g>
	<g id="shieldao">
		<g id="shielded">
			<g>
				<g>
					<path class="st28" d="M637.48,238.48c0,0-15.43,3.78-31.56-0.01c-15.76-3.68-32.05-16.77-32.05-16.77s-16.78,13.21-34.2,16.77       c-17.13,3.51-29.75,0.01-29.75,0.01s-6.76,65.78,9.98,94.78c16.74,28.99,53.8,53,53.8,53s37.06-24.01,53.8-53       C644.25,304.26,637.48,238.48,637.48,238.48z"></path>
					<path class="st28" d="M573.71,380.74c-8.55-5.94-36.28-26.34-49.77-49.7c-13.07-22.64-11-70.27-9.86-86.54       c2.36,0.28,5.14,0.37,8.28,0.37c2.98,0,6.45-0.1,10.29-0.32c16.77-0.95,30.18-9.43,37.38-13.99c1.24-0.79,2.73-1.72,3.68-2.25       c0.95,0.53,2.43,1.46,3.68,2.25c7.2,4.56,20.61,13.04,37.38,13.99c3.84,0.22,7.31,0.32,10.28,0.32c3.15,0,5.93-0.09,8.28-0.37       c1.15,16.27,3.21,63.9-9.86,86.54C609.95,354.42,582.25,374.8,573.71,380.74z"></path>
					<path class="st36" d="M573.71,370.05c-7.35-5.11-31.19-22.65-42.79-42.73c-11.23-19.46-9.46-60.41-8.48-74.4       c2.03,0.24,4.42,0.32,7.12,0.32c2.57,0,5.54-0.09,8.84-0.27c14.42-0.82,25.94-8.11,32.14-12.03c1.07-0.68,2.35-1.48,3.16-1.93       c0.82,0.46,2.09,1.25,3.16,1.93c6.19,3.92,17.72,11.21,32.14,12.03c3.3,0.18,6.28,0.27,8.84,0.27c2.71,0,5.09-0.08,7.12-0.32       c0.99,13.99,2.76,54.94-8.48,74.4C604.87,347.43,581.06,364.95,573.71,370.05z"></path>
				</g>
				<g>
					<path class="st28" d="M613.93,298.17c0,21.65-18.01,39.2-40.22,39.2s-40.22-17.56-40.22-39.2c0-21.65,18.01-39.2,40.22-39.2       C595.92,258.97,613.93,276.52,613.93,298.17z"></path>
					<polygon id="marked" class="st14" points="566.78,309.37 598.92,278.06 605.9,284.85 573.76,316.18 566.78,322.99        559.81,316.18 544.56,301.33 551.54,294.53      "></polygon>
				</g>
			</g>
		</g>
		<path class="st23" d="M564.03,227.77c-0.13-0.66-0.29-1.3-0.43-1.96c-0.12-0.58-0.3-1.28-0.05-1.88c0.18-0.46,0.64-0.76,1.13-0.83    c1-0.15,1.49,0.6,1.8,1.33c0,0-0.01-0.05,0.02,0.06c0.29,0.97,0.24,2.05,0.04,3.08c-0.11,0.55-0.31,1.31-0.91,1.6    c-0.43,0.21-0.9,0.04-1.18-0.26C564.17,228.59,564.11,228.16,564.03,227.77z"></path>
		<path class="st23" d="M557.15,233.27c-0.48-0.58-0.83-1.27-1.27-1.88c-0.53-0.73-1.13-1.41-1.61-2.17    c-0.33-0.53-0.71-1.22-0.53-1.84c0.13-0.44,0.88-1,1.42-1.12c0.6-0.14,0.87-0.09,1.4,0.3c0.74,0.53,1.18,1.44,1.57,2.22    c0.41,0.83,0.93,1.62,1.39,2.42c0.3,0.52,0.57,1.15,0.49,1.76c-0.07,0.58-0.57,1.03-1.16,1.11    C558.17,234.17,557.57,233.78,557.15,233.27z"></path>
		<path class="st23" d="M561.87,229.7c-0.29-0.55-0.42-1.18-0.66-1.75c-0.29-0.68-0.66-1.33-0.9-2.03c-0.17-0.49-0.33-1.12,0-1.65    c0.24-0.37,0.68-0.56,1.09-0.71c0.1-0.04,0.21-0.07,0.31-0.11l0.19-0.03c0.58-0.03,0.81,0,1.2,0.38c0.53,0.53,0.69,1.36,0.84,2.07    c0.16,0.76,0.42,1.49,0.63,2.23c0.14,0.48,0.21,1.05-0.02,1.58c-0.22,0.5-0.79,0.85-1.35,0.87    C562.57,230.57,562.12,230.18,561.87,229.7z"></path>
		<path class="st23" d="M559.44,231.24c-0.4-0.64-0.64-1.36-0.99-2.03c-0.42-0.79-1.03-1.48-1.4-2.3c-0.26-0.57-0.54-1.37-0.27-1.96    c0.19-0.42,0.71-0.75,1.12-0.9c1.38-0.5,1.66,0.04,2.03,0.51c0.55,0.71,0.81,1.52,1.09,2.34c0.3,0.87,0.69,1.72,1.04,2.58    c0.22,0.56,0.4,1.21,0.24,1.81c-0.15,0.57-0.7,0.95-1.29,0.96C560.33,232.27,559.79,231.8,559.44,231.24z"></path>
	</g>
	<path id="clooud" class="st999" d="M805.27,319.97c-2.57,1.42-4.94,3.26-7.01,5.5c-6.67-13.7-22.12-19.62-35.46-13.59   c-10.4-11.91-27.9-12.58-39.09-1.51c-4.58,4.54-7.59,10.61-8.51,17.2c-12.08-9.96-29.45-7.6-38.8,5.26   c-2.12,2.92-3.71,6.23-4.68,9.78c-3.5-1.59-7.27-2.39-11.08-2.36c-5.94-0.01-11.71,2.04-16.47,5.83   c-9.8-12.47-27.25-14.12-38.96-3.68c-3.05,2.72-5.52,6.11-7.22,9.93c-7.76-13.98-24.7-18.61-37.82-10.35   c-1.01,0.64-1.98,1.34-2.91,2.11c-2.28-16.1-16.37-27.18-31.49-24.76c-10.27,1.65-18.81,9.28-22.12,19.76   c-3-2.32-6.6-3.56-10.3-3.56c-8.08,0.01-15.13,5.83-17.15,14.16c-6.11-8.15-17.26-9.48-24.91-2.97c-3.01,2.56-5.15,6.09-6.11,10.05   c-6.09-8.17-17.24-9.53-24.91-3.04c-1.53,1.29-2.85,2.85-3.9,4.6c-4.07-9.48-14.59-13.65-23.5-9.32c-1.46,0.71-2.82,1.63-4.05,2.73   c-1.95-10.87-11.8-18-22.01-15.92c-5.54,1.13-10.31,4.84-13.01,10.12l-0.18-0.21v-1.98c-0.01-16.29-12.42-29.49-27.72-29.48   c-8.22,0.01-15.89,3.9-21.08,10.4c-6.88-13.11-21.97-18.68-35.04-12.78c-10.4-11.91-27.9-12.58-39.09-1.51   c-4.58,4.54-7.59,10.61-8.51,17.2c-12.08-9.96-29.45-7.6-38.8,5.26c-2.12,2.92-3.71,6.23-4.68,9.78c-3.5-1.59-7.27-2.39-11.08-2.36   c-5.94-0.01-11.71,2.04-16.47,5.83c-9.8-12.47-27.25-14.12-38.96-3.68c-3.05,2.72-5.52,6.11-7.22,9.93   c-7.76-13.98-24.7-18.61-37.82-10.35c-1.01,0.64-1.98,1.34-2.91,2.11c-2.28-16.1-16.37-27.18-31.49-24.76   c-10.27,1.65-18.81,9.28-22.12,19.76c-3-2.32-6.6-3.56-10.3-3.56c-0.22,0-0.43,0.02-0.65,0.03v50.53v17.88v22.12h805v-22.12h0.56   v-84.01H805.27z"></path>
</g>
<path class="st14" d="M403.21,426.35"></path>
</svg>
