<?xml version="1.0" encoding="UTF-8"?>
<svg xmlns="http://www.w3.org/2000/svg" role="img" viewBox="28.93 17.18 179.14 161.51">
  <defs id="defs6">
    <clipPath id="clipPath16">
      <path id="path14" d="M 0,148 H 188 V 0 H 0 Z"></path>
    </clipPath>
    <clipPath id="clipPath24">
      <path id="path22" d="M 24.2874,132.503 H 153.546 V 16.5077 H 24.2874 Z"></path>
    </clipPath>
    <clipPath id="clipPath88">
      <path id="path86" d="m 137.955,27.4067 h 5.998 v -5.9979 h -5.998 z"></path>
    </clipPath>
    <clipPath id="clipPath136">
      <path id="path134" d="m 137.659,58.4934 h 4.625 v -4.6609 h -4.625 z"></path>
    </clipPath>
  </defs>
  <g id="g8" transform="matrix(1.33333 0 0 -1.33333 0 197.333)">
    <g id="g10">
      <g id="g12" clip-path="url(#clipPath16)">
        <g id="g18">
          <g id="g32">
            <g id="g30" clip-path="url(#clipPath24)" opacity=".13">
              <g id="g28" transform="translate(150.683 101.606)">
                <path id="path26" fill="#66c6d9" fill-opacity="1" fill-rule="nonzero" stroke="none" d="m 0,0 c -0.841,-1.431 -1.843,-2.803 -2.972,-4.139 -2.271,-2.689 -3.236,-5.55 -3.236,-9.162 0,-8.045 10.763,-14.362 5.512,-29.235 -1.649,-4.673 -5.285,-7.186 -7.389,-11.671 -2.545,-5.427 -1.968,-12.395 -5.932,-16.858 -4.19,-4.719 -13.209,-1.736 -19.126,-3.579 -8,-2.491 -14.984,-10.677 -23.275,-10.45 -6.246,0.171 -14.758,9.919 -20.884,8.463 -4.614,-1.097 -8.049,-6.217 -12.754,-6.096 -4.446,0.115 -7.195,4.775 -11.003,7.042 -3.719,2.214 -8.321,2.05 -12.651,2.346 -4.331,0.296 -9.094,1.428 -11.394,5.153 -2.294,3.714 -1.269,8.805 1.029,12.637 2.298,3.832 5.679,6.847 8.474,10.32 2.796,3.474 5.096,7.818 4.528,12.212 -0.783,6.049 -6.676,10.24 -7.548,16.272 -0.841,5.823 3.277,11.329 7.843,15.051 4.565,3.72 9.923,6.61 13.432,11.387 4.108,5.593 5.325,13.328 10.598,17.778 4.736,3.998 11.604,4.159 17.306,2.212 5.701,-1.949 10.588,-5.681 15.633,-8.985 5.046,-3.304 10.591,-6.298 16.64,-6.464 6.503,-0.177 12.684,2.912 18.975,4.807 4.264,1.284 9.048,1.81 13.345,0.713 2.236,-0.57 4.492,-1.696 5.916,-3.592 C 2.371,14.43 2.888,12.158 2.863,9.971 2.821,6.25 1.762,2.996 0,0"></path>
              </g>
            </g>
          </g>
        </g>
        <g id="g34" transform="translate(96.988 74.164)">
          <path id="path36" fill="#333" fill-opacity="1" fill-rule="nonzero" stroke="none" d="m 0,0 c 0.069,0.26 0.139,0.521 0.217,0.771 -4.581,-1.354 -9.48,-1.485 -14.034,-0.033 0.13,-0.555 0.263,-1.104 0.394,-1.658 -3.032,1.952 -5.762,4.299 -8.261,6.97 0.864,4.532 2.19,8.967 3.946,13.198 0.945,2.278 2.05,4.548 3.768,6.242 1.665,1.639 3.867,2.653 6.133,2.822 2.266,0.17 4.58,-0.503 6.446,-1.877 1.783,0.124 3.945,-1.129 5.099,-2.577 1.153,-1.447 1.825,-3.252 2.388,-5.05 C 7.504,14.313 8.379,9.329 8.648,4.601 5.717,2.801 2.714,1.029 -0.216,-0.771 c 0.076,0.243 0.144,0.497 0.211,0.751 z"></path>
        </g>
        <g id="g38" transform="translate(131.892 85.514)">
          <path id="path40" fill="#333" fill-opacity="1" fill-rule="nonzero" stroke="none" d="m 0,0 c -0.954,-1.854 -2.832,-3.028 -4.678,-3.996 -2.466,-1.296 -5.039,-2.389 -7.683,-3.268 -2.645,0.879 -5.217,1.972 -7.684,3.268 -1.846,0.968 -3.724,2.142 -4.677,3.996 -0.628,1.219 -0.794,2.636 -0.668,4 0.126,1.364 0.531,2.687 0.995,3.976 0.834,2.309 1.871,4.546 3.093,6.677 0.737,1.285 1.553,2.545 2.629,3.564 1.077,1.018 2.441,1.788 3.916,1.926 0.813,0.076 1.657,-0.062 2.396,-0.402 0.738,0.34 1.582,0.478 2.395,0.402 1.476,-0.138 2.84,-0.908 3.916,-1.926 1.077,-1.019 1.892,-2.279 2.63,-3.564 1.222,-2.131 2.258,-4.368 3.092,-6.677 C 0.137,6.687 0.542,5.364 0.667,4 0.793,2.636 0.627,1.219 0,0"></path>
        </g>
        <g id="g42" transform="translate(128.442 77.806)">
          <path id="path44" fill="#dedede" fill-opacity="1" fill-rule="nonzero" stroke="none" d="m 0,0 c -2.543,0.449 -4.039,2.692 -4.039,2.692 l -0.748,6.882 h -3.441 -0.569 -1.071 -2.37 l -0.748,-6.882 c 0,0 -1.496,-2.243 -4.039,-2.692 -2.543,-0.448 -10.023,-5.086 -9.424,-10.621 0,0 7.743,-2.067 16.581,-2.228 v -0.015 h 1.64 c 9.275,0 17.652,2.243 17.652,2.243 C 10.023,-5.086 2.543,-0.448 0,0"></path>
        </g>
        <g id="g46" transform="translate(128.442 77.806)">
          <path id="path48" fill="#4d95a6" fill-opacity="1" fill-rule="nonzero" stroke="none" d="m 0,0 c -0.28,0.05 -0.542,0.128 -0.796,0.216 -1.718,-1.063 -4.6,-2.502 -7.716,-2.596 v -0.014 c -0.053,0 -0.105,0.007 -0.157,0.007 -0.053,0 -0.104,-0.007 -0.157,-0.007 v 0.014 c -3.06,0.092 -5.891,1.482 -7.619,2.537 -0.19,-0.056 -0.376,-0.121 -0.58,-0.157 -2.543,-0.448 -10.023,-5.086 -9.424,-10.621 0,0 7.743,-2.067 16.581,-2.228 v -0.015 h 1.64 c 9.275,0 17.652,2.243 17.652,2.243 C 10.023,-5.086 2.543,-0.448 0,0"></path>
        </g>
        <g id="g50" transform="translate(70.663 77.806)">
          <path id="path52" fill="#dedede" fill-opacity="1" fill-rule="nonzero" stroke="none" d="m 0,0 c -2.543,0.449 -4.039,2.692 -4.039,2.692 l -0.748,6.882 h -3.441 -0.569 -1.071 -2.37 l -0.748,-6.882 c 0,0 -1.496,-2.243 -4.039,-2.692 -2.543,-0.448 -10.023,-5.086 -9.424,-10.621 0,0 7.743,-2.067 16.581,-2.228 v -0.015 h 1.64 c 9.275,0 17.652,2.243 17.652,2.243 C 10.023,-5.086 2.543,-0.448 0,0"></path>
        </g>
        <g id="g54" transform="translate(60.893 107.425)">
          <path id="path56" fill="#dedede" fill-opacity="1" fill-rule="nonzero" stroke="none" d="M 0,0 C 0,0 -8.976,-1.047 -8.377,-12.116 -7.779,-23.187 0,-24.832 0,-24.832 c 1.402,-0.542 2.514,0 2.514,0 0,0 7.779,1.645 8.378,12.716 C 11.49,-1.047 2.514,0 2.514,0"></path>
        </g>
        <g id="g58" transform="translate(70.663 77.806)">
          <path id="path60" fill="#294273" fill-opacity="1" fill-rule="nonzero" stroke="none" d="m 0,0 c -0.28,0.05 -0.542,0.128 -0.796,0.216 -1.718,-1.063 -4.6,-2.502 -7.716,-2.596 v -0.014 c -0.053,0 -0.105,0.007 -0.157,0.007 -0.053,0 -0.104,-0.007 -0.157,-0.007 v 0.014 c -3.06,0.092 -5.891,1.482 -7.619,2.537 -0.19,-0.056 -0.376,-0.121 -0.58,-0.157 -2.543,-0.448 -10.023,-5.086 -9.424,-10.621 0,0 7.743,-2.067 16.581,-2.228 v -0.015 h 1.64 c 9.275,0 17.652,2.243 17.652,2.243 C 10.023,-5.086 2.543,-0.448 0,0"></path>
        </g>
        <g id="g62" transform="translate(108.906 58.918)">
          <path id="path64" fill="#dedede" fill-opacity="1" fill-rule="nonzero" stroke="none" d="m 0,0 c 0.598,5.534 -6.881,10.172 -9.424,10.621 -2.543,0.448 -4.039,2.692 -4.039,2.692 l -0.748,6.881 h -3.441 -0.57 -1.07 -2.371 l -0.748,-6.881 c 0,0 -1.496,-2.244 -4.039,-2.692 C -28.993,10.172 -36.472,5.534 -35.874,0"></path>
        </g>
        <g id="g66" transform="translate(86.869 75.665)">
          <path id="path68" fill="#cecece" fill-opacity="1" fill-rule="nonzero" stroke="none" d="M 0,0 C 0,0 4.209,-6.14 8.201,0 12.193,6.14 -2.918,7.846 0,0"></path>
        </g>
        <g id="g70" transform="translate(99.47 69.45)">
          <path id="path72" fill="#66c6d9" fill-opacity="1" fill-rule="nonzero" stroke="none" d="m 0,0 c -0.28,0.05 -0.542,0.128 -0.796,0.216 -1.718,-1.063 -4.6,-2.503 -7.717,-2.596 v -0.014 c -0.052,0 -0.104,0.006 -0.156,0.007 -0.053,-10e-4 -0.104,-0.007 -0.157,-0.007 v 0.014 c -3.061,0.092 -5.892,1.482 -7.619,2.537 C -16.636,0.1 -16.821,0.036 -17.025,0 c -2.543,-0.448 -10.023,-5.086 -9.425,-10.621 0,0 7.744,-2.067 16.582,-2.229 v -0.015 h 1.64 c 9.275,0 17.652,2.244 17.652,2.244 C 10.022,-5.086 2.543,-0.448 0,0"></path>
        </g>
        <g id="g74" transform="translate(92.227 99.157)">
          <path id="path76" fill="#dedede" fill-opacity="1" fill-rule="nonzero" stroke="none" d="m 0,0 c -1.449,0.318 -2.515,0 -2.515,0 0,0 -8.975,-1.047 -8.377,-12.116 0.599,-11.071 8.377,-12.716 8.377,-12.716 1.403,-0.542 2.515,0 2.515,0 0,0 7.779,1.645 8.377,12.716 C 8.975,-1.047 0,0 0,0"></path>
        </g>
        <g id="g78" transform="translate(100.605 88.164)">
          <path id="path80" fill="#cecece" fill-opacity="1" fill-rule="nonzero" stroke="none" d="m 0,0 c 0,0 1.169,1.345 1.394,-0.898 0.224,-2.245 -2.148,-4.676 -2.148,-4.676 0,0 0.798,4.433 0.754,5.574"></path>
        </g>
        <g id="g82">
          <g id="g96">
            <g id="g94" clip-path="url(#clipPath88)" opacity=".22">
              <g id="g92" transform="translate(143.953 24.408)">
                <path id="path90" fill="#66c6d9" fill-opacity="1" fill-rule="nonzero" stroke="none" d="m 0,0 c 0,-1.656 -1.343,-2.999 -2.999,-2.999 -1.656,0 -2.999,1.343 -2.999,2.999 0,1.656 1.343,2.998 2.999,2.998 C -1.343,2.998 0,1.656 0,0"></path>
              </g>
            </g>
          </g>
        </g>
        <g id="g98" transform="translate(124.302 90.195)">
          <path id="path100" fill="#cecece" fill-opacity="1" fill-rule="nonzero" stroke="none" d="m 0,0 -0.33,-8.008 c -0.265,-0.126 -0.521,-0.268 -0.767,-0.421 -0.763,-0.473 -1.385,-1.144 -2.266,-1.464 -0.415,-0.15 -0.875,-0.213 -1.316,-0.118 -0.36,0.078 -0.676,0.255 -0.946,0.47 -0.594,0.47 -0.986,1.099 -1.539,1.603 -0.265,0.242 -0.552,0.463 -0.859,0.662 L -8.322,0 Z"></path>
        </g>
        <g id="g102" transform="translate(126.928 92.94)">
          <path id="path104" fill="#dedede" fill-opacity="1" fill-rule="nonzero" stroke="none" d="m 0,0 c -0.061,-0.775 -0.165,-1.547 -0.321,-2.305 -0.3,-1.467 -0.788,-2.888 -1.512,-4.199 -0.588,-1.06 -1.342,-2.041 -2.228,-2.874 v -10e-4 c -0.273,-0.257 -0.559,-0.5 -0.856,-0.727 -1.306,-0.998 -3.124,-0.998 -4.429,0 -1.259,0.962 -2.315,2.214 -3.083,3.602 -1.453,2.627 -1.957,5.697 -1.894,8.698 0.01,0.487 0.035,0.978 0.099,1.461 0.006,0.039 0.011,0.078 0.017,0.117 0.01,0.071 0.021,0.142 0.034,0.212 0.032,0.187 0.072,0.371 0.12,0.554 0.072,0.275 0.162,0.546 0.276,0.809 0.542,1.249 1.582,2.228 2.755,2.927 0.041,0.025 0.082,0.049 0.124,0.073 0.011,0.007 0.023,0.013 0.035,0.02 2.198,1.254 4.883,1.314 7.128,0.18 C -3.622,8.49 -3.51,8.43 -3.4,8.367 l 0.035,-0.02 c 0.044,-0.026 0.088,-0.05 0.131,-0.076 1.169,-0.7 2.208,-1.677 2.748,-2.924 0.114,-0.264 0.205,-0.534 0.277,-0.81 C -0.162,4.355 -0.123,4.171 -0.09,3.984 -0.077,3.906 -0.063,3.827 -0.052,3.749 -0.048,3.717 -0.043,3.687 -0.04,3.655 0.025,3.172 0.05,2.681 0.061,2.194 0.076,1.464 0.057,0.73 0,0"></path>
        </g>
        <g id="g106" transform="translate(123.902 97.164)">
          <path id="path108" fill="#333" fill-opacity="1" fill-rule="nonzero" stroke="none" d="m 0,0 c 0.193,-0.489 0.406,-0.975 0.587,-1.466 -0.93,0.257 -1.794,0.692 -2.52,1.255 -0.686,0.533 -1.249,1.184 -1.629,1.908 0.02,-0.663 0.152,-1.34 0.402,-1.969 0.022,-0.058 0.046,-0.115 0.071,-0.171 -0.122,0.051 -0.243,0.107 -0.361,0.164 -1.606,0.766 -2.953,1.93 -3.823,3.325 -0.414,-1.036 -1.028,-2.01 -1.803,-2.877 -0.802,-0.9 -1.778,-1.688 -2.88,-2.31 0.232,1.022 0.375,1.991 0.538,2.972 0.102,0.612 0.212,1.23 0.357,1.866 0.155,0.68 0.331,1.393 0.674,2.011 1.662,0.478 3.887,0.77 6.334,0.77 2.538,0 4.841,-0.315 6.52,-0.825 C 2.533,4.547 2.593,4.437 2.646,4.324 3.074,3.402 3.003,2.375 3.021,1.383 3.025,1.169 3.031,0.95 3.045,0.729 3.097,-0.07 3.258,-0.879 3.849,-1.468 2.584,-1.146 1.342,-0.644 0.288,0.046 0.146,0.139 0.007,0.235 -0.129,0.336 -0.087,0.224 -0.044,0.112 0,0"></path>
        </g>
        <g id="g110" transform="translate(83.586 76.635)">
          <path id="path112" fill="#333" fill-opacity="1" fill-rule="nonzero" stroke="none" d="m 0,0 -0.371,1.452 c 0,0 -4.505,15.699 11.265,19.696 0,0 5.288,-3.413 4.44,-12.134 l 0.566,2.128 0.938,3.684 c 0,0 0.716,7.106 -5.784,7.92 0,0 -21.323,6.632 -11.054,-22.746"></path>
        </g>
        <g id="g114" transform="translate(57.3 100.384)">
          <path id="path116" fill="#333" fill-opacity="1" fill-rule="nonzero" stroke="none" d="m 0,0 c 0,0 0.875,-2.124 3.813,-1.92 0,0 -1.694,0.644 -1.764,1.8 0,0 5.269,-4.519 11.005,-1.938 0.257,-5.991 1.025,-5.619 1.025,-5.619 0,0 -0.015,1.456 1.012,1.508 0,0 1.072,2.435 -0.031,8.143 -0.483,2.502 -1.749,3.842 -5.199,5.057 -2.14,0.754 -5.934,1.074 -7.915,-0.22 0,0 -5.071,0.899 -6.721,-3.538 -1.724,-4.633 -0.965,-8.159 -0.913,-9.442 0.418,-0.08 0.834,-0.437 0.995,-1.235 0.426,-0.07 0.712,1.109 1.613,4.716 C -2.543,-0.541 -0.771,0 0,0"></path>
        </g>
        <g id="g118" transform="translate(119.454 35.986)">
          <path id="path120" fill="#dedede" fill-opacity="1" fill-rule="evenodd" stroke="none" d="m 0,0 c 3.913,3.309 8.282,6.576 11.938,9.82 1.914,1.7 3.79,2.697 3.246,3.471 -1.642,2.333 -4.015,2.4 -6.105,1.6 -3.27,-1.253 -19.545,-15.293 -20.207,-13.051 -0.311,1.053 1.471,4.351 4.167,7.942 3.704,4.934 9.908,10.966 9.725,11.866 -0.622,3.051 -4.174,2.112 -5.986,0.779 -3.399,-2.5 -9.685,-9.679 -11.622,-11.917 -0.512,-0.592 -8.057,-6.479 -8.273,-6.261 -1.181,1.195 9.47,11.296 10.752,12.658 1.292,1.374 2.689,2.198 1.982,3.088 -1.215,1.528 -2.937,1.212 -4.644,0.336 -1.16,-0.595 -11.809,-10.188 -12.609,-11.18 -2.166,-2.68 -6.558,-5.629 -6.287,-11.088 0.359,-7.243 11.34,-8.154 17.055,-7.592 C -8.363,-8.693 -7.934,-6.709 0,0"></path>
        </g>
        <g id="g122" transform="translate(138.83 34.84)">
          <path id="path124" fill="#eaeaea" fill-opacity="1" fill-rule="evenodd" stroke="none" d="m 0,0 c -0.95,2.523 -4.009,3.352 -6.434,2.918 -2.711,-0.484 -6.222,-2.337 -8.207,-3.153 -2.673,-1.1 -5.834,-1.828 -8.829,-2.985 -6.723,-2.598 -13.906,-2.918 -25.551,1.388 -6.519,2.41 3.127,2.948 3.955,2.985 5.307,0.235 8.643,-0.529 14.892,-0.19 4.023,0.218 8.637,1.681 8.735,4.63 0.107,3.242 -4.932,5.19 -8.408,5.193 -4.797,0.003 -14.966,0.054 -19.301,1.767 -4.965,1.961 -18.229,3.84 -23.703,3.066 -6.852,-1.128 -11.828,-6.079 -24.063,-7.176 -0.754,-0.067 -1.52,-0.12 -2.292,-0.165 v -18.542 c 3.756,0.499 7.228,0.822 10.193,0.896 15.919,0.397 20.741,-1.604 37.722,-7.203 4.961,-1.636 11.204,1.712 16.387,2.383 5.138,0.666 10.49,0.021 15.273,2.904 C -16.645,-9.485 0.572,-2.012 0,0"></path>
        </g>
        <g id="g126" transform="translate(101.314 106.365)">
          <path id="path128" fill="#fff" fill-opacity="1" fill-rule="nonzero" stroke="none" d="M 0,0 C -0.279,1.243 0.505,2.483 1.75,2.763 2.994,3.042 4.233,2.258 4.513,1.014 4.792,-0.23 4.007,-1.47 2.763,-1.75 1.519,-2.029 0.28,-1.244 0,0 M 5.405,-3.783 4.87,-2.324 c 0.196,0.181 0.372,0.383 0.526,0.599 l 1.516,-0.344 0.413,0.956 -1.288,0.865 c 0.052,0.26 0.079,0.526 0.076,0.797 L 7.537,1.159 7.309,2.176 5.761,2.118 C 5.647,2.364 5.509,2.594 5.351,2.806 L 6.145,4.139 5.363,4.826 4.14,3.866 C 3.908,3.996 3.663,4.104 3.408,4.184 L 3.268,5.73 2.23,5.827 1.807,4.338 C 1.675,4.322 1.543,4.3 1.411,4.271 1.279,4.24 1.15,4.204 1.024,4.161 L 0.004,5.327 -0.893,4.796 -0.357,3.338 C -0.554,3.155 -0.729,2.954 -0.883,2.738 L -2.399,3.083 -2.813,2.126 -1.524,1.262 C -1.576,1.002 -1.603,0.735 -1.6,0.464 l -1.425,-0.61 0.229,-1.017 1.548,0.059 c 0.114,-0.247 0.252,-0.476 0.411,-0.689 l -0.796,-1.332 0.783,-0.688 1.223,0.96 C 0.605,-2.983 0.85,-3.09 1.104,-3.17 l 0.141,-1.548 1.037,-0.096 0.424,1.49 c 0.131,0.015 0.264,0.037 0.396,0.067 0.132,0.029 0.261,0.067 0.387,0.109 l 1.02,-1.166 z"></path>
        </g>
        <g id="g130">
          <g id="g144">
            <g id="g142" clip-path="url(#clipPath136)" opacity=".35">
              <g id="g140" transform="translate(138.983 55.941)">
                <path id="path138" fill="#ea6668" fill-opacity="1" fill-rule="nonzero" stroke="none" d="M 0,0 C -0.123,0.544 0.221,1.087 0.766,1.21 1.311,1.332 1.854,0.988 1.977,0.443 2.099,-0.102 1.755,-0.645 1.21,-0.767 0.665,-0.889 0.123,-0.545 0,0 m 2.367,-1.657 -0.234,0.638 c 0.086,0.081 0.162,0.168 0.23,0.263 l 0.664,-0.151 0.181,0.42 -0.564,0.378 C 2.667,0.005 2.679,0.121 2.677,0.24 L 3.301,0.507 3.201,0.952 2.523,0.927 C 2.473,1.035 2.413,1.136 2.343,1.229 L 2.691,1.812 2.349,2.113 1.813,1.693 C 1.711,1.75 1.604,1.797 1.493,1.832 L 1.431,2.51 0.977,2.552 0.792,1.899 C 0.733,1.893 0.676,1.883 0.618,1.87 0.56,1.856 0.503,1.841 0.448,1.822 L 0.001,2.333 -0.391,2.101 -0.157,1.461 C -0.243,1.382 -0.319,1.294 -0.387,1.199 L -1.051,1.35 -1.232,0.931 -0.667,0.552 C -0.69,0.438 -0.702,0.321 -0.701,0.203 l -0.624,-0.267 0.1,-0.446 0.679,0.026 c 0.049,-0.108 0.11,-0.208 0.179,-0.301 l -0.348,-0.584 0.342,-0.302 0.537,0.421 c 0.101,-0.057 0.208,-0.104 0.32,-0.139 L 0.545,-2.066 1,-2.109 1.185,-1.456 c 0.058,0.007 0.116,0.017 0.173,0.029 0.059,0.013 0.115,0.03 0.17,0.048 L 1.975,-1.89 Z"></path>
              </g>
            </g>
          </g>
        </g>
      </g>
    </g>
  </g>
</svg>
